<svg width="20" height="20" viewBox="0 0 20 20" fill="none" xmlns="http://www.w3.org/2000/svg">
<path d="M1.6665 10C1.6665 6.87522 1.6665 5.31283 2.46226 4.21756C2.71926 3.86383 3.03034 3.55276 3.38406 3.29576C4.47934 2.5 6.04173 2.5 9.1665 2.5H10.8332C13.9579 2.5 15.5203 2.5 16.6156 3.29576C16.9693 3.55276 17.2804 3.86383 17.5374 4.21756C18.3332 5.31283 18.3332 6.87522 18.3332 10C18.3332 13.1247 18.3332 14.6872 17.5374 15.7824C17.2804 16.1362 16.9693 16.4472 16.6156 16.7042C15.5203 17.5 13.9579 17.5 10.8332 17.5H9.1665C6.04173 17.5 4.47934 17.5 3.38406 16.7042C3.03034 16.4472 2.71926 16.1362 2.46226 15.7824C1.6665 14.6872 1.6665 13.1247 1.6665 10Z" stroke="#3981F8" stroke-width="1.5" stroke-linejoin="round"/>
<path d="M12.9168 7.08325L7.0835 12.9166M7.0835 7.08325L12.9168 12.9166" stroke="#3981F8" stroke-width="1.5" stroke-linecap="round" stroke-linejoin="round"/>
</svg>
