<svg width="16" height="16" viewBox="0 0 16 16" fill="none" xmlns="http://www.w3.org/2000/svg">
<path fill-rule="evenodd" clip-rule="evenodd" d="M9.0515 1.49808C8.42023 1.0562 7.5801 1.0562 6.94883 1.49808L1.48376 5.32362C1.07622 5.6089 0.833496 6.07508 0.833496 6.57255C0.833496 7.27207 1.3096 7.88187 1.98826 8.05154L2.20452 8.1056L2.47736 10.818C2.56047 11.6443 2.62766 12.3125 2.7494 12.8361C2.87606 13.381 3.07502 13.8343 3.46544 14.1875C3.85586 14.5406 4.32683 14.6931 4.88161 14.7647C5.41489 14.8333 6.0864 14.8333 6.9169 14.8333H9.08343C9.9139 14.8333 10.5854 14.8333 11.1187 14.7647C11.6735 14.6931 12.1445 14.5406 12.5349 14.1875C12.9253 13.8343 13.1243 13.381 13.2509 12.8361C13.3726 12.3125 13.4398 11.6443 13.523 10.818L13.7958 8.1056L14.0121 8.05154C14.6907 7.88187 15.1668 7.27207 15.1668 6.57255C15.1668 6.07508 14.9241 5.6089 14.5166 5.32362L9.0515 1.49808ZM6.30732 10.2721C6.08941 10.1025 5.77526 10.1417 5.60563 10.3595C5.43601 10.5775 5.47515 10.8916 5.69306 11.0613C6.31545 11.5457 7.1241 11.8333 8.00016 11.8333C8.87623 11.8333 9.6849 11.5457 10.3073 11.0613C10.5252 10.8916 10.5644 10.5775 10.3948 10.3595C10.2251 10.1417 9.91096 10.1025 9.69303 10.2721C9.24943 10.6175 8.65776 10.8333 8.00016 10.8333C7.34256 10.8333 6.75096 10.6175 6.30732 10.2721Z" fill="#3981F8"/>
</svg>
