<svg width="16" height="16" viewBox="0 0 16 16" fill="none" xmlns="http://www.w3.org/2000/svg">
<path d="M2.10929 7.56647L2.26088 6.96013L2.26085 6.96012L2.10929 7.56647ZM2.66659 7.7058L3.28845 7.64325C3.26206 7.38095 3.07393 7.16341 2.81818 7.09947L2.66659 7.7058ZM2.97116 10.7337L3.59302 10.6711V10.6711L2.97116 10.7337ZM3.80059 13.8166L4.21984 13.3531L4.21981 13.3531L3.80059 13.8166ZM12.1993 13.8166L11.78 13.3531L11.78 13.3531L12.1993 13.8166ZM13.0287 10.7337L12.4068 10.6711L12.4068 10.6711L13.0287 10.7337ZM13.3333 7.7058L13.1817 7.09946C12.9259 7.1634 12.7378 7.38094 12.7114 7.64324L13.3333 7.7058ZM13.8906 7.56647L13.739 6.96013L13.739 6.96013L13.8906 7.56647ZM14.2296 5.73324L14.588 5.22122L14.588 5.22122L14.2296 5.73324ZM8.76452 1.9077L8.40609 2.41971L8.4061 2.41972L8.76452 1.9077ZM7.23532 1.9077L7.59373 2.41972L7.59375 2.41971L7.23532 1.9077ZM1.77025 5.73324L2.12866 6.24526L2.12866 6.24526L1.77025 5.73324ZM10.3838 11.1598C10.6562 10.9478 10.7051 10.5551 10.4931 10.2827C10.2811 10.0104 9.88836 9.96145 9.61599 10.1735L10.3838 11.1598ZM6.38384 10.1735C6.11147 9.96145 5.71877 10.0104 5.50674 10.2827C5.2947 10.5551 5.34362 10.9478 5.61599 11.1598L6.38384 10.1735ZM1.95769 8.17281L2.51499 8.31214L2.81818 7.09947L2.26088 6.96013L1.95769 8.17281ZM2.04472 7.76836L2.3493 10.7962L3.59302 10.6711L3.28845 7.64325L2.04472 7.76836ZM2.3493 10.7962C2.43367 11.635 2.50174 12.3239 2.62741 12.8645C2.75711 13.4224 2.96473 13.9034 3.38136 14.2801L4.21981 13.3531C4.06515 13.2132 3.94411 13.0081 3.84494 12.5815C3.74174 12.1375 3.68074 11.5432 3.59302 10.6711L2.3493 10.7962ZM3.38133 14.2801C3.79794 14.657 4.29722 14.8154 4.86538 14.8886C5.41585 14.9595 6.10803 14.9583 6.95105 14.9583V13.7083C6.07462 13.7083 5.47722 13.7071 5.02513 13.6489C4.59075 13.5929 4.37451 13.493 4.21984 13.3531L3.38133 14.2801ZM6.95105 14.9583H9.04879V13.7083H6.95105V14.9583ZM9.04879 14.9583C9.89181 14.9583 10.584 14.9595 11.1345 14.8886C11.7026 14.8154 12.2019 14.657 12.6185 14.2801L11.78 13.3531C11.6253 13.493 11.4091 13.5929 10.9747 13.6489C10.5226 13.7071 9.92522 13.7083 9.04879 13.7083V14.9583ZM12.6185 14.2801C13.0351 13.9033 13.2427 13.4224 13.3724 12.8645C13.4981 12.3239 13.5662 11.635 13.6505 10.7962L12.4068 10.6711C12.3191 11.5432 12.2581 12.1375 12.1549 12.5815C12.0557 13.0081 11.9347 13.2132 11.78 13.3531L12.6185 14.2801ZM13.6505 10.7962L13.9551 7.76836L12.7114 7.64324L12.4068 10.6711L13.6505 10.7962ZM13.4848 8.31214L14.0422 8.17281L13.739 6.96013L13.1817 7.09946L13.4848 8.31214ZM14.0421 8.17281C14.7765 7.98925 15.2916 7.32942 15.2916 6.57255H14.0416C14.0416 6.75592 13.9168 6.91569 13.739 6.96013L14.0421 8.17281ZM15.2916 6.57255C15.2916 6.03427 15.0289 5.52988 14.588 5.22122L13.8712 6.24525C13.978 6.32002 14.0416 6.4422 14.0416 6.57255H15.2916ZM14.588 5.22122L9.12293 1.39568L8.4061 2.41972L13.8712 6.24526L14.588 5.22122ZM9.12295 1.39569C8.44867 0.923667 7.55116 0.923667 6.87689 1.39569L7.59375 2.41971C7.83761 2.24899 8.16223 2.24899 8.40609 2.41971L9.12295 1.39569ZM6.8769 1.39568L1.41183 5.22122L2.12866 6.24526L7.59373 2.41972L6.8769 1.39568ZM1.41183 5.22121C0.97087 5.52988 0.708252 6.03429 0.708252 6.57255H1.95825C1.95825 6.44218 2.02186 6.32001 2.12866 6.24526L1.41183 5.22121ZM0.708252 6.57255C0.708252 7.32945 1.22338 7.98926 1.95773 8.17281L2.26085 6.96012C2.08303 6.91568 1.95825 6.75589 1.95825 6.57255H0.708252ZM9.61599 10.1735C9.19474 10.5014 8.6302 10.7083 7.99992 10.7083V11.9583C8.90324 11.9583 9.7391 11.6618 10.3838 11.1598L9.61599 10.1735ZM7.99992 10.7083C7.36964 10.7083 6.80512 10.5014 6.38384 10.1735L5.61599 11.1598C6.26075 11.6618 7.0966 11.9583 7.99992 11.9583V10.7083Z" fill="#374151"/>
</svg>
