<svg width="16" height="16" viewBox="0 0 16 16" fill="none" xmlns="http://www.w3.org/2000/svg">
<path d="M11.3304 4.66666H11.3372M1.6665 14.3333L4.99984 11M5.6665 14.3333L6.99984 13M1.6665 10.3333L2.99984 8.99999M7.86737 4.32632L8.85777 3.33594C9.9729 2.22079 11.4328 1.75824 12.9779 1.68265C13.5789 1.65325 13.8794 1.63855 14.1203 1.87951C14.3613 2.12047 14.3466 2.42095 14.3172 3.02192C14.2416 4.56699 13.779 6.02694 12.6639 7.14206L11.6735 8.13246C10.8579 8.94806 10.626 9.17999 10.7972 10.0647C10.9662 10.7405 11.1298 11.3949 10.6384 11.8863C10.0423 12.4823 9.49857 12.4823 8.9025 11.8863L4.11356 7.09733C3.5175 6.50125 3.51748 5.95753 4.11356 5.36145C4.60495 4.87005 5.25936 5.03362 5.93515 5.20259C6.81984 5.37381 7.05177 5.14192 7.86737 4.32632Z" stroke="#374151" stroke-width="1.25" stroke-linecap="round" stroke-linejoin="round"/>
</svg>
