<svg width="16" height="16" viewBox="0 0 16 16" fill="none" xmlns="http://www.w3.org/2000/svg">
<g id="Frame">
<path id="Vector" fill-rule="evenodd" clip-rule="evenodd" d="M14.4741 1.52523C14.2591 1.31026 14.0125 1.21645 13.7469 1.18291C13.5224 1.15456 13.2249 1.16919 12.9537 1.18252C11.3263 1.26213 9.73294 1.75304 8.50434 2.98166L7.51401 3.97204C7.08174 4.40426 6.88307 4.5947 6.69947 4.68875C6.57208 4.75396 6.42432 4.78588 6.04317 4.71343C5.72556 4.63394 5.32769 4.53436 4.95633 4.53366C4.54725 4.53288 4.12109 4.64625 3.76017 5.00717C3.41581 5.35153 3.16667 5.75643 3.16667 6.22866C3.16668 6.70086 3.41582 7.10579 3.76017 7.45013L8.54914 12.2391C8.89347 12.5835 9.29841 12.8326 9.77061 12.8326C10.2429 12.8326 10.6477 12.5835 10.9921 12.2391C11.353 11.8782 11.4664 11.452 11.4656 11.0429C11.4649 10.6716 11.3653 10.2737 11.2859 9.95613C11.2134 9.57493 11.2453 9.42719 11.3105 9.29979C11.4045 9.11619 11.595 8.91753 12.0272 8.48532L13.0176 7.49493C14.2462 6.26631 14.7371 4.67291 14.8167 3.04562C14.8301 2.77442 14.8447 2.47689 14.8163 2.25236C14.7828 1.98672 14.689 1.7402 14.4741 1.52523ZM11.3307 3.99999C10.9625 3.99999 10.6641 4.29847 10.6641 4.66666C10.6641 5.03484 10.9625 5.33332 11.3307 5.33332H11.3367C11.7049 5.33332 12.0034 5.03484 12.0034 4.66666C12.0034 4.29847 11.7049 3.99999 11.3367 3.99999H11.3307Z" fill="#3981F8"/>
<path id="Vector_2" fill-rule="evenodd" clip-rule="evenodd" d="M3.51451 8.68419C3.76184 8.93152 3.76184 9.33252 3.51451 9.57985L2.24784 10.8465C2.00051 11.0939 1.59951 11.0939 1.35217 10.8465C1.10484 10.5992 1.10484 10.1982 1.35217 9.95085L2.61884 8.68419C2.86617 8.43685 3.26717 8.43685 3.51451 8.68419ZM4.51884 10.5842C4.76617 10.3369 5.16717 10.3369 5.41451 10.5842C5.66184 10.8315 5.66184 11.2325 5.41451 11.4799L2.24784 14.6465C2.00051 14.8939 1.59951 14.8939 1.35217 14.6465C1.10484 14.3992 1.10484 13.9982 1.35217 13.7509L4.51884 10.5842ZM7.31454 12.4842C7.56181 12.7315 7.56181 13.1325 7.31454 13.3799L6.04784 14.6465C5.80051 14.8939 5.39951 14.8939 5.15217 14.6465C4.90484 14.3992 4.90484 13.9982 5.15217 13.7509L6.41884 12.4842C6.66617 12.2369 7.0672 12.2369 7.31454 12.4842Z" fill="#3981F8"/>
</g>
</svg>
