<svg width="18" height="18" viewBox="0 0 18 18" fill="none" xmlns="http://www.w3.org/2000/svg">
<g id="Frame">
<path id="Vector" d="M12.1302 12.9438C11.9266 12.6651 11.5355 12.6042 11.2568 12.8078C10.9781 13.0114 10.9172 13.4025 11.1208 13.6812L12.1302 12.9438ZM12.5955 14.6404L13.124 14.3066C13.1164 14.2947 13.1085 14.2831 13.1002 14.2717L12.5955 14.6404ZM13.0213 14.7918L12.8111 14.2032L12.811 14.2032L13.0213 14.7918ZM16.3487 13.1044L16.7146 13.6111L16.7147 13.611L16.3487 13.1044ZM16.4993 12.8005H15.8743L15.8743 12.8044L16.4993 12.8005ZM14.6255 4.3125L15.0676 3.8707C15.0285 3.83164 14.9845 3.79792 14.9366 3.77043L14.6255 4.3125ZM11.5159 3.19201L11.4164 3.80903L11.4164 3.80904L11.5159 3.19201ZM11.1321 3.39668L11.6945 3.66934L11.6945 3.66918L11.1321 3.39668ZM10.7983 4.08508L10.6703 4.69683C10.951 4.75556 11.2356 4.61576 11.3607 4.35774L10.7983 4.08508ZM7.20147 4.08508L6.63908 4.35773C6.76417 4.61576 7.0488 4.75556 7.32947 4.69683L7.20147 4.08508ZM6.86773 3.39668L7.43012 3.12403L7.43012 3.12402L6.86773 3.39668ZM6.48386 3.19201L6.58337 3.80904L6.58339 3.80904L6.48386 3.19201ZM3.37549 4.3125L3.06432 3.77046C3.01651 3.79791 2.97253 3.83157 2.93355 3.87056L3.37549 4.3125ZM1.5005 12.8005L2.1255 12.8044V12.8005H1.5005ZM1.65109 13.1044L2.01702 12.5977H2.01702L1.65109 13.1044ZM4.97844 14.7918L5.18873 14.2032L5.18868 14.2032L4.97844 14.7918ZM5.40426 14.6404L4.8998 14.2714C4.89144 14.2828 4.88347 14.2945 4.87591 14.3065L5.40426 14.6404ZM6.87995 13.6815C7.08373 13.4029 7.02307 13.0118 6.74446 12.808C6.46585 12.6043 6.0748 12.6649 5.87102 12.9435L6.87995 13.6815ZM13.4674 13.0857C13.7564 12.8968 13.8375 12.5095 13.6487 12.2206C13.4598 11.9316 13.0725 11.8505 12.7836 12.0393L13.4674 13.0857ZM5.21742 12.0393C4.92848 11.8505 4.54116 11.9316 4.35232 12.2206C4.16347 12.5095 4.24462 12.8968 4.53356 13.0857L5.21742 12.0393ZM11.1208 13.6812L12.0909 15.0091L13.1002 14.2717L12.1302 12.9438L11.1208 13.6812ZM12.0671 14.9741C12.3071 15.3541 12.7837 15.5404 13.2316 15.3804L12.811 14.2032C12.9395 14.1574 13.0661 14.2149 13.124 14.3066L12.0671 14.9741ZM13.2315 15.3804C13.8496 15.1596 15.4111 14.5524 16.7146 13.6111L15.9828 12.5977C14.8257 13.4334 13.3988 13.9933 12.8111 14.2032L13.2315 15.3804ZM16.7147 13.611C16.984 13.4164 17.1262 13.1055 17.1243 12.7965L15.8743 12.8044C15.8739 12.7336 15.9052 12.6537 15.9827 12.5978L16.7147 13.611ZM17.1243 12.8005C17.1243 9.43562 16.6476 7.23971 16.1501 5.86407C15.9014 5.17613 15.6478 4.69452 15.4472 4.37588C15.347 4.21666 15.2603 4.09855 15.1945 4.01607C15.1616 3.97484 15.1339 3.94257 15.1124 3.91855C15.1017 3.90655 15.0925 3.89662 15.085 3.88867C15.0812 3.8847 15.0779 3.88122 15.075 3.87823C15.0735 3.87673 15.0722 3.87536 15.071 3.8741C15.0703 3.87347 15.0697 3.87288 15.0692 3.87231C15.0689 3.87203 15.0685 3.87162 15.0684 3.87148C15.068 3.87109 15.0676 3.8707 14.6255 4.3125C14.1834 4.7543 14.183 4.75393 14.1827 4.75356C14.1826 4.75345 14.1822 4.75309 14.182 4.75286C14.1815 4.75241 14.1811 4.75198 14.1807 4.75159C14.1799 4.75079 14.1793 4.75011 14.1787 4.74954C14.1776 4.7484 14.177 4.74771 14.1767 4.74749C14.1763 4.74704 14.1777 4.74844 14.1806 4.75179C14.1866 4.75847 14.1992 4.77294 14.2176 4.7959C14.2542 4.84178 14.3139 4.92182 14.3893 5.04171C14.5401 5.28129 14.755 5.68174 14.9746 6.28917C15.4141 7.50428 15.8743 9.55236 15.8743 12.8005H17.1243ZM14.6255 4.3125C14.9366 3.77043 14.9365 3.77038 14.9364 3.77032C14.9364 3.7703 14.9363 3.77024 14.9362 3.77019C14.936 3.7701 14.9358 3.76999 14.9356 3.76987C14.9352 3.76963 14.9347 3.76934 14.9341 3.76899C14.9329 3.76831 14.9313 3.76741 14.9294 3.76632C14.9255 3.76412 14.9202 3.76113 14.9135 3.75738C14.9001 3.74987 14.8811 3.73933 14.8568 3.72611C14.8083 3.69968 14.7386 3.66249 14.6505 3.61745C14.4746 3.52749 14.2241 3.40563 13.9211 3.2754C13.3201 3.01708 12.4903 2.71609 11.6154 2.57499L11.4164 3.80904C12.1511 3.92753 12.8761 4.18678 13.4275 4.4238C13.7007 4.54125 13.9258 4.65083 14.0814 4.7304C14.1591 4.77013 14.2192 4.80223 14.259 4.82389C14.2789 4.83472 14.2937 4.84292 14.303 4.84816C14.3077 4.85077 14.311 4.85264 14.3129 4.85373C14.3139 4.85427 14.3145 4.85461 14.3147 4.85475C14.3148 4.85482 14.3149 4.85484 14.3148 4.85481C14.3148 4.8548 14.3147 4.85477 14.3147 4.85473C14.3146 4.85471 14.3146 4.85467 14.3145 4.85466C14.3145 4.85461 14.3144 4.85456 14.6255 4.3125ZM11.6155 2.57499C11.1713 2.50332 10.7544 2.74273 10.5696 3.12418L11.6945 3.66918C11.6506 3.7599 11.5439 3.82961 11.4164 3.80903L11.6155 2.57499ZM10.5697 3.12402L10.2359 3.81242L11.3607 4.35774L11.6945 3.66934L10.5697 3.12402ZM10.7983 4.08508C10.9263 3.47332 10.9263 3.47331 10.9262 3.47329C10.9261 3.47329 10.9261 3.47327 10.926 3.47326C10.9259 3.47323 10.9258 3.47321 10.9256 3.47318C10.9253 3.47312 10.925 3.47305 10.9246 3.47297C10.9238 3.4728 10.9228 3.4726 10.9217 3.47236C10.9193 3.47187 10.9161 3.47122 10.9122 3.47043C10.9042 3.46883 10.8932 3.46664 10.8792 3.46393C10.8512 3.45852 10.8113 3.45104 10.7609 3.4422C10.6602 3.42453 10.5171 3.40132 10.3428 3.3782C9.99579 3.33218 9.51743 3.28548 8.9999 3.28548V4.53548C9.44634 4.53548 9.86719 4.57607 10.1784 4.61735C10.3332 4.63788 10.459 4.65832 10.5449 4.67339C10.5878 4.68092 10.6206 4.68708 10.642 4.69122C10.6527 4.69328 10.6605 4.69484 10.6653 4.6958C10.6677 4.69629 10.6693 4.69662 10.6701 4.69679C10.6706 4.69688 10.6708 4.69693 10.6708 4.69693C10.6708 4.69694 10.6708 4.69693 10.6707 4.69691C10.6707 4.6969 10.6706 4.69689 10.6706 4.69688C10.6705 4.69687 10.6705 4.69686 10.6704 4.69686C10.6704 4.69684 10.6703 4.69683 10.7983 4.08508ZM8.9999 3.28548C8.48237 3.28548 8.004 3.33218 7.65702 3.3782C7.48272 3.40132 7.33961 3.42453 7.2389 3.4422C7.18851 3.45104 7.14861 3.45852 7.1206 3.46393C7.10659 3.46664 7.09554 3.46883 7.08763 3.47043C7.08368 3.47122 7.0805 3.47187 7.07814 3.47236C7.07695 3.4726 7.07597 3.4728 7.07519 3.47297C7.0748 3.47305 7.07446 3.47312 7.07418 3.47318C7.07403 3.47321 7.0739 3.47323 7.07378 3.47326C7.07372 3.47327 7.07365 3.47329 7.07362 3.47329C7.07354 3.47331 7.07347 3.47332 7.20147 4.08508C7.32947 4.69683 7.32941 4.69684 7.32934 4.69686C7.32933 4.69686 7.32927 4.69687 7.32923 4.69688C7.32917 4.69689 7.32911 4.6969 7.32907 4.69691C7.32899 4.69693 7.32895 4.69694 7.32897 4.69693C7.329 4.69693 7.32923 4.69688 7.32965 4.69679C7.3305 4.69662 7.33213 4.69629 7.33452 4.6958C7.33931 4.69484 7.34713 4.69328 7.35782 4.69122C7.37921 4.68708 7.41203 4.68092 7.45493 4.67339C7.5408 4.65832 7.66655 4.63788 7.82137 4.61735C8.1326 4.57607 8.55345 4.53548 8.9999 4.53548V3.28548ZM7.76386 3.81242L7.43012 3.12403L6.30534 3.66934L6.63908 4.35773L7.76386 3.81242ZM7.43012 3.12402C7.24531 2.74283 6.82866 2.50332 6.38433 2.57499L6.58339 3.80904C6.45579 3.82962 6.3492 3.7598 6.30534 3.66934L7.43012 3.12402ZM6.38435 2.57499C5.50999 2.716 4.68045 3.01701 4.07964 3.27536C3.77676 3.4056 3.5263 3.52749 3.35039 3.61746C3.26233 3.6625 3.19266 3.6997 3.14412 3.72613C3.11984 3.73936 3.10083 3.7499 3.08742 3.75741C3.08072 3.76116 3.07541 3.76415 3.07155 3.76635C3.06962 3.76744 3.06805 3.76834 3.06684 3.76902C3.06624 3.76937 3.06573 3.76966 3.06531 3.7699C3.0651 3.77002 3.06491 3.77013 3.06475 3.77022C3.06466 3.77027 3.06456 3.77033 3.06452 3.77035C3.06442 3.77041 3.06432 3.77046 3.37549 4.3125C3.68665 4.85453 3.68657 4.85458 3.68649 4.85463C3.68647 4.85464 3.6864 4.85468 3.68637 4.8547C3.68629 4.85474 3.68624 4.85477 3.68622 4.85478C3.68616 4.85481 3.6862 4.85479 3.68632 4.85472C3.68657 4.85458 3.68717 4.85424 3.68813 4.8537C3.69004 4.85261 3.69335 4.85074 3.69803 4.84812C3.70738 4.84289 3.72216 4.83468 3.74205 4.82385C3.78182 4.80218 3.84191 4.77008 3.9196 4.73034C4.0752 4.65075 4.30027 4.54115 4.57343 4.4237C5.12472 4.18664 5.84936 3.92742 6.58337 3.80904L6.38435 2.57499ZM3.37549 4.3125C2.93355 3.87056 2.93316 3.87095 2.93276 3.87134C2.93262 3.87148 2.93222 3.87189 2.93194 3.87217C2.93138 3.87274 2.93079 3.87333 2.93017 3.87396C2.92893 3.87521 2.92758 3.87659 2.92613 3.87808C2.92322 3.88107 2.91988 3.88455 2.91612 3.88853C2.9086 3.89647 2.89941 3.9064 2.88867 3.91841C2.86719 3.94242 2.83952 3.97469 2.80659 4.01591C2.7407 4.0984 2.65394 4.21651 2.55366 4.37573C2.35298 4.69437 2.09923 5.17599 1.85029 5.86395C1.35248 7.23962 0.875496 9.43558 0.875496 12.8005H2.1255C2.1255 9.5524 2.58601 7.50436 3.0257 6.28929C3.2455 5.68188 3.4605 5.28143 3.61138 5.04186C3.68688 4.92198 3.7466 4.84194 3.78326 4.79605C3.8016 4.77309 3.81421 4.75862 3.82019 4.75193C3.82319 4.74859 3.82453 4.74718 3.8241 4.74763C3.82389 4.74786 3.82324 4.74854 3.82213 4.74968C3.82158 4.75025 3.82091 4.75093 3.82013 4.75173C3.81973 4.75212 3.81931 4.75255 3.81887 4.753C3.81864 4.75323 3.81828 4.75359 3.81817 4.7537C3.8178 4.75407 3.81743 4.75444 3.37549 4.3125ZM0.875508 12.7965C0.873563 13.1054 1.01564 13.4164 1.28516 13.611L2.01702 12.5977C2.09463 12.6537 2.12593 12.7338 2.12548 12.8044L0.875508 12.7965ZM1.28516 13.611C2.58862 14.5524 4.15024 15.1596 4.7682 15.3804L5.18868 14.2032C4.601 13.9933 3.17411 13.4334 2.01702 12.5977L1.28516 13.611ZM4.76815 15.3804C5.21609 15.5404 5.69259 15.3541 5.93262 14.9742L4.87591 14.3065C4.93376 14.215 5.06028 14.1573 5.18873 14.2032L4.76815 15.3804ZM5.90873 15.0093L6.87995 13.6815L5.87102 12.9435L4.8998 14.2714L5.90873 15.0093ZM13.1255 12.5625C12.7836 12.0393 12.7837 12.0392 12.7839 12.0391C12.7839 12.0391 12.7841 12.039 12.7841 12.039C12.7843 12.0388 12.7845 12.0388 12.7846 12.0387C12.7848 12.0385 12.7849 12.0384 12.785 12.0384C12.785 12.0384 12.7846 12.0386 12.7839 12.0391C12.7824 12.0401 12.7792 12.0421 12.7745 12.045C12.7651 12.0509 12.7493 12.0606 12.7275 12.0736C12.6839 12.0995 12.6161 12.1384 12.5262 12.1861C12.3462 12.2815 12.0788 12.4113 11.7399 12.5417C11.0601 12.8033 10.1062 13.0625 9.0005 13.0625V14.3125C10.2984 14.3125 11.407 14.0092 12.1889 13.7083C12.5808 13.5575 12.8939 13.406 13.1117 13.2905C13.2208 13.2327 13.3062 13.1837 13.3661 13.1481C13.3961 13.1303 13.4197 13.1158 13.4366 13.1053C13.4451 13.1 13.4519 13.0956 13.4571 13.0923C13.4597 13.0907 13.4618 13.0893 13.4635 13.0882C13.4644 13.0876 13.4651 13.0872 13.4658 13.0867C13.4661 13.0865 13.4664 13.0863 13.4667 13.0862C13.4668 13.0861 13.467 13.0859 13.4671 13.0859C13.4673 13.0858 13.4674 13.0857 13.1255 12.5625ZM9.0005 13.0625C7.89475 13.0625 6.94085 12.8033 6.26109 12.5417C5.92221 12.4113 5.65478 12.2815 5.47476 12.1861C5.38486 12.1384 5.31708 12.0995 5.27345 12.0736C5.25164 12.0606 5.2359 12.0509 5.22647 12.045C5.22175 12.0421 5.21862 12.0401 5.2171 12.0391C5.21634 12.0386 5.21598 12.0384 5.21604 12.0384C5.21606 12.0384 5.21619 12.0385 5.21642 12.0387C5.21654 12.0388 5.21668 12.0388 5.21684 12.039C5.21693 12.039 5.21707 12.0391 5.21711 12.0391C5.21726 12.0392 5.21742 12.0393 4.87549 12.5625C4.53356 13.0857 4.53373 13.0858 4.53391 13.0859C4.53397 13.0859 4.53416 13.0861 4.53429 13.0862C4.53456 13.0863 4.53486 13.0865 4.53519 13.0867C4.53584 13.0872 4.53659 13.0876 4.53745 13.0882C4.53918 13.0893 4.54133 13.0907 4.5439 13.0923C4.54904 13.0956 4.55587 13.1 4.56435 13.1053C4.5813 13.1158 4.60489 13.1303 4.63484 13.1481C4.69473 13.1837 4.78021 13.2327 4.88924 13.2905C5.10708 13.406 5.42021 13.5575 5.81212 13.7083C6.59394 14.0092 7.70254 14.3125 9.0005 14.3125V13.0625ZM12.313 9.1875C12.313 9.75177 11.9294 10.0625 11.6255 10.0625V11.3125C12.7713 11.3125 13.563 10.2801 13.563 9.1875H12.313ZM11.6255 10.0625C11.3216 10.0625 10.938 9.75177 10.938 9.1875H9.688C9.688 10.2801 10.4797 11.3125 11.6255 11.3125V10.0625ZM10.938 9.1875C10.938 8.62323 11.3216 8.3125 11.6255 8.3125V7.0625C10.4797 7.0625 9.688 8.09487 9.688 9.1875H10.938ZM11.6255 8.3125C11.9294 8.3125 12.313 8.62323 12.313 9.1875H13.563C13.563 8.09487 12.7713 7.0625 11.6255 7.0625V8.3125ZM7.063 9.1875C7.063 9.75176 6.67941 10.0625 6.37549 10.0625V11.3125C7.52131 11.3125 8.313 10.2801 8.313 9.1875H7.063ZM6.37549 10.0625C6.07157 10.0625 5.68799 9.75177 5.68799 9.1875H4.43799C4.43799 10.2801 5.22967 11.3125 6.37549 11.3125V10.0625ZM5.68799 9.1875C5.68799 8.62323 6.07157 8.3125 6.37549 8.3125V7.0625C5.22967 7.0625 4.43799 8.09487 4.43799 9.1875H5.68799ZM6.37549 8.3125C6.67941 8.3125 7.063 8.62324 7.063 9.1875H8.313C8.313 8.09486 7.52131 7.0625 6.37549 7.0625V8.3125Z" fill="#9CA3AF"/>
</g>
</svg>
