<svg width="16" height="16" viewBox="0 0 16 16" fill="none" xmlns="http://www.w3.org/2000/svg">
<g id="Frame" clip-path="url(#clip0_9136_1051)">
<path id="Vector" fill-rule="evenodd" clip-rule="evenodd" d="M8.03775 2.16667H7.96248C6.73735 2.16667 5.76687 2.16665 5.0074 2.26877C4.22579 2.37385 3.59315 2.59526 3.09424 3.09417C2.59533 3.59308 2.37392 4.22571 2.26884 5.00733C2.16673 5.7668 2.16674 6.73721 2.16675 7.96241V8.03761C2.16674 9.26274 2.16673 10.2332 2.26884 10.9927C2.37392 11.7743 2.59533 12.4069 3.09424 12.9059C3.59315 13.4047 4.22579 13.6261 5.0074 13.7313C5.76687 13.8333 6.73735 13.8333 7.96248 13.8333H8.03775C9.26288 13.8333 10.2333 13.8333 10.9927 13.7313C11.7743 13.6261 12.407 13.4047 12.9059 12.9059C13.4048 12.4069 13.6262 11.7743 13.7313 10.9927C13.8334 10.2332 13.8334 9.26281 13.8334 8.03761V7.96234C13.8334 6.73721 13.8334 5.7668 13.7313 5.00733C13.6262 4.22571 13.4048 3.59308 12.9059 3.09417C12.407 2.59526 11.7743 2.37385 10.9927 2.26877C10.2333 2.16665 9.26288 2.16667 8.03775 2.16667ZM9.13815 6.47141C9.39848 6.21106 9.39848 5.78895 9.13815 5.5286C8.87781 5.26825 8.45568 5.26825 8.19535 5.5286L5.52867 8.19527C5.26833 8.45561 5.26833 8.87774 5.52867 9.13807C5.78903 9.39841 6.21113 9.39841 6.47149 9.13807L9.13815 6.47141ZM10.4715 8.19527C10.7318 8.45561 10.7318 8.87774 10.4715 9.13807L9.13815 10.4714C8.87781 10.7317 8.45568 10.7317 8.19535 10.4714C7.93501 10.2111 7.93501 9.78894 8.19535 9.52861L9.52868 8.19527C9.78901 7.93494 10.2111 7.93494 10.4715 8.19527Z" fill="#3981F8"/>
<path id="Vector_2" fill-rule="evenodd" clip-rule="evenodd" d="M6.33342 0.666672C6.70161 0.666672 7.00008 0.965152 7.00008 1.33334V2.66667C7.00008 3.03486 6.70161 3.33334 6.33342 3.33334C5.96523 3.33334 5.66675 3.03486 5.66675 2.66667V1.33334C5.66675 0.965152 5.96523 0.666672 6.33342 0.666672ZM9.66675 0.666672C10.0349 0.666672 10.3334 0.965152 10.3334 1.33334V2.66667C10.3334 3.03486 10.0349 3.33334 9.66675 3.33334C9.29855 3.33334 9.00008 3.03486 9.00008 2.66667V1.33334C9.00008 0.965152 9.29855 0.666672 9.66675 0.666672ZM0.666748 6.33334C0.666748 5.96515 0.965228 5.66667 1.33341 5.66667H2.66675C3.03493 5.66667 3.33341 5.96515 3.33341 6.33334C3.33341 6.70154 3.03493 7.00001 2.66675 7.00001H1.33341C0.965228 7.00001 0.666748 6.70154 0.666748 6.33334ZM12.6667 6.33334C12.6667 5.96515 12.9652 5.66667 13.3334 5.66667H14.6667C15.0349 5.66667 15.3334 5.96515 15.3334 6.33334C15.3334 6.70154 15.0349 7.00001 14.6667 7.00001H13.3334C12.9652 7.00001 12.6667 6.70154 12.6667 6.33334ZM0.666748 9.66667C0.666748 9.29847 0.965228 9.00001 1.33341 9.00001H2.66675C3.03493 9.00001 3.33341 9.29847 3.33341 9.66667C3.33341 10.0349 3.03493 10.3333 2.66675 10.3333H1.33341C0.965228 10.3333 0.666748 10.0349 0.666748 9.66667ZM12.6667 9.66667C12.6667 9.29847 12.9652 9.00001 13.3334 9.00001H14.6667C15.0349 9.00001 15.3334 9.29847 15.3334 9.66667C15.3334 10.0349 15.0349 10.3333 14.6667 10.3333H13.3334C12.9652 10.3333 12.6667 10.0349 12.6667 9.66667ZM6.33342 12.6667C6.70161 12.6667 7.00008 12.9651 7.00008 13.3333V14.6667C7.00008 15.0349 6.70161 15.3333 6.33342 15.3333C5.96523 15.3333 5.66675 15.0349 5.66675 14.6667V13.3333C5.66675 12.9651 5.96523 12.6667 6.33342 12.6667ZM9.66675 12.6667C10.0349 12.6667 10.3334 12.9651 10.3334 13.3333V14.6667C10.3334 15.0349 10.0349 15.3333 9.66675 15.3333C9.29855 15.3333 9.00008 15.0349 9.00008 14.6667V13.3333C9.00008 12.9651 9.29855 12.6667 9.66675 12.6667Z" fill="#3981F8"/>
</g>
<defs>
<clipPath id="clip0_9136_1051">
<rect width="16" height="16" fill="white"/>
</clipPath>
</defs>
</svg>
