<svg width="16" height="16" viewBox="0 0 16 16" fill="none" xmlns="http://www.w3.org/2000/svg">
<g clip-path="url(#clip0_9123_11325)">
<path d="M6.3335 1.33333V2.66666M9.66683 1.33333V2.66666M6.3335 13.3333V14.6667M9.66683 13.3333V14.6667M8.66683 6L6.00016 8.66666M10.0002 8.66666L8.66683 9.99999M14.6668 9.66666H13.3335M2.66683 6.33333H1.3335M2.66683 9.66666H1.3335M14.6668 6.33333H13.3335M2.66683 7.99999C2.66683 5.48583 2.66683 4.22876 3.44788 3.44771C4.22893 2.66666 5.486 2.66666 8.00016 2.66666C10.5143 2.66666 11.7714 2.66666 12.5524 3.44771C13.3335 4.22876 13.3335 5.48583 13.3335 7.99999C13.3335 10.5141 13.3335 11.7713 12.5524 12.5523C11.7714 13.3333 10.5143 13.3333 8.00016 13.3333C5.486 13.3333 4.22893 13.3333 3.44788 12.5523C2.66683 11.7713 2.66683 10.5141 2.66683 7.99999Z" stroke="#374151" stroke-width="1.25" stroke-linecap="round" stroke-linejoin="round"/>
</g>
<defs>
<clipPath id="clip0_9123_11325">
<rect width="16" height="16" fill="white"/>
</clipPath>
</defs>
</svg>
