<svg width="20" height="20" viewBox="0 0 20 20" fill="none" xmlns="http://www.w3.org/2000/svg">
<g id="Frame">
<path id="Vector" d="M1.66675 10C1.66675 6.87522 1.66675 5.31283 2.46251 4.21756C2.71951 3.86383 3.03058 3.55276 3.38431 3.29576C4.47958 2.5 6.04197 2.5 9.16675 2.5H10.8334C13.9582 2.5 15.5206 2.5 16.6158 3.29576C16.9696 3.55276 17.2807 3.86383 17.5377 4.21756C18.3334 5.31283 18.3334 6.87522 18.3334 10C18.3334 13.1247 18.3334 14.6872 17.5377 15.7824C17.2807 16.1362 16.9696 16.4472 16.6158 16.7042C15.5206 17.5 13.9582 17.5 10.8334 17.5H9.16675C6.04197 17.5 4.47958 17.5 3.38431 16.7042C3.03058 16.4472 2.71951 16.1362 2.46251 15.7824C1.66675 14.6872 1.66675 13.1247 1.66675 10Z" stroke="#3981F8" stroke-width="1.5" stroke-linejoin="round"/>
<path id="Vector_2" d="M7.91675 2.91667V17.0833" stroke="#3981F8" stroke-width="1.5" stroke-linejoin="round"/>
<path id="Vector_3" d="M4.16675 5.83334C4.16675 5.83334 4.92859 5.83334 5.41675 5.83334" stroke="#3981F8" stroke-width="1.5" stroke-linecap="round" stroke-linejoin="round"/>
<path id="Vector_4" d="M4.16675 9.16667H5.41675" stroke="#3981F8" stroke-width="1.5" stroke-linecap="round" stroke-linejoin="round"/>
<path id="Vector_5" d="M14.1667 8.33333L13.1446 9.21433C12.7148 9.58466 12.5 9.76991 12.5 9.99999C12.5 10.2301 12.7148 10.4153 13.1446 10.7857L14.1667 11.6667" stroke="#3981F8" stroke-width="1.5" stroke-linecap="round" stroke-linejoin="round"/>
</g>
</svg>
