<svg width="16" height="16" viewBox="0 0 16 16" fill="none" xmlns="http://www.w3.org/2000/svg">
<path d="M11.3677 8.75468L10.7755 8.55465L10.7755 8.55473L11.3677 8.75468ZM12.0004 8.21928L12.2595 8.78804L12.2595 8.78804L12.0004 8.21928ZM12.5975 8.00281L12.5472 7.37984L12.5471 7.37985L12.5975 8.00281ZM13.0783 8.10621L12.7725 8.65125L12.7726 8.6513L13.0783 8.10621ZM13.5383 8.58201L14.0208 8.18477L14.0207 8.18471L13.5383 8.58201ZM14.5967 10.1491L13.9938 10.3138L13.9938 10.3138L14.5967 10.1491ZM14.5967 11.1843L13.9938 11.0195L13.9938 11.0196L14.5967 11.1843ZM13.5062 12.7903L13.0237 12.393L13.0237 12.393L13.5062 12.7903ZM13.0783 13.2271L13.3842 13.7722L13.3842 13.7722L13.0783 13.2271ZM12.5975 13.3305L12.5471 13.9535L12.5472 13.9535L12.5975 13.3305ZM12.0004 13.1141L12.2595 12.5453L12.2595 12.5453L12.0004 13.1141ZM11.3677 12.5787L10.7755 12.7786L10.7755 12.7787L11.3677 12.5787ZM6.76716 13.5504C6.51886 13.3106 6.12319 13.3176 5.88342 13.5659C5.64364 13.8142 5.65055 14.2098 5.89885 14.4496L6.76716 13.5504ZM10.1005 14.4496C10.3488 14.2098 10.3557 13.8142 10.1159 13.5659C9.87615 13.3176 9.48049 13.3106 9.23218 13.5504L10.1005 14.4496ZM4.42361 8.44814L4.01348 8.91975L4.01348 8.91975L4.42361 8.44814ZM3.99895 8.21934L4.25807 7.65059L4.25795 7.65053L3.99895 8.21934ZM3.40178 8.00294L3.4522 7.37998L3.4522 7.37998L3.40178 8.00294ZM2.46109 8.58208L1.97862 8.18479L1.97859 8.18481L2.46109 8.58208ZM1.40265 10.1491L2.00555 10.3138L2.00555 10.3138L1.40265 10.1491ZM1.40265 11.1843L2.00556 11.0196L2.00555 11.0196L1.40265 11.1843ZM2.49315 12.7901L2.97565 12.3929L2.97565 12.3929L2.49315 12.7901ZM3.40178 13.3304L3.35136 12.7074L3.35135 12.7074L3.40178 13.3304ZM3.99895 13.1139L3.73997 12.5451L3.73984 12.5452L3.99895 13.1139ZM4.42361 12.8852L4.01348 12.4136L4.01348 12.4136L4.42361 12.8852ZM0.708008 10.6667C0.708008 11.0119 0.98783 11.2917 1.33301 11.2917C1.67819 11.2917 1.95801 11.0119 1.95801 10.6667H0.708008ZM14.6663 8.00001H14.0413V8.00002L14.6663 8.00001ZM14.0414 10.6667C14.0414 11.0119 14.3212 11.2917 14.6664 11.2917C15.0116 11.2917 15.2914 11.0118 15.2914 10.6667L14.0414 10.6667ZM11.958 9.20301C11.958 9.08033 11.9583 9.01615 11.9612 8.96929C11.9636 8.92984 11.9665 8.935 11.9598 8.95462L10.7755 8.55473C10.7002 8.77778 10.708 9.01642 10.708 9.20301H11.958ZM11.9598 8.9547C11.9604 8.9529 11.9609 8.95175 11.9611 8.95115C11.9614 8.95054 11.9616 8.95028 11.9616 8.95026C11.9616 8.95024 11.9616 8.95025 11.9616 8.95027C11.9615 8.95029 11.9615 8.9503 11.9615 8.9503C11.9615 8.9503 11.9616 8.95027 11.9616 8.95019C11.9617 8.95011 11.9618 8.94998 11.9619 8.94978C11.9628 8.94869 11.9692 8.94082 11.9888 8.92663C12.0095 8.91164 12.04 8.89306 12.0871 8.86902C12.1361 8.84407 12.1883 8.8205 12.2595 8.78804L11.7413 7.65051C11.531 7.7463 10.9773 7.95725 10.7755 8.55465L11.9598 8.9547ZM12.2595 8.78804C12.4162 8.71665 12.5076 8.67533 12.5782 8.64844C12.6424 8.62396 12.6553 8.62518 12.648 8.62577L12.5471 7.37985C12.2632 7.40283 11.9954 7.53478 11.7413 7.65051L12.2595 8.78804ZM12.6479 8.62578C12.6955 8.62194 12.7396 8.63282 12.7725 8.65125L13.3842 7.56116C13.1293 7.41813 12.8363 7.35648 12.5472 7.37984L12.6479 8.62578ZM12.7726 8.6513C12.778 8.65433 12.804 8.67141 12.8579 8.73324C12.8839 8.76294 12.911 8.79666 12.9445 8.83928C12.9749 8.878 13.0159 8.9308 13.0558 8.97931L14.0207 8.18471C13.9934 8.15149 13.872 7.99411 13.7996 7.91118C13.7053 7.80321 13.5695 7.66509 13.3841 7.56112L12.7726 8.6513ZM13.0558 8.97925C13.3761 9.36841 13.5942 9.63399 13.7492 9.85395C13.8998 10.0677 13.9629 10.2009 13.9938 10.3138L15.1996 9.98437C15.1153 9.67602 14.9638 9.40762 14.7711 9.13413C14.5828 8.86683 14.3293 8.55947 14.0208 8.18477L13.0558 8.97925ZM13.9938 10.3138C14.0572 10.5458 14.0572 10.7875 13.9938 11.0195L15.1996 11.349C15.3219 10.9013 15.3219 10.4321 15.1996 9.98434L13.9938 10.3138ZM13.9938 11.0196C13.9409 11.2132 13.8218 11.4202 13.6391 11.6594C13.439 11.9212 13.2597 12.1064 13.0237 12.393L13.9887 13.1875C14.1452 12.9975 14.4272 12.6868 14.6323 12.4184C14.8547 12.1273 15.0847 11.7697 15.1996 11.349L13.9938 11.0196ZM13.0237 12.393C12.918 12.5214 12.8583 12.5934 12.8103 12.6441C12.7678 12.6891 12.7604 12.6889 12.7724 12.6821L13.3842 13.7722C13.6378 13.6299 13.8211 13.3911 13.9887 13.1875L13.0237 12.393ZM12.7725 12.6821C12.7396 12.7005 12.6955 12.7114 12.6479 12.7076L12.5472 13.9535C12.8363 13.9769 13.1293 13.9152 13.3842 13.7722L12.7725 12.6821ZM12.648 12.7076C12.6553 12.7082 12.6424 12.7094 12.5782 12.6849C12.5076 12.658 12.4162 12.6167 12.2595 12.5453L11.7413 13.6828C11.9954 13.7986 12.2632 13.9305 12.5471 13.9535L12.648 12.7076ZM12.2595 12.5453C12.1883 12.5129 12.1361 12.4893 12.0871 12.4643C12.04 12.4403 12.0095 12.4217 11.9888 12.4067C11.9692 12.3925 11.9628 12.3847 11.9619 12.3836C11.9618 12.3834 11.9617 12.3832 11.9616 12.3832C11.9616 12.3831 11.9615 12.383 11.9615 12.383C11.9615 12.383 11.9615 12.3831 11.9616 12.3831C11.9616 12.3831 11.9616 12.3831 11.9616 12.3831C11.9616 12.3831 11.9614 12.3828 11.9611 12.3822C11.9609 12.3816 11.9604 12.3805 11.9598 12.3787L10.7755 12.7787C10.9773 13.3761 11.531 13.5871 11.7413 13.6828L12.2595 12.5453ZM11.9598 12.3787C11.9665 12.3984 11.9636 12.4035 11.9612 12.3641C11.9583 12.3172 11.958 12.253 11.958 12.1303H10.708C10.708 12.3169 10.7002 12.5556 10.7755 12.7786L11.9598 12.3787ZM11.958 12.1303V9.20301H10.708V12.1303H11.958ZM5.89885 14.4496C7.06151 15.5723 8.93784 15.5723 10.1005 14.4496L9.23218 13.5504C8.55391 14.2054 7.44544 14.2054 6.76716 13.5504L5.89885 14.4496ZM5.29134 9.20301C5.29134 8.93515 5.30618 8.38738 4.83375 7.97653L4.01348 8.91975C4.02229 8.92741 4.02263 8.92967 4.02111 8.92707C4.02 8.92518 4.02255 8.92843 4.02618 8.94316C4.03023 8.95955 4.03479 8.98664 4.03771 9.03172C4.04071 9.07805 4.04134 9.13089 4.04134 9.20301H5.29134ZM4.83375 7.97654C4.66337 7.82836 4.44741 7.73685 4.25807 7.65059L3.73983 8.7881C3.85883 8.84232 3.92609 8.87318 3.97522 8.89879C4.01936 8.9218 4.02192 8.92709 4.01348 8.91975L4.83375 7.97654ZM4.25795 7.65053C4.00393 7.53487 3.73606 7.40295 3.4522 7.37998L3.35136 8.62591C3.344 8.62531 3.35695 8.6241 3.42122 8.64859C3.49181 8.67548 3.58324 8.7168 3.73995 8.78815L4.25795 7.65053ZM3.4522 7.37998C2.63137 7.31355 2.18887 7.92945 1.97862 8.18479L2.94357 8.97937C3.08724 8.8049 3.16074 8.71836 3.2352 8.66265C3.26419 8.64097 3.28217 8.63336 3.2924 8.63011C3.3011 8.62735 3.31788 8.6232 3.35136 8.62591L3.4522 7.37998ZM1.97859 8.18481C1.67009 8.55951 1.41651 8.86686 1.22822 9.13414C1.03558 9.40762 0.883982 9.67601 0.799741 9.98437L2.00555 10.3138C2.03638 10.2009 2.09955 10.0678 2.25013 9.85401C2.40507 9.63406 2.62318 9.36851 2.9436 8.97934L1.97859 8.18481ZM0.799744 9.98436C0.677429 10.4321 0.677429 10.9013 0.799744 11.349L2.00555 11.0196C1.94216 10.7875 1.94216 10.5458 2.00555 10.3138L0.799744 9.98436ZM0.799741 11.349C0.914678 11.7697 1.14467 12.1273 1.36707 12.4183C1.57212 12.6866 1.8543 12.9975 2.01065 13.1874L2.97565 12.3929C2.73953 12.1061 2.56038 11.9212 2.36025 11.6593C2.17748 11.4202 2.05844 11.2132 2.00556 11.0196L0.799741 11.349ZM2.01065 13.1874C2.23197 13.4562 2.66335 14.0172 3.45221 13.9534L3.35135 12.7074C3.31874 12.7101 3.30214 12.7063 3.29384 12.7038C3.28446 12.701 3.26863 12.6947 3.24317 12.6766C3.17831 12.6304 3.10723 12.5527 2.97565 12.3929L2.01065 13.1874ZM3.4522 13.9534C3.73611 13.9304 4.00396 13.7985 4.25805 13.6827L3.73984 12.5452C3.58316 12.6166 3.49174 12.6579 3.42117 12.6848C3.35693 12.7093 3.34399 12.708 3.35136 12.7074L3.4522 13.9534ZM4.25793 13.6828C4.44736 13.5965 4.66332 13.505 4.83375 13.3568L4.01348 12.4136C4.02193 12.4063 4.01937 12.4115 3.97528 12.4345C3.92618 12.4601 3.85894 12.491 3.73997 12.5451L4.25793 13.6828ZM4.83375 13.3568C5.30619 12.946 5.29134 12.3982 5.29134 12.1303H4.04134C4.04134 12.2024 4.04071 12.2553 4.03771 12.3016C4.03479 12.3467 4.03023 12.3738 4.02618 12.3902C4.02254 12.4049 4.02 12.4082 4.0211 12.4063C4.02263 12.4037 4.02229 12.4059 4.01348 12.4136L4.83375 13.3568ZM5.29134 12.1303V9.20301H4.04134V12.1303H5.29134ZM1.95801 10.6667V8.00001H0.708008V10.6667H1.95801ZM1.95801 8.00001C1.95801 4.66329 4.66295 1.95834 7.99967 1.95834V0.708344C3.9726 0.708344 0.708008 3.97293 0.708008 8.00001H1.95801ZM7.99967 1.95834C11.3364 1.95834 14.0413 4.66329 14.0413 8.00001H15.2913C15.2913 3.97293 12.0267 0.708344 7.99967 0.708344V1.95834ZM14.0413 8.00002L14.0414 10.6667L15.2914 10.6667L15.2913 7.99999L14.0413 8.00002Z" fill="#3981F8"/>
</svg>
