<svg width="16" height="16" viewBox="0 0 16 16" fill="none" xmlns="http://www.w3.org/2000/svg">
<g clip-path="url(#clip0_9123_11475)">
<path d="M11.3679 8.75468L10.7758 8.55465L10.7758 8.55473L11.3679 8.75468ZM12.0007 8.21928L12.2598 8.78804L12.2598 8.78804L12.0007 8.21928ZM12.5978 8.00281L12.5475 7.37984L12.5474 7.37985L12.5978 8.00281ZM13.0786 8.10621L12.7727 8.65125L12.7728 8.6513L13.0786 8.10621ZM13.5385 8.58201L14.021 8.18477L14.021 8.18471L13.5385 8.58201ZM14.5969 10.1491L13.994 10.3138L13.994 10.3138L14.5969 10.1491ZM14.5969 11.1843L13.994 11.0195L13.994 11.0196L14.5969 11.1843ZM13.5065 12.7903L13.024 12.393L13.024 12.393L13.5065 12.7903ZM13.0786 13.2271L13.3844 13.7722L13.3845 13.7722L13.0786 13.2271ZM12.5978 13.3305L12.5474 13.9535L12.5475 13.9535L12.5978 13.3305ZM12.0007 13.1141L12.2598 12.5453L12.2598 12.5453L12.0007 13.1141ZM11.3679 12.5787L10.7758 12.7786L10.7758 12.7787L11.3679 12.5787ZM6.76741 13.5504C6.51911 13.3106 6.12344 13.3176 5.88366 13.5659C5.64388 13.8142 5.65079 14.2098 5.8991 14.4496L6.76741 13.5504ZM10.1007 14.4496C10.349 14.2098 10.356 13.8142 10.1162 13.5659C9.8764 13.3176 9.48073 13.3106 9.23243 13.5504L10.1007 14.4496ZM4.42386 8.44814L4.01372 8.91975L4.01373 8.91975L4.42386 8.44814ZM3.99919 8.21934L4.25831 7.65059L4.25819 7.65053L3.99919 8.21934ZM3.40202 8.00294L3.45244 7.37998L3.45244 7.37998L3.40202 8.00294ZM2.46134 8.58208L1.97886 8.18479L1.97884 8.18481L2.46134 8.58208ZM1.40289 10.1491L2.0058 10.3138L2.0058 10.3138L1.40289 10.1491ZM1.40289 11.1843L2.0058 11.0196L2.0058 11.0196L1.40289 11.1843ZM2.49339 12.7901L2.97589 12.3929L2.97589 12.3929L2.49339 12.7901ZM3.40202 13.3304L3.35161 12.7074L3.35159 12.7074L3.40202 13.3304ZM3.99919 13.1139L3.74021 12.5451L3.74009 12.5452L3.99919 13.1139ZM4.42386 12.8852L4.01373 12.4136L4.01372 12.4136L4.42386 12.8852ZM0.708252 10.6667C0.708252 11.0119 0.988074 11.2917 1.33325 11.2917C1.67843 11.2917 1.95825 11.0119 1.95825 10.6667H0.708252ZM14.6666 8.00001H14.0416V8.00002L14.6666 8.00001ZM14.0417 10.6667C14.0417 11.0119 14.3215 11.2917 14.6667 11.2917C15.0118 11.2917 15.2917 11.0118 15.2917 10.6667L14.0417 10.6667ZM11.9583 9.20301C11.9583 9.08033 11.9585 9.01615 11.9614 8.96929C11.9638 8.92984 11.9667 8.935 11.9601 8.95462L10.7758 8.55473C10.7004 8.77778 10.7083 9.01642 10.7083 9.20301H11.9583ZM11.96 8.9547C11.9607 8.9529 11.9611 8.95175 11.9614 8.95115C11.9617 8.95054 11.9618 8.95028 11.9618 8.95026C11.9618 8.95024 11.9618 8.95025 11.9618 8.95027C11.9618 8.95029 11.9618 8.9503 11.9618 8.9503C11.9618 8.9503 11.9618 8.95027 11.9619 8.95019C11.9619 8.95011 11.962 8.94998 11.9622 8.94978C11.963 8.94869 11.9694 8.94082 11.989 8.92663C12.0097 8.91164 12.0402 8.89306 12.0874 8.86902C12.1363 8.84407 12.1885 8.8205 12.2598 8.78804L11.7416 7.65051C11.5313 7.7463 10.9776 7.95725 10.7758 8.55465L11.96 8.9547ZM12.2598 8.78804C12.4165 8.71665 12.5079 8.67533 12.5784 8.64844C12.6427 8.62396 12.6556 8.62518 12.6482 8.62577L12.5474 7.37985C12.2634 7.40283 11.9956 7.53478 11.7415 7.65051L12.2598 8.78804ZM12.6481 8.62578C12.6957 8.62194 12.7399 8.63282 12.7727 8.65125L13.3844 7.56116C13.1296 7.41813 12.8365 7.35648 12.5475 7.37984L12.6481 8.62578ZM12.7728 8.6513C12.7782 8.65433 12.8042 8.67141 12.8582 8.73324C12.8841 8.76294 12.9112 8.79666 12.9447 8.83928C12.9752 8.878 13.0161 8.9308 13.056 8.97931L14.021 8.18471C13.9936 8.15149 13.8722 7.99411 13.7998 7.91118C13.7056 7.80321 13.5697 7.66509 13.3844 7.56112L12.7728 8.6513ZM13.056 8.97925C13.3764 9.36841 13.5945 9.63399 13.7494 9.85395C13.9 10.0677 13.9632 10.2009 13.994 10.3138L15.1998 9.98437C15.1156 9.67602 14.964 9.40762 14.7714 9.13413C14.5831 8.86683 14.3295 8.55947 14.021 8.18477L13.056 8.97925ZM13.994 10.3138C14.0574 10.5458 14.0574 10.7875 13.994 11.0195L15.1998 11.349C15.3222 10.9013 15.3222 10.4321 15.1998 9.98434L13.994 10.3138ZM13.994 11.0196C13.9411 11.2132 13.8221 11.4202 13.6393 11.6594C13.4393 11.9212 13.26 12.1064 13.024 12.393L13.9889 13.1875C14.1454 12.9975 14.4274 12.6868 14.6326 12.4184C14.8549 12.1273 15.0849 11.7697 15.1998 11.349L13.994 11.0196ZM13.024 12.393C12.9183 12.5214 12.8585 12.5934 12.8106 12.6441C12.7681 12.6891 12.7606 12.6889 12.7727 12.6821L13.3845 13.7722C13.638 13.6299 13.8214 13.3911 13.9889 13.1875L13.024 12.393ZM12.7727 12.6821C12.7399 12.7005 12.6957 12.7114 12.6481 12.7076L12.5475 13.9535C12.8365 13.9769 13.1296 13.9152 13.3844 13.7722L12.7727 12.6821ZM12.6482 12.7076C12.6556 12.7082 12.6427 12.7094 12.5784 12.6849C12.5079 12.658 12.4165 12.6167 12.2598 12.5453L11.7415 13.6828C11.9956 13.7986 12.2634 13.9305 12.5474 13.9535L12.6482 12.7076ZM12.2598 12.5453C12.1885 12.5129 12.1363 12.4893 12.0874 12.4643C12.0402 12.4403 12.0097 12.4217 11.989 12.4067C11.9694 12.3925 11.963 12.3847 11.9622 12.3836C11.962 12.3834 11.9619 12.3832 11.9619 12.3832C11.9618 12.3831 11.9618 12.383 11.9618 12.383C11.9618 12.383 11.9618 12.3831 11.9618 12.3831C11.9618 12.3831 11.9618 12.3831 11.9618 12.3831C11.9618 12.3831 11.9617 12.3828 11.9614 12.3822C11.9611 12.3816 11.9607 12.3805 11.96 12.3787L10.7758 12.7787C10.9776 13.3761 11.5313 13.5871 11.7416 13.6828L12.2598 12.5453ZM11.9601 12.3787C11.9667 12.3984 11.9638 12.4035 11.9614 12.3641C11.9585 12.3172 11.9583 12.253 11.9583 12.1303H10.7083C10.7083 12.3169 10.7004 12.5556 10.7758 12.7786L11.9601 12.3787ZM11.9583 12.1303V9.20301H10.7083V12.1303H11.9583ZM5.8991 14.4496C7.06175 15.5723 8.93808 15.5723 10.1007 14.4496L9.23243 13.5504C8.55415 14.2054 7.44568 14.2054 6.76741 13.5504L5.8991 14.4496ZM5.29159 9.20301C5.29159 8.93515 5.30643 8.38738 4.83399 7.97653L4.01373 8.91975C4.02253 8.92741 4.02287 8.92967 4.02135 8.92707C4.02024 8.92518 4.02279 8.92843 4.02643 8.94316C4.03048 8.95955 4.03503 8.98664 4.03795 9.03172C4.04095 9.07805 4.04159 9.13089 4.04159 9.20301H5.29159ZM4.834 7.97654C4.66362 7.82836 4.44765 7.73685 4.25831 7.65059L3.74007 8.7881C3.85908 8.84232 3.92633 8.87318 3.97547 8.89879C4.0196 8.9218 4.02217 8.92709 4.01372 8.91975L4.834 7.97654ZM4.25819 7.65053C4.00417 7.53487 3.7363 7.40295 3.45244 7.37998L3.35161 8.62591C3.34424 8.62531 3.35719 8.6241 3.42146 8.64859C3.49205 8.67548 3.58349 8.7168 3.74019 8.78815L4.25819 7.65053ZM3.45244 7.37998C2.63162 7.31355 2.18911 7.92945 1.97886 8.18479L2.94382 8.97937C3.08748 8.8049 3.16098 8.71836 3.23545 8.66265C3.26443 8.64097 3.28241 8.63336 3.29265 8.63011C3.30134 8.62735 3.31813 8.6232 3.35161 8.62591L3.45244 7.37998ZM1.97884 8.18481C1.67033 8.55951 1.41675 8.86686 1.22847 9.13414C1.03582 9.40762 0.884226 9.67601 0.799985 9.98437L2.0058 10.3138C2.03662 10.2009 2.09979 10.0678 2.25037 9.85401C2.40531 9.63406 2.62342 9.36851 2.94384 8.97934L1.97884 8.18481ZM0.799988 9.98436C0.677673 10.4321 0.677673 10.9013 0.799988 11.349L2.0058 11.0196C1.9424 10.7875 1.9424 10.5458 2.0058 10.3138L0.799988 9.98436ZM0.799985 11.349C0.914922 11.7697 1.14491 12.1273 1.36732 12.4183C1.57236 12.6866 1.85455 12.9975 2.01089 13.1874L2.97589 12.3929C2.73978 12.1061 2.56063 11.9212 2.36049 11.6593C2.17772 11.4202 2.05869 11.2132 2.0058 11.0196L0.799985 11.349ZM2.01089 13.1874C2.23221 13.4562 2.6636 14.0172 3.45246 13.9534L3.35159 12.7074C3.31898 12.7101 3.30238 12.7063 3.29408 12.7038C3.2847 12.701 3.26887 12.6947 3.24342 12.6766C3.17855 12.6304 3.10747 12.5527 2.97589 12.3929L2.01089 13.1874ZM3.45244 13.9534C3.73635 13.9304 4.00421 13.7985 4.2583 13.6827L3.74009 12.5452C3.58341 12.6166 3.49198 12.6579 3.42142 12.6848C3.35718 12.7093 3.34424 12.708 3.35161 12.7074L3.45244 13.9534ZM4.25817 13.6828C4.44761 13.5965 4.66357 13.505 4.834 13.3568L4.01372 12.4136C4.02217 12.4063 4.01962 12.4115 3.97552 12.4345C3.92643 12.4601 3.85919 12.491 3.74021 12.5451L4.25817 13.6828ZM4.83399 13.3568C5.30643 12.946 5.29159 12.3982 5.29159 12.1303H4.04159C4.04159 12.2024 4.04095 12.2553 4.03795 12.3016C4.03503 12.3467 4.03047 12.3738 4.02642 12.3902C4.02279 12.4049 4.02024 12.4082 4.02135 12.4063C4.02287 12.4037 4.02253 12.4059 4.01373 12.4136L4.83399 13.3568ZM5.29159 12.1303V9.20301H4.04159V12.1303H5.29159ZM1.95825 10.6667V8.00001H0.708252V10.6667H1.95825ZM1.95825 8.00001C1.95825 4.66329 4.6632 1.95834 7.99992 1.95834V0.708344C3.97284 0.708344 0.708252 3.97293 0.708252 8.00001H1.95825ZM7.99992 1.95834C11.3366 1.95834 14.0416 4.66329 14.0416 8.00001H15.2916C15.2916 3.97293 12.027 0.708344 7.99992 0.708344V1.95834ZM14.0416 8.00002L14.0417 10.6667L15.2917 10.6667L15.2916 7.99999L14.0416 8.00002Z" fill="#374151"/>
</g>
<defs>
<clipPath id="clip0_9123_11475">
<rect width="16" height="16" fill="white"/>
</clipPath>
</defs>
</svg>
