<svg width="18" height="18" viewBox="0 0 18 18" fill="none" xmlns="http://www.w3.org/2000/svg">
<g id="Frame">
<path id="Vector" d="M5.25 12.75L8.39519 9.60487M8.39519 9.60487L5.25 5.25H7.33333L9.60486 8.39512M8.39519 9.60487L10.6666 12.75H12.75L9.60486 8.39512M12.75 5.25L9.60486 8.39512M1.875 9C1.875 5.64125 1.875 3.96187 2.91843 2.91843C3.96187 1.875 5.64124 1.875 8.99998 1.875C12.3588 1.875 14.0381 1.875 15.0816 2.91843C16.125 3.96187 16.125 5.64125 16.125 9C16.125 12.3587 16.125 14.0381 15.0816 15.0816C14.0381 16.125 12.3588 16.125 8.99998 16.125C5.64124 16.125 3.96187 16.125 2.91843 15.0816C1.875 14.0381 1.875 12.3587 1.875 9Z" stroke="#9CA3AF" stroke-width="1.25" stroke-linecap="round" stroke-linejoin="round"/>
</g>
</svg>
