<svg width="16" height="16" viewBox="0 0 16 16" fill="none" xmlns="http://www.w3.org/2000/svg">
<path d="M4.25 11.75L7.39519 8.60487M7.39519 8.60487L4.25 4.25H6.33333L8.60486 7.39512M7.39519 8.60487L9.66664 11.75H11.75L8.60486 7.39512M11.75 4.25L8.60486 7.39512M0.875 8C0.875 4.64125 0.875 2.96187 1.91843 1.91843C2.96187 0.875 4.64124 0.875 7.99998 0.875C11.3588 0.875 13.0381 0.875 14.0816 1.91843C15.125 2.96187 15.125 4.64125 15.125 8C15.125 11.3587 15.125 13.0381 14.0816 14.0816C13.0381 15.125 11.3588 15.125 7.99998 15.125C4.64124 15.125 2.96187 15.125 1.91843 14.0816C0.875 13.0381 0.875 11.3587 0.875 8Z" stroke="#9CA3AF" stroke-width="1.25" stroke-linecap="round" stroke-linejoin="round"/>
</svg>
