<svg width="18" height="18" viewBox="0 0 18 18" fill="none" xmlns="http://www.w3.org/2000/svg">
<g id="Frame">
<path id="Vector" d="M12.865 14.995L12.9899 15.6075L12.9899 15.6075L12.865 14.995ZM15.8125 4.34953L16.3059 3.96582L16.3059 3.96582L15.8125 4.34953ZM12.865 3.00496L12.7402 3.61737V3.61737L12.865 3.00496ZM5.13492 3.00496L5.01008 2.39256L5.01008 2.39256L5.13492 3.00496ZM2.18745 4.34953L1.69411 3.96581L1.6941 3.96582L2.18745 4.34953ZM2.18745 13.6504L1.6941 14.0342L1.6941 14.0342L2.18745 13.6504ZM5.13492 14.995L5.01009 15.6075L5.0101 15.6075L5.13492 14.995ZM11.9716 9.23468L12.5786 9.38338L12.5786 9.38335L11.9716 9.23468ZM10.0837 10.6681L10.3853 11.2155L10.3853 11.2155L10.0837 10.6681ZM7.6296 11.5961L7.47102 12.2007L7.47115 12.2007L7.6296 11.5961ZM7.15349 11.3579L7.54641 10.8718L7.5464 10.8718L7.15349 11.3579ZM7.15349 6.64214L7.54643 7.12817L7.54645 7.12815L7.15349 6.64214ZM7.6296 6.40391L7.78806 7.00848L7.78807 7.00848L7.6296 6.40391ZM10.0837 7.33195L10.3853 6.78456L10.3853 6.78455L10.0837 7.33195ZM11.9716 8.76533L12.5786 8.61665L12.5786 8.61662L11.9716 8.76533ZM9 16C10.398 16 11.7415 15.8619 12.9899 15.6075L12.7402 14.3826C11.5762 14.6199 10.3165 14.75 9 14.75V16ZM12.9899 15.6075C14.4606 15.3077 15.4556 15.1274 16.3059 14.0342L15.3192 13.2667C14.7946 13.9412 14.2829 14.0682 12.7402 14.3826L12.9899 15.6075ZM16.3059 14.0342C17.153 12.945 17.125 11.6752 17.125 9.72262H15.875C15.875 11.8287 15.847 12.5881 15.3192 13.2667L16.3059 14.0342ZM17.125 9.72262V8.27737H15.875V9.72262H17.125ZM17.125 8.27737C17.125 6.32479 17.153 5.05495 16.3059 3.96582L15.3192 4.73324C15.847 5.41185 15.875 6.1713 15.875 8.27737H17.125ZM16.3059 3.96582C15.4556 2.87256 14.4606 2.69235 12.9899 2.39256L12.7402 3.61737C14.2829 3.93184 14.7946 4.05876 15.3192 4.73324L16.3059 3.96582ZM12.9899 2.39256C11.7415 2.13807 10.398 2 9 2V3.25C10.3165 3.25 11.5762 3.38009 12.7402 3.61737L12.9899 2.39256ZM9 2C7.60196 2 6.25854 2.13807 5.01008 2.39256L5.25976 3.61737C6.4238 3.38009 7.68349 3.25 9 3.25V2ZM5.01008 2.39256C3.53941 2.69235 2.54442 2.87256 1.69411 3.96581L2.68079 4.73324C3.20539 4.05876 3.71708 3.93184 5.25976 3.61737L5.01008 2.39256ZM1.6941 3.96582C0.847007 5.05495 0.875 6.32479 0.875 8.27737H2.125C2.125 6.1713 2.15299 5.41185 2.6808 4.73324L1.6941 3.96582ZM0.875 8.27737V9.72262H2.125V8.27737H0.875ZM0.875 9.72262C0.875 11.6752 0.847008 12.945 1.6941 14.0342L2.6808 13.2667C2.15299 12.5881 2.125 11.8287 2.125 9.72262H0.875ZM1.6941 14.0342C2.54442 15.1274 3.53938 15.3077 5.01009 15.6075L5.25975 14.3826C3.71711 14.0682 3.2054 13.9412 2.6808 13.2667L1.6941 14.0342ZM5.0101 15.6075C6.25854 15.8619 7.60195 16 9 16V14.75C7.6835 14.75 6.4238 14.6199 5.25974 14.3826L5.0101 15.6075ZM11.3645 9.08597C11.364 9.08793 11.3628 9.09263 11.3579 9.10162C11.3526 9.11126 11.3421 9.12791 11.3215 9.15193C11.2779 9.20285 11.2014 9.27285 11.0684 9.36726C10.7943 9.56169 10.3881 9.7867 9.78201 10.1207L10.3853 11.2155C10.9637 10.8967 11.4457 10.6322 11.7917 10.3867C12.1316 10.1456 12.4672 9.83812 12.5786 9.38338L11.3645 9.08597ZM9.78207 10.1207C9.12464 10.4829 8.67749 10.7282 8.33004 10.8721C7.98208 11.0162 7.84841 11.0074 7.78805 10.9915L7.47115 12.2007C7.93249 12.3216 8.38172 12.2036 8.8083 12.027C9.2354 11.8501 9.75444 11.5631 10.3853 11.2155L9.78207 10.1207ZM7.78818 10.9916C7.69363 10.9668 7.61149 10.9244 7.54641 10.8718L6.76057 11.8439C6.96881 12.0122 7.21217 12.1328 7.47102 12.2007L7.78818 10.9916ZM7.5464 10.8718C7.53078 10.8592 7.46284 10.8045 7.41999 10.4822C7.37632 10.1537 7.375 9.69552 7.375 9H6.125C6.125 9.6589 6.12368 10.2165 6.18089 10.6469C6.23891 11.0833 6.37271 11.5304 6.76058 11.8439L7.5464 10.8718ZM7.375 9C7.375 8.30448 7.37632 7.84628 7.41999 7.51785C7.46284 7.1955 7.53078 7.14082 7.54643 7.12817L6.76056 6.1561C6.37272 6.46966 6.23891 6.9167 6.18089 7.35312C6.12368 7.78347 6.125 8.3411 6.125 9H7.375ZM7.54645 7.12815C7.61147 7.07558 7.69355 7.03325 7.78806 7.00848L7.47114 5.79933C7.21225 5.86718 6.96883 5.98771 6.76054 6.15612L7.54645 7.12815ZM7.78807 7.00848C7.84844 6.99266 7.9821 6.98381 8.33005 7.1279C8.67748 7.27177 9.12463 7.5171 9.78205 7.87935L10.3853 6.78455C9.75445 6.43694 9.2354 6.14987 8.8083 5.973C8.3817 5.79635 7.93246 5.67841 7.47113 5.79933L7.78807 7.00848ZM9.78202 7.87933C10.3881 8.21332 10.7943 8.43832 11.0684 8.63275C11.2014 8.72715 11.2779 8.79715 11.3215 8.84807C11.3421 8.87209 11.3526 8.88874 11.3579 8.89838C11.3628 8.90737 11.364 8.91208 11.3645 8.91403L12.5786 8.61662C12.4672 8.16188 12.1316 7.85444 11.7917 7.61329C11.4457 7.36779 10.9637 7.10328 10.3853 6.78456L9.78202 7.87933ZM11.3645 8.914C11.3785 8.97098 11.3785 9.02902 11.3645 9.086L12.5786 9.38335C12.6404 9.13103 12.6404 8.86897 12.5786 8.61665L11.3645 8.914Z" fill="#9CA3AF"/>
</g>
</svg>
