<svg width="16" height="16" viewBox="0 0 16 16" fill="none" xmlns="http://www.w3.org/2000/svg">
<path fill-rule="evenodd" clip-rule="evenodd" d="M7.83334 15.0003C3.8753 15.0003 0.666672 11.7917 0.666672 7.83366C0.666672 3.87562 3.8753 0.666992 7.83334 0.666992C9.13787 0.666992 10.3624 1.016 11.417 1.62607C11.8384 1.86981 12.5315 2.33085 13.1979 3.07469C12.6317 3.42373 12.0821 3.86317 11.5657 4.33771C10.7209 5.11385 9.92507 6.02077 9.24334 6.87686C8.56034 7.73466 7.9836 8.55179 7.5778 9.15399L7.51927 9.24113C7.12327 8.69079 6.71247 8.30786 6.35061 8.04466C6.08048 7.84819 5.84133 7.72119 5.66154 7.64132C5.5717 7.60139 5.49672 7.57319 5.4401 7.55399C5.41178 7.54446 5.38804 7.53706 5.36931 7.53159C5.35994 7.52886 5.35183 7.52659 5.34501 7.52472L5.33577 7.52226L5.33189 7.52126L5.33014 7.52079L5.32932 7.52059C5.32932 7.52059 5.34501 7.52472 5.32852 7.52039C4.97132 7.43113 4.60936 7.64826 4.52006 8.00546C4.43156 8.35953 4.64414 8.71826 4.99572 8.81152C4.99801 8.81219 5.00352 8.81386 5.01204 8.81679C5.03225 8.82366 5.06924 8.83712 5.12003 8.85972C5.22149 8.90479 5.37818 8.98612 5.56638 9.12299C5.93957 9.39439 6.45232 9.89552 6.90387 10.7987C7.01247 11.0158 7.23047 11.1567 7.473 11.1666C7.71554 11.1765 7.9446 11.0533 8.07047 10.8458L8.07207 10.8431L8.0792 10.8314L8.10914 10.783C8.1358 10.7399 8.17594 10.6758 8.2284 10.5933C8.3334 10.4281 8.4878 10.1896 8.68354 9.89906C9.07554 9.31726 9.6312 8.53026 10.2864 7.70746C10.9429 6.88299 11.6912 6.03301 12.4677 5.31956C12.9859 4.84353 13.4998 4.44401 13.9925 4.15217C14.3648 4.77401 14.6775 5.51817 14.8567 6.40086C14.9507 6.86426 15 7.34346 15 7.83366C15 11.7917 11.7914 15.0003 7.83334 15.0003Z" fill="#33BF77"/>
</svg>
