<svg width="1200" height="320" viewBox="0 0 1200 320" fill="none" xmlns="http://www.w3.org/2000/svg">
<mask id="path-1-inside-1_9165_234" fill="white">
<path d="M-360 288H-328V320H-360V288Z"/>
<path d="M-328 288H-296V320H-328V288Z"/>
<path d="M-296 288H-264V320H-296V288Z"/>
<path d="M-264 288H-232V320H-264V288Z"/>
<path d="M-232 288H-200V320H-232V288Z"/>
<path d="M-200 288H-168V320H-200V288Z"/>
<path d="M-168 288H-136V320H-168V288Z"/>
<path d="M-136 288H-104V320H-136V288Z"/>
<path d="M-104 288H-72V320H-104V288Z"/>
<path d="M-72 288H-40V320H-72V288Z"/>
<path d="M-40 288H-8V320H-40V288Z"/>
<path d="M-8 288H24V320H-8V288Z"/>
<path d="M24 288H56V320H24V288Z"/>
<path d="M56 288H88V320H56V288Z"/>
<path d="M88 288H120V320H88V288Z"/>
<path d="M120 288H152V320H120V288Z"/>
<path d="M152 288H184V320H152V288Z"/>
<path d="M184 288H216V320H184V288Z"/>
<path d="M216 288H248V320H216V288Z"/>
<path d="M248 288H280V320H248V288Z"/>
<path d="M280 288H312V320H280V288Z"/>
<path d="M312 288H344V320H312V288Z"/>
<path d="M344 288H376V320H344V288Z"/>
<path d="M376 288H408V320H376V288Z"/>
<path d="M408 288H440V320H408V288Z"/>
<path d="M440 288H472V320H440V288Z"/>
<path d="M472 288H504V320H472V288Z"/>
<path d="M504 288H536V320H504V288Z"/>
<path d="M536 288H568V320H536V288Z"/>
<path d="M568 288H600V320H568V288Z"/>
<path d="M600 288H632V320H600V288Z"/>
<path d="M632 288H664V320H632V288Z"/>
<path d="M664 288H696V320H664V288Z"/>
<path d="M696 288H728V320H696V288Z"/>
<path d="M728 288H760V320H728V288Z"/>
<path d="M760 288H792V320H760V288Z"/>
<path d="M792 288H824V320H792V288Z"/>
<path d="M824 288H856V320H824V288Z"/>
<path d="M856 288H888V320H856V288Z"/>
<path d="M888 288H920V320H888V288Z"/>
<path d="M920 288H952V320H920V288Z"/>
<path d="M952 288H984V320H952V288Z"/>
<path d="M984 288H1016V320H984V288Z"/>
<path d="M1016 288H1048V320H1016V288Z"/>
<path d="M1048 288H1080V320H1048V288Z"/>
<path d="M1080 288H1112V320H1080V288Z"/>
<path d="M1112 288H1144V320H1112V288Z"/>
<path d="M1144 288H1176V320H1144V288Z"/>
<path d="M1176 288H1208V320H1176V288Z"/>
<path d="M1208 288H1240V320H1208V288Z"/>
<path d="M1240 288H1272V320H1240V288Z"/>
<path d="M1272 288H1304V320H1272V288Z"/>
<path d="M1304 288H1336V320H1304V288Z"/>
<path d="M1336 288H1368V320H1336V288Z"/>
<path d="M1368 288H1400V320H1368V288Z"/>
<path d="M1400 288H1432V320H1400V288Z"/>
<path d="M1432 288H1464V320H1432V288Z"/>
<path d="M1464 288H1496V320H1464V288Z"/>
<path d="M1496 288H1528V320H1496V288Z"/>
<path d="M1528 288H1560V320H1528V288Z"/>
<path d="M-360 256H-328V288H-360V256Z"/>
<path d="M-328 256H-296V288H-328V256Z"/>
<path d="M-296 256H-264V288H-296V256Z"/>
<path d="M-264 256H-232V288H-264V256Z"/>
<path d="M-232 256H-200V288H-232V256Z"/>
<path d="M-200 256H-168V288H-200V256Z"/>
<path d="M-168 256H-136V288H-168V256Z"/>
<path d="M-136 256H-104V288H-136V256Z"/>
<path d="M-104 256H-72V288H-104V256Z"/>
<path d="M-72 256H-40V288H-72V256Z"/>
<path d="M-40 256H-8V288H-40V256Z"/>
<path d="M-8 256H24V288H-8V256Z"/>
<path d="M24 256H56V288H24V256Z"/>
<path d="M56 256H88V288H56V256Z"/>
<path d="M88 256H120V288H88V256Z"/>
<path d="M120 256H152V288H120V256Z"/>
<path d="M152 256H184V288H152V256Z"/>
<path d="M184 256H216V288H184V256Z"/>
<path d="M216 256H248V288H216V256Z"/>
<path d="M248 256H280V288H248V256Z"/>
<path d="M280 256H312V288H280V256Z"/>
<path d="M312 256H344V288H312V256Z"/>
<path d="M344 256H376V288H344V256Z"/>
<path d="M376 256H408V288H376V256Z"/>
<path d="M408 256H440V288H408V256Z"/>
<path d="M440 256H472V288H440V256Z"/>
<path d="M472 256H504V288H472V256Z"/>
<path d="M504 256H536V288H504V256Z"/>
<path d="M536 256H568V288H536V256Z"/>
<path d="M568 256H600V288H568V256Z"/>
<path d="M600 256H632V288H600V256Z"/>
<path d="M632 256H664V288H632V256Z"/>
<path d="M664 256H696V288H664V256Z"/>
<path d="M696 256H728V288H696V256Z"/>
<path d="M728 256H760V288H728V256Z"/>
<path d="M760 256H792V288H760V256Z"/>
<path d="M792 256H824V288H792V256Z"/>
<path d="M824 256H856V288H824V256Z"/>
<path d="M856 256H888V288H856V256Z"/>
<path d="M888 256H920V288H888V256Z"/>
<path d="M920 256H952V288H920V256Z"/>
<path d="M952 256H984V288H952V256Z"/>
<path d="M984 256H1016V288H984V256Z"/>
<path d="M1016 256H1048V288H1016V256Z"/>
<path d="M1048 256H1080V288H1048V256Z"/>
<path d="M1080 256H1112V288H1080V256Z"/>
<path d="M1112 256H1144V288H1112V256Z"/>
<path d="M1144 256H1176V288H1144V256Z"/>
<path d="M1176 256H1208V288H1176V256Z"/>
<path d="M1208 256H1240V288H1208V256Z"/>
<path d="M1240 256H1272V288H1240V256Z"/>
<path d="M1272 256H1304V288H1272V256Z"/>
<path d="M1304 256H1336V288H1304V256Z"/>
<path d="M1336 256H1368V288H1336V256Z"/>
<path d="M1368 256H1400V288H1368V256Z"/>
<path d="M1400 256H1432V288H1400V256Z"/>
<path d="M1432 256H1464V288H1432V256Z"/>
<path d="M1464 256H1496V288H1464V256Z"/>
<path d="M1496 256H1528V288H1496V256Z"/>
<path d="M1528 256H1560V288H1528V256Z"/>
<path d="M-360 224H-328V256H-360V224Z"/>
<path d="M-328 224H-296V256H-328V224Z"/>
<path d="M-296 224H-264V256H-296V224Z"/>
<path d="M-264 224H-232V256H-264V224Z"/>
<path d="M-232 224H-200V256H-232V224Z"/>
<path d="M-200 224H-168V256H-200V224Z"/>
<path d="M-168 224H-136V256H-168V224Z"/>
<path d="M-136 224H-104V256H-136V224Z"/>
<path d="M-104 224H-72V256H-104V224Z"/>
<path d="M-72 224H-40V256H-72V224Z"/>
<path d="M-40 224H-8V256H-40V224Z"/>
<path d="M-8 224H24V256H-8V224Z"/>
<path d="M24 224H56V256H24V224Z"/>
<path d="M56 224H88V256H56V224Z"/>
<path d="M88 224H120V256H88V224Z"/>
<path d="M120 224H152V256H120V224Z"/>
<path d="M152 224H184V256H152V224Z"/>
<path d="M184 224H216V256H184V224Z"/>
<path d="M216 224H248V256H216V224Z"/>
<path d="M248 224H280V256H248V224Z"/>
<path d="M280 224H312V256H280V224Z"/>
<path d="M312 224H344V256H312V224Z"/>
<path d="M344 224H376V256H344V224Z"/>
<path d="M376 224H408V256H376V224Z"/>
<path d="M408 224H440V256H408V224Z"/>
<path d="M440 224H472V256H440V224Z"/>
<path d="M472 224H504V256H472V224Z"/>
<path d="M504 224H536V256H504V224Z"/>
<path d="M536 224H568V256H536V224Z"/>
<path d="M568 224H600V256H568V224Z"/>
<path d="M600 224H632V256H600V224Z"/>
<path d="M632 224H664V256H632V224Z"/>
<path d="M664 224H696V256H664V224Z"/>
<path d="M696 224H728V256H696V224Z"/>
<path d="M728 224H760V256H728V224Z"/>
<path d="M760 224H792V256H760V224Z"/>
<path d="M792 224H824V256H792V224Z"/>
<path d="M824 224H856V256H824V224Z"/>
<path d="M856 224H888V256H856V224Z"/>
<path d="M888 224H920V256H888V224Z"/>
<path d="M920 224H952V256H920V224Z"/>
<path d="M952 224H984V256H952V224Z"/>
<path d="M984 224H1016V256H984V224Z"/>
<path d="M1016 224H1048V256H1016V224Z"/>
<path d="M1048 224H1080V256H1048V224Z"/>
<path d="M1080 224H1112V256H1080V224Z"/>
<path d="M1112 224H1144V256H1112V224Z"/>
<path d="M1144 224H1176V256H1144V224Z"/>
<path d="M1176 224H1208V256H1176V224Z"/>
<path d="M1208 224H1240V256H1208V224Z"/>
<path d="M1240 224H1272V256H1240V224Z"/>
<path d="M1272 224H1304V256H1272V224Z"/>
<path d="M1304 224H1336V256H1304V224Z"/>
<path d="M1336 224H1368V256H1336V224Z"/>
<path d="M1368 224H1400V256H1368V224Z"/>
<path d="M1400 224H1432V256H1400V224Z"/>
<path d="M1432 224H1464V256H1432V224Z"/>
<path d="M1464 224H1496V256H1464V224Z"/>
<path d="M1496 224H1528V256H1496V224Z"/>
<path d="M1528 224H1560V256H1528V224Z"/>
<path d="M-360 192H-328V224H-360V192Z"/>
<path d="M-328 192H-296V224H-328V192Z"/>
<path d="M-296 192H-264V224H-296V192Z"/>
<path d="M-264 192H-232V224H-264V192Z"/>
<path d="M-232 192H-200V224H-232V192Z"/>
<path d="M-200 192H-168V224H-200V192Z"/>
<path d="M-168 192H-136V224H-168V192Z"/>
<path d="M-136 192H-104V224H-136V192Z"/>
<path d="M-104 192H-72V224H-104V192Z"/>
<path d="M-72 192H-40V224H-72V192Z"/>
<path d="M-40 192H-8V224H-40V192Z"/>
<path d="M-8 192H24V224H-8V192Z"/>
<path d="M24 192H56V224H24V192Z"/>
<path d="M56 192H88V224H56V192Z"/>
<path d="M88 192H120V224H88V192Z"/>
<path d="M120 192H152V224H120V192Z"/>
<path d="M152 192H184V224H152V192Z"/>
<path d="M184 192H216V224H184V192Z"/>
<path d="M216 192H248V224H216V192Z"/>
<path d="M248 192H280V224H248V192Z"/>
<path d="M280 192H312V224H280V192Z"/>
<path d="M312 192H344V224H312V192Z"/>
<path d="M344 192H376V224H344V192Z"/>
<path d="M376 192H408V224H376V192Z"/>
<path d="M408 192H440V224H408V192Z"/>
<path d="M440 192H472V224H440V192Z"/>
<path d="M472 192H504V224H472V192Z"/>
<path d="M504 192H536V224H504V192Z"/>
<path d="M536 192H568V224H536V192Z"/>
<path d="M568 192H600V224H568V192Z"/>
<path d="M600 192H632V224H600V192Z"/>
<path d="M632 192H664V224H632V192Z"/>
<path d="M664 192H696V224H664V192Z"/>
<path d="M696 192H728V224H696V192Z"/>
<path d="M728 192H760V224H728V192Z"/>
<path d="M760 192H792V224H760V192Z"/>
<path d="M792 192H824V224H792V192Z"/>
<path d="M824 192H856V224H824V192Z"/>
<path d="M856 192H888V224H856V192Z"/>
<path d="M888 192H920V224H888V192Z"/>
<path d="M920 192H952V224H920V192Z"/>
<path d="M952 192H984V224H952V192Z"/>
<path d="M984 192H1016V224H984V192Z"/>
<path d="M1016 192H1048V224H1016V192Z"/>
<path d="M1048 192H1080V224H1048V192Z"/>
<path d="M1080 192H1112V224H1080V192Z"/>
<path d="M1112 192H1144V224H1112V192Z"/>
<path d="M1144 192H1176V224H1144V192Z"/>
<path d="M1176 192H1208V224H1176V192Z"/>
<path d="M1208 192H1240V224H1208V192Z"/>
<path d="M1240 192H1272V224H1240V192Z"/>
<path d="M1272 192H1304V224H1272V192Z"/>
<path d="M1304 192H1336V224H1304V192Z"/>
<path d="M1336 192H1368V224H1336V192Z"/>
<path d="M1368 192H1400V224H1368V192Z"/>
<path d="M1400 192H1432V224H1400V192Z"/>
<path d="M1432 192H1464V224H1432V192Z"/>
<path d="M1464 192H1496V224H1464V192Z"/>
<path d="M1496 192H1528V224H1496V192Z"/>
<path d="M1528 192H1560V224H1528V192Z"/>
<path d="M-360 160H-328V192H-360V160Z"/>
<path d="M-328 160H-296V192H-328V160Z"/>
<path d="M-296 160H-264V192H-296V160Z"/>
<path d="M-264 160H-232V192H-264V160Z"/>
<path d="M-232 160H-200V192H-232V160Z"/>
<path d="M-200 160H-168V192H-200V160Z"/>
<path d="M-168 160H-136V192H-168V160Z"/>
<path d="M-136 160H-104V192H-136V160Z"/>
<path d="M-104 160H-72V192H-104V160Z"/>
<path d="M-72 160H-40V192H-72V160Z"/>
<path d="M-40 160H-8V192H-40V160Z"/>
<path d="M-8 160H24V192H-8V160Z"/>
<path d="M24 160H56V192H24V160Z"/>
<path d="M56 160H88V192H56V160Z"/>
<path d="M88 160H120V192H88V160Z"/>
<path d="M120 160H152V192H120V160Z"/>
<path d="M152 160H184V192H152V160Z"/>
<path d="M184 160H216V192H184V160Z"/>
<path d="M216 160H248V192H216V160Z"/>
<path d="M248 160H280V192H248V160Z"/>
<path d="M280 160H312V192H280V160Z"/>
<path d="M312 160H344V192H312V160Z"/>
<path d="M344 160H376V192H344V160Z"/>
<path d="M376 160H408V192H376V160Z"/>
<path d="M408 160H440V192H408V160Z"/>
<path d="M440 160H472V192H440V160Z"/>
<path d="M472 160H504V192H472V160Z"/>
<path d="M504 160H536V192H504V160Z"/>
<path d="M536 160H568V192H536V160Z"/>
<path d="M568 160H600V192H568V160Z"/>
<path d="M600 160H632V192H600V160Z"/>
<path d="M632 160H664V192H632V160Z"/>
<path d="M664 160H696V192H664V160Z"/>
<path d="M696 160H728V192H696V160Z"/>
<path d="M728 160H760V192H728V160Z"/>
<path d="M760 160H792V192H760V160Z"/>
<path d="M792 160H824V192H792V160Z"/>
<path d="M824 160H856V192H824V160Z"/>
<path d="M856 160H888V192H856V160Z"/>
<path d="M888 160H920V192H888V160Z"/>
<path d="M920 160H952V192H920V160Z"/>
<path d="M952 160H984V192H952V160Z"/>
<path d="M984 160H1016V192H984V160Z"/>
<path d="M1016 160H1048V192H1016V160Z"/>
<path d="M1048 160H1080V192H1048V160Z"/>
<path d="M1080 160H1112V192H1080V160Z"/>
<path d="M1112 160H1144V192H1112V160Z"/>
<path d="M1144 160H1176V192H1144V160Z"/>
<path d="M1176 160H1208V192H1176V160Z"/>
<path d="M1208 160H1240V192H1208V160Z"/>
<path d="M1240 160H1272V192H1240V160Z"/>
<path d="M1272 160H1304V192H1272V160Z"/>
<path d="M1304 160H1336V192H1304V160Z"/>
<path d="M1336 160H1368V192H1336V160Z"/>
<path d="M1368 160H1400V192H1368V160Z"/>
<path d="M1400 160H1432V192H1400V160Z"/>
<path d="M1432 160H1464V192H1432V160Z"/>
<path d="M1464 160H1496V192H1464V160Z"/>
<path d="M1496 160H1528V192H1496V160Z"/>
<path d="M1528 160H1560V192H1528V160Z"/>
<path d="M-360 128H-328V160H-360V128Z"/>
<path d="M-328 128H-296V160H-328V128Z"/>
<path d="M-296 128H-264V160H-296V128Z"/>
<path d="M-264 128H-232V160H-264V128Z"/>
<path d="M-232 128H-200V160H-232V128Z"/>
<path d="M-200 128H-168V160H-200V128Z"/>
<path d="M-168 128H-136V160H-168V128Z"/>
<path d="M-136 128H-104V160H-136V128Z"/>
<path d="M-104 128H-72V160H-104V128Z"/>
<path d="M-72 128H-40V160H-72V128Z"/>
<path d="M-40 128H-8V160H-40V128Z"/>
<path d="M-8 128H24V160H-8V128Z"/>
<path d="M24 128H56V160H24V128Z"/>
<path d="M56 128H88V160H56V128Z"/>
<path d="M88 128H120V160H88V128Z"/>
<path d="M120 128H152V160H120V128Z"/>
<path d="M152 128H184V160H152V128Z"/>
<path d="M184 128H216V160H184V128Z"/>
<path d="M216 128H248V160H216V128Z"/>
<path d="M248 128H280V160H248V128Z"/>
<path d="M280 128H312V160H280V128Z"/>
<path d="M312 128H344V160H312V128Z"/>
<path d="M344 128H376V160H344V128Z"/>
<path d="M376 128H408V160H376V128Z"/>
<path d="M408 128H440V160H408V128Z"/>
<path d="M440 128H472V160H440V128Z"/>
<path d="M472 128H504V160H472V128Z"/>
<path d="M504 128H536V160H504V128Z"/>
<path d="M536 128H568V160H536V128Z"/>
<path d="M568 128H600V160H568V128Z"/>
<path d="M600 128H632V160H600V128Z"/>
<path d="M632 128H664V160H632V128Z"/>
<path d="M664 128H696V160H664V128Z"/>
<path d="M696 128H728V160H696V128Z"/>
<path d="M728 128H760V160H728V128Z"/>
<path d="M760 128H792V160H760V128Z"/>
<path d="M792 128H824V160H792V128Z"/>
<path d="M824 128H856V160H824V128Z"/>
<path d="M856 128H888V160H856V128Z"/>
<path d="M888 128H920V160H888V128Z"/>
<path d="M920 128H952V160H920V128Z"/>
<path d="M952 128H984V160H952V128Z"/>
<path d="M984 128H1016V160H984V128Z"/>
<path d="M1016 128H1048V160H1016V128Z"/>
<path d="M1048 128H1080V160H1048V128Z"/>
<path d="M1080 128H1112V160H1080V128Z"/>
<path d="M1112 128H1144V160H1112V128Z"/>
<path d="M1144 128H1176V160H1144V128Z"/>
<path d="M1176 128H1208V160H1176V128Z"/>
<path d="M1208 128H1240V160H1208V128Z"/>
<path d="M1240 128H1272V160H1240V128Z"/>
<path d="M1272 128H1304V160H1272V128Z"/>
<path d="M1304 128H1336V160H1304V128Z"/>
<path d="M1336 128H1368V160H1336V128Z"/>
<path d="M1368 128H1400V160H1368V128Z"/>
<path d="M1400 128H1432V160H1400V128Z"/>
<path d="M1432 128H1464V160H1432V128Z"/>
<path d="M1464 128H1496V160H1464V128Z"/>
<path d="M1496 128H1528V160H1496V128Z"/>
<path d="M1528 128H1560V160H1528V128Z"/>
<path d="M-360 96H-328V128H-360V96Z"/>
<path d="M-328 96H-296V128H-328V96Z"/>
<path d="M-296 96H-264V128H-296V96Z"/>
<path d="M-264 96H-232V128H-264V96Z"/>
<path d="M-232 96H-200V128H-232V96Z"/>
<path d="M-200 96H-168V128H-200V96Z"/>
<path d="M-168 96H-136V128H-168V96Z"/>
<path d="M-136 96H-104V128H-136V96Z"/>
<path d="M-104 96H-72V128H-104V96Z"/>
<path d="M-72 96H-40V128H-72V96Z"/>
<path d="M-40 96H-8V128H-40V96Z"/>
<path d="M-8 96H24V128H-8V96Z"/>
<path d="M24 96H56V128H24V96Z"/>
<path d="M56 96H88V128H56V96Z"/>
<path d="M88 96H120V128H88V96Z"/>
<path d="M120 96H152V128H120V96Z"/>
<path d="M152 96H184V128H152V96Z"/>
<path d="M184 96H216V128H184V96Z"/>
<path d="M216 96H248V128H216V96Z"/>
<path d="M248 96H280V128H248V96Z"/>
<path d="M280 96H312V128H280V96Z"/>
<path d="M312 96H344V128H312V96Z"/>
<path d="M344 96H376V128H344V96Z"/>
<path d="M376 96H408V128H376V96Z"/>
<path d="M408 96H440V128H408V96Z"/>
<path d="M440 96H472V128H440V96Z"/>
<path d="M472 96H504V128H472V96Z"/>
<path d="M504 96H536V128H504V96Z"/>
<path d="M536 96H568V128H536V96Z"/>
<path d="M568 96H600V128H568V96Z"/>
<path d="M600 96H632V128H600V96Z"/>
<path d="M632 96H664V128H632V96Z"/>
<path d="M664 96H696V128H664V96Z"/>
<path d="M696 96H728V128H696V96Z"/>
<path d="M728 96H760V128H728V96Z"/>
<path d="M760 96H792V128H760V96Z"/>
<path d="M792 96H824V128H792V96Z"/>
<path d="M824 96H856V128H824V96Z"/>
<path d="M856 96H888V128H856V96Z"/>
<path d="M888 96H920V128H888V96Z"/>
<path d="M920 96H952V128H920V96Z"/>
<path d="M952 96H984V128H952V96Z"/>
<path d="M984 96H1016V128H984V96Z"/>
<path d="M1016 96H1048V128H1016V96Z"/>
<path d="M1048 96H1080V128H1048V96Z"/>
<path d="M1080 96H1112V128H1080V96Z"/>
<path d="M1112 96H1144V128H1112V96Z"/>
<path d="M1144 96H1176V128H1144V96Z"/>
<path d="M1176 96H1208V128H1176V96Z"/>
<path d="M1208 96H1240V128H1208V96Z"/>
<path d="M1240 96H1272V128H1240V96Z"/>
<path d="M1272 96H1304V128H1272V96Z"/>
<path d="M1304 96H1336V128H1304V96Z"/>
<path d="M1336 96H1368V128H1336V96Z"/>
<path d="M1368 96H1400V128H1368V96Z"/>
<path d="M1400 96H1432V128H1400V96Z"/>
<path d="M1432 96H1464V128H1432V96Z"/>
<path d="M1464 96H1496V128H1464V96Z"/>
<path d="M1496 96H1528V128H1496V96Z"/>
<path d="M1528 96H1560V128H1528V96Z"/>
<path d="M-360 64H-328V96H-360V64Z"/>
<path d="M-328 64H-296V96H-328V64Z"/>
<path d="M-296 64H-264V96H-296V64Z"/>
<path d="M-264 64H-232V96H-264V64Z"/>
<path d="M-232 64H-200V96H-232V64Z"/>
<path d="M-200 64H-168V96H-200V64Z"/>
<path d="M-168 64H-136V96H-168V64Z"/>
<path d="M-136 64H-104V96H-136V64Z"/>
<path d="M-104 64H-72V96H-104V64Z"/>
<path d="M-72 64H-40V96H-72V64Z"/>
<path d="M-40 64H-8V96H-40V64Z"/>
<path d="M-8 64H24V96H-8V64Z"/>
<path d="M24 64H56V96H24V64Z"/>
<path d="M56 64H88V96H56V64Z"/>
<path d="M88 64H120V96H88V64Z"/>
<path d="M120 64H152V96H120V64Z"/>
<path d="M152 64H184V96H152V64Z"/>
<path d="M184 64H216V96H184V64Z"/>
<path d="M216 64H248V96H216V64Z"/>
<path d="M248 64H280V96H248V64Z"/>
<path d="M280 64H312V96H280V64Z"/>
<path d="M312 64H344V96H312V64Z"/>
<path d="M344 64H376V96H344V64Z"/>
<path d="M376 64H408V96H376V64Z"/>
<path d="M408 64H440V96H408V64Z"/>
<path d="M440 64H472V96H440V64Z"/>
<path d="M472 64H504V96H472V64Z"/>
<path d="M504 64H536V96H504V64Z"/>
<path d="M536 64H568V96H536V64Z"/>
<path d="M568 64H600V96H568V64Z"/>
<path d="M600 64H632V96H600V64Z"/>
<path d="M632 64H664V96H632V64Z"/>
<path d="M664 64H696V96H664V64Z"/>
<path d="M696 64H728V96H696V64Z"/>
<path d="M728 64H760V96H728V64Z"/>
<path d="M760 64H792V96H760V64Z"/>
<path d="M792 64H824V96H792V64Z"/>
<path d="M824 64H856V96H824V64Z"/>
<path d="M856 64H888V96H856V64Z"/>
<path d="M888 64H920V96H888V64Z"/>
<path d="M920 64H952V96H920V64Z"/>
<path d="M952 64H984V96H952V64Z"/>
<path d="M984 64H1016V96H984V64Z"/>
<path d="M1016 64H1048V96H1016V64Z"/>
<path d="M1048 64H1080V96H1048V64Z"/>
<path d="M1080 64H1112V96H1080V64Z"/>
<path d="M1112 64H1144V96H1112V64Z"/>
<path d="M1144 64H1176V96H1144V64Z"/>
<path d="M1176 64H1208V96H1176V64Z"/>
<path d="M1208 64H1240V96H1208V64Z"/>
<path d="M1240 64H1272V96H1240V64Z"/>
<path d="M1272 64H1304V96H1272V64Z"/>
<path d="M1304 64H1336V96H1304V64Z"/>
<path d="M1336 64H1368V96H1336V64Z"/>
<path d="M1368 64H1400V96H1368V64Z"/>
<path d="M1400 64H1432V96H1400V64Z"/>
<path d="M1432 64H1464V96H1432V64Z"/>
<path d="M1464 64H1496V96H1464V64Z"/>
<path d="M1496 64H1528V96H1496V64Z"/>
<path d="M1528 64H1560V96H1528V64Z"/>
<path d="M-360 32H-328V64H-360V32Z"/>
<path d="M-328 32H-296V64H-328V32Z"/>
<path d="M-296 32H-264V64H-296V32Z"/>
<path d="M-264 32H-232V64H-264V32Z"/>
<path d="M-232 32H-200V64H-232V32Z"/>
<path d="M-200 32H-168V64H-200V32Z"/>
<path d="M-168 32H-136V64H-168V32Z"/>
<path d="M-136 32H-104V64H-136V32Z"/>
<path d="M-104 32H-72V64H-104V32Z"/>
<path d="M-72 32H-40V64H-72V32Z"/>
<path d="M-40 32H-8V64H-40V32Z"/>
<path d="M-8 32H24V64H-8V32Z"/>
<path d="M24 32H56V64H24V32Z"/>
<path d="M56 32H88V64H56V32Z"/>
<path d="M88 32H120V64H88V32Z"/>
<path d="M120 32H152V64H120V32Z"/>
<path d="M152 32H184V64H152V32Z"/>
<path d="M184 32H216V64H184V32Z"/>
<path d="M216 32H248V64H216V32Z"/>
<path d="M248 32H280V64H248V32Z"/>
<path d="M280 32H312V64H280V32Z"/>
<path d="M312 32H344V64H312V32Z"/>
<path d="M344 32H376V64H344V32Z"/>
<path d="M376 32H408V64H376V32Z"/>
<path d="M408 32H440V64H408V32Z"/>
<path d="M440 32H472V64H440V32Z"/>
<path d="M472 32H504V64H472V32Z"/>
<path d="M504 32H536V64H504V32Z"/>
<path d="M536 32H568V64H536V32Z"/>
<path d="M568 32H600V64H568V32Z"/>
<path d="M600 32H632V64H600V32Z"/>
<path d="M632 32H664V64H632V32Z"/>
<path d="M664 32H696V64H664V32Z"/>
<path d="M696 32H728V64H696V32Z"/>
<path d="M728 32H760V64H728V32Z"/>
<path d="M760 32H792V64H760V32Z"/>
<path d="M792 32H824V64H792V32Z"/>
<path d="M824 32H856V64H824V32Z"/>
<path d="M856 32H888V64H856V32Z"/>
<path d="M888 32H920V64H888V32Z"/>
<path d="M920 32H952V64H920V32Z"/>
<path d="M952 32H984V64H952V32Z"/>
<path d="M984 32H1016V64H984V32Z"/>
<path d="M1016 32H1048V64H1016V32Z"/>
<path d="M1048 32H1080V64H1048V32Z"/>
<path d="M1080 32H1112V64H1080V32Z"/>
<path d="M1112 32H1144V64H1112V32Z"/>
<path d="M1144 32H1176V64H1144V32Z"/>
<path d="M1176 32H1208V64H1176V32Z"/>
<path d="M1208 32H1240V64H1208V32Z"/>
<path d="M1240 32H1272V64H1240V32Z"/>
<path d="M1272 32H1304V64H1272V32Z"/>
<path d="M1304 32H1336V64H1304V32Z"/>
<path d="M1336 32H1368V64H1336V32Z"/>
<path d="M1368 32H1400V64H1368V32Z"/>
<path d="M1400 32H1432V64H1400V32Z"/>
<path d="M1432 32H1464V64H1432V32Z"/>
<path d="M1464 32H1496V64H1464V32Z"/>
<path d="M1496 32H1528V64H1496V32Z"/>
<path d="M1528 32H1560V64H1528V32Z"/>
<path d="M-360 0H-328V32H-360V0Z"/>
<path d="M-328 0H-296V32H-328V0Z"/>
<path d="M-296 0H-264V32H-296V0Z"/>
<path d="M-264 0H-232V32H-264V0Z"/>
<path d="M-232 0H-200V32H-232V0Z"/>
<path d="M-200 0H-168V32H-200V0Z"/>
<path d="M-168 0H-136V32H-168V0Z"/>
<path d="M-136 0H-104V32H-136V0Z"/>
<path d="M-104 0H-72V32H-104V0Z"/>
<path d="M-72 0H-40V32H-72V0Z"/>
<path d="M-40 0H-8V32H-40V0Z"/>
<path d="M-8 0H24V32H-8V0Z"/>
<path d="M24 0H56V32H24V0Z"/>
<path d="M56 0H88V32H56V0Z"/>
<path d="M88 0H120V32H88V0Z"/>
<path d="M120 0H152V32H120V0Z"/>
<path d="M152 0H184V32H152V0Z"/>
<path d="M184 0H216V32H184V0Z"/>
<path d="M216 0H248V32H216V0Z"/>
<path d="M248 0H280V32H248V0Z"/>
<path d="M280 0H312V32H280V0Z"/>
<path d="M312 0H344V32H312V0Z"/>
<path d="M344 0H376V32H344V0Z"/>
<path d="M376 0H408V32H376V0Z"/>
<path d="M408 0H440V32H408V0Z"/>
<path d="M440 0H472V32H440V0Z"/>
<path d="M472 0H504V32H472V0Z"/>
<path d="M504 0H536V32H504V0Z"/>
<path d="M536 0H568V32H536V0Z"/>
<path d="M568 0H600V32H568V0Z"/>
<path d="M600 0H632V32H600V0Z"/>
<path d="M632 0H664V32H632V0Z"/>
<path d="M664 0H696V32H664V0Z"/>
<path d="M696 0H728V32H696V0Z"/>
<path d="M728 0H760V32H728V0Z"/>
<path d="M760 0H792V32H760V0Z"/>
<path d="M792 0H824V32H792V0Z"/>
<path d="M824 0H856V32H824V0Z"/>
<path d="M856 0H888V32H856V0Z"/>
<path d="M888 0H920V32H888V0Z"/>
<path d="M920 0H952V32H920V0Z"/>
<path d="M952 0H984V32H952V0Z"/>
<path d="M984 0H1016V32H984V0Z"/>
<path d="M1016 0H1048V32H1016V0Z"/>
<path d="M1048 0H1080V32H1048V0Z"/>
<path d="M1080 0H1112V32H1080V0Z"/>
<path d="M1112 0H1144V32H1112V0Z"/>
<path d="M1144 0H1176V32H1144V0Z"/>
<path d="M1176 0H1208V32H1176V0Z"/>
<path d="M1208 0H1240V32H1208V0Z"/>
<path d="M1240 0H1272V32H1240V0Z"/>
<path d="M1272 0H1304V32H1272V0Z"/>
<path d="M1304 0H1336V32H1304V0Z"/>
<path d="M1336 0H1368V32H1336V0Z"/>
<path d="M1368 0H1400V32H1368V0Z"/>
<path d="M1400 0H1432V32H1400V0Z"/>
<path d="M1432 0H1464V32H1432V0Z"/>
<path d="M1464 0H1496V32H1464V0Z"/>
<path d="M1496 0H1528V32H1496V0Z"/>
<path d="M1528 0H1560V32H1528V0Z"/>
</mask>
<path d="M-360 288.4H-328V287.6H-360V288.4ZM-328.4 288V320H-327.6V288H-328.4ZM-328 288.4H-296V287.6H-328V288.4ZM-296.4 288V320H-295.6V288H-296.4ZM-296 288.4H-264V287.6H-296V288.4ZM-264.4 288V320H-263.6V288H-264.4ZM-264 288.4H-232V287.6H-264V288.4ZM-232.4 288V320H-231.6V288H-232.4ZM-232 288.4H-200V287.6H-232V288.4ZM-200.4 288V320H-199.6V288H-200.4ZM-200 288.4H-168V287.6H-200V288.4ZM-168.4 288V320H-167.6V288H-168.4ZM-168 288.4H-136V287.6H-168V288.4ZM-136.4 288V320H-135.6V288H-136.4ZM-136 288.4H-104V287.6H-136V288.4ZM-104.4 288V320H-103.6V288H-104.4ZM-104 288.4H-72V287.6H-104V288.4ZM-72.4 288V320H-71.6V288H-72.4ZM-72 288.4H-40V287.6H-72V288.4ZM-40.4 288V320H-39.6V288H-40.4ZM-40 288.4H-8V287.6H-40V288.4ZM-8.39999 288V320H-7.60001V288H-8.39999ZM-8 288.4H24V287.6H-8V288.4ZM23.6 288V320H24.4V288H23.6ZM24 288.4H56V287.6H24V288.4ZM55.6 288V320H56.4V288H55.6ZM56 288.4H88V287.6H56V288.4ZM87.6 288V320H88.4V288H87.6ZM88 288.4H120V287.6H88V288.4ZM119.6 288V320H120.4V288H119.6ZM120 288.4H152V287.6H120V288.4ZM151.6 288V320H152.4V288H151.6ZM152 288.4H184V287.6H152V288.4ZM183.6 288V320H184.4V288H183.6ZM184 288.4H216V287.6H184V288.4ZM215.6 288V320H216.4V288H215.6ZM216 288.4H248V287.6H216V288.4ZM247.6 288V320H248.4V288H247.6ZM248 288.4H280V287.6H248V288.4ZM279.6 288V320H280.4V288H279.6ZM280 288.4H312V287.6H280V288.4ZM311.6 288V320H312.4V288H311.6ZM312 288.4H344V287.6H312V288.4ZM343.6 288V320H344.4V288H343.6ZM344 288.4H376V287.6H344V288.4ZM375.6 288V320H376.4V288H375.6ZM376 288.4H408V287.6H376V288.4ZM407.6 288V320H408.4V288H407.6ZM408 288.4H440V287.6H408V288.4ZM439.6 288V320H440.4V288H439.6ZM440 288.4H472V287.6H440V288.4ZM471.6 288V320H472.4V288H471.6ZM472 288.4H504V287.6H472V288.4ZM503.6 288V320H504.4V288H503.6ZM504 288.4H536V287.6H504V288.4ZM535.6 288V320H536.4V288H535.6ZM536 288.4H568V287.6H536V288.4ZM567.6 288V320H568.4V288H567.6ZM568 288.4H600V287.6H568V288.4ZM599.6 288V320H600.4V288H599.6ZM600 288.4H632V287.6H600V288.4ZM631.6 288V320H632.4V288H631.6ZM632 288.4H664V287.6H632V288.4ZM663.6 288V320H664.4V288H663.6ZM664 288.4H696V287.6H664V288.4ZM695.6 288V320H696.4V288H695.6ZM696 288.4H728V287.6H696V288.4ZM727.6 288V320H728.4V288H727.6ZM728 288.4H760V287.6H728V288.4ZM759.6 288V320H760.4V288H759.6ZM760 288.4H792V287.6H760V288.4ZM791.6 288V320H792.4V288H791.6ZM792 288.4H824V287.6H792V288.4ZM823.6 288V320H824.4V288H823.6ZM824 288.4H856V287.6H824V288.4ZM855.6 288V320H856.4V288H855.6ZM856 288.4H888V287.6H856V288.4ZM887.6 288V320H888.4V288H887.6ZM888 288.4H920V287.6H888V288.4ZM919.6 288V320H920.4V288H919.6ZM920 288.4H952V287.6H920V288.4ZM951.6 288V320H952.4V288H951.6ZM952 288.4H984V287.6H952V288.4ZM983.6 288V320H984.4V288H983.6ZM984 288.4H1016V287.6H984V288.4ZM1015.6 288V320H1016.4V288H1015.6ZM1016 288.4H1048V287.6H1016V288.4ZM1047.6 288V320H1048.4V288H1047.6ZM1048 288.4H1080V287.6H1048V288.4ZM1079.6 288V320H1080.4V288H1079.6ZM1080 288.4H1112V287.6H1080V288.4ZM1111.6 288V320H1112.4V288H1111.6ZM1112 288.4H1144V287.6H1112V288.4ZM1143.6 288V320H1144.4V288H1143.6ZM1144 288.4H1176V287.6H1144V288.4ZM1175.6 288V320H1176.4V288H1175.6ZM1176 288.4H1208V287.6H1176V288.4ZM1207.6 288V320H1208.4V288H1207.6ZM1208 288.4H1240V287.6H1208V288.4ZM1239.6 288V320H1240.4V288H1239.6ZM1240 288.4H1272V287.6H1240V288.4ZM1271.6 288V320H1272.4V288H1271.6ZM1272 288.4H1304V287.6H1272V288.4ZM1303.6 288V320H1304.4V288H1303.6ZM1304 288.4H1336V287.6H1304V288.4ZM1335.6 288V320H1336.4V288H1335.6ZM1336 288.4H1368V287.6H1336V288.4ZM1367.6 288V320H1368.4V288H1367.6ZM1368 288.4H1400V287.6H1368V288.4ZM1399.6 288V320H1400.4V288H1399.6ZM1400 288.4H1432V287.6H1400V288.4ZM1431.6 288V320H1432.4V288H1431.6ZM1432 288.4H1464V287.6H1432V288.4ZM1463.6 288V320H1464.4V288H1463.6ZM1464 288.4H1496V287.6H1464V288.4ZM1495.6 288V320H1496.4V288H1495.6ZM1496 288.4H1528V287.6H1496V288.4ZM1527.6 288V320H1528.4V288H1527.6ZM1528 288.4H1560V287.6H1528V288.4ZM-360 256.4H-328V255.6H-360V256.4ZM-328.4 256V288H-327.6V256H-328.4ZM-328 256.4H-296V255.6H-328V256.4ZM-296.4 256V288H-295.6V256H-296.4ZM-296 256.4H-264V255.6H-296V256.4ZM-264.4 256V288H-263.6V256H-264.4ZM-264 256.4H-232V255.6H-264V256.4ZM-232.4 256V288H-231.6V256H-232.4ZM-232 256.4H-200V255.6H-232V256.4ZM-200.4 256V288H-199.6V256H-200.4ZM-200 256.4H-168V255.6H-200V256.4ZM-168.4 256V288H-167.6V256H-168.4ZM-168 256.4H-136V255.6H-168V256.4ZM-136.4 256V288H-135.6V256H-136.4ZM-136 256.4H-104V255.6H-136V256.4ZM-104.4 256V288H-103.6V256H-104.4ZM-104 256.4H-72V255.6H-104V256.4ZM-72.4 256V288H-71.6V256H-72.4ZM-72 256.4H-40V255.6H-72V256.4ZM-40.4 256V288H-39.6V256H-40.4ZM-40 256.4H-8V255.6H-40V256.4ZM-8.39999 256V288H-7.60001V256H-8.39999ZM-8 256.4H24V255.6H-8V256.4ZM23.6 256V288H24.4V256H23.6ZM24 256.4H56V255.6H24V256.4ZM55.6 256V288H56.4V256H55.6ZM56 256.4H88V255.6H56V256.4ZM87.6 256V288H88.4V256H87.6ZM88 256.4H120V255.6H88V256.4ZM119.6 256V288H120.4V256H119.6ZM120 256.4H152V255.6H120V256.4ZM151.6 256V288H152.4V256H151.6ZM152 256.4H184V255.6H152V256.4ZM183.6 256V288H184.4V256H183.6ZM184 256.4H216V255.6H184V256.4ZM215.6 256V288H216.4V256H215.6ZM216 256.4H248V255.6H216V256.4ZM247.6 256V288H248.4V256H247.6ZM248 256.4H280V255.6H248V256.4ZM279.6 256V288H280.4V256H279.6ZM280 256.4H312V255.6H280V256.4ZM311.6 256V288H312.4V256H311.6ZM312 256.4H344V255.6H312V256.4ZM343.6 256V288H344.4V256H343.6ZM344 256.4H376V255.6H344V256.4ZM375.6 256V288H376.4V256H375.6ZM376 256.4H408V255.6H376V256.4ZM407.6 256V288H408.4V256H407.6ZM408 256.4H440V255.6H408V256.4ZM439.6 256V288H440.4V256H439.6ZM440 256.4H472V255.6H440V256.4ZM471.6 256V288H472.4V256H471.6ZM472 256.4H504V255.6H472V256.4ZM503.6 256V288H504.4V256H503.6ZM504 256.4H536V255.6H504V256.4ZM535.6 256V288H536.4V256H535.6ZM536 256.4H568V255.6H536V256.4ZM567.6 256V288H568.4V256H567.6ZM568 256.4H600V255.6H568V256.4ZM599.6 256V288H600.4V256H599.6ZM600 256.4H632V255.6H600V256.4ZM631.6 256V288H632.4V256H631.6ZM632 256.4H664V255.6H632V256.4ZM663.6 256V288H664.4V256H663.6ZM664 256.4H696V255.6H664V256.4ZM695.6 256V288H696.4V256H695.6ZM696 256.4H728V255.6H696V256.4ZM727.6 256V288H728.4V256H727.6ZM728 256.4H760V255.6H728V256.4ZM759.6 256V288H760.4V256H759.6ZM760 256.4H792V255.6H760V256.4ZM791.6 256V288H792.4V256H791.6ZM792 256.4H824V255.6H792V256.4ZM823.6 256V288H824.4V256H823.6ZM824 256.4H856V255.6H824V256.4ZM855.6 256V288H856.4V256H855.6ZM856 256.4H888V255.6H856V256.4ZM887.6 256V288H888.4V256H887.6ZM888 256.4H920V255.6H888V256.4ZM919.6 256V288H920.4V256H919.6ZM920 256.4H952V255.6H920V256.4ZM951.6 256V288H952.4V256H951.6ZM952 256.4H984V255.6H952V256.4ZM983.6 256V288H984.4V256H983.6ZM984 256.4H1016V255.6H984V256.4ZM1015.6 256V288H1016.4V256H1015.6ZM1016 256.4H1048V255.6H1016V256.4ZM1047.6 256V288H1048.4V256H1047.6ZM1048 256.4H1080V255.6H1048V256.4ZM1079.6 256V288H1080.4V256H1079.6ZM1080 256.4H1112V255.6H1080V256.4ZM1111.6 256V288H1112.4V256H1111.6ZM1112 256.4H1144V255.6H1112V256.4ZM1143.6 256V288H1144.4V256H1143.6ZM1144 256.4H1176V255.6H1144V256.4ZM1175.6 256V288H1176.4V256H1175.6ZM1176 256.4H1208V255.6H1176V256.4ZM1207.6 256V288H1208.4V256H1207.6ZM1208 256.4H1240V255.6H1208V256.4ZM1239.6 256V288H1240.4V256H1239.6ZM1240 256.4H1272V255.6H1240V256.4ZM1271.6 256V288H1272.4V256H1271.6ZM1272 256.4H1304V255.6H1272V256.4ZM1303.6 256V288H1304.4V256H1303.6ZM1304 256.4H1336V255.6H1304V256.4ZM1335.6 256V288H1336.4V256H1335.6ZM1336 256.4H1368V255.6H1336V256.4ZM1367.6 256V288H1368.4V256H1367.6ZM1368 256.4H1400V255.6H1368V256.4ZM1399.6 256V288H1400.4V256H1399.6ZM1400 256.4H1432V255.6H1400V256.4ZM1431.6 256V288H1432.4V256H1431.6ZM1432 256.4H1464V255.6H1432V256.4ZM1463.6 256V288H1464.4V256H1463.6ZM1464 256.4H1496V255.6H1464V256.4ZM1495.6 256V288H1496.4V256H1495.6ZM1496 256.4H1528V255.6H1496V256.4ZM1527.6 256V288H1528.4V256H1527.6ZM1528 256.4H1560V255.6H1528V256.4ZM-360 224.4H-328V223.6H-360V224.4ZM-328.4 224V256H-327.6V224H-328.4ZM-328 224.4H-296V223.6H-328V224.4ZM-296.4 224V256H-295.6V224H-296.4ZM-296 224.4H-264V223.6H-296V224.4ZM-264.4 224V256H-263.6V224H-264.4ZM-264 224.4H-232V223.6H-264V224.4ZM-232.4 224V256H-231.6V224H-232.4ZM-232 224.4H-200V223.6H-232V224.4ZM-200.4 224V256H-199.6V224H-200.4ZM-200 224.4H-168V223.6H-200V224.4ZM-168.4 224V256H-167.6V224H-168.4ZM-168 224.4H-136V223.6H-168V224.4ZM-136.4 224V256H-135.6V224H-136.4ZM-136 224.4H-104V223.6H-136V224.4ZM-104.4 224V256H-103.6V224H-104.4ZM-104 224.4H-72V223.6H-104V224.4ZM-72.4 224V256H-71.6V224H-72.4ZM-72 224.4H-40V223.6H-72V224.4ZM-40.4 224V256H-39.6V224H-40.4ZM-40 224.4H-8V223.6H-40V224.4ZM-8.39999 224V256H-7.60001V224H-8.39999ZM-8 224.4H24V223.6H-8V224.4ZM23.6 224V256H24.4V224H23.6ZM24 224.4H56V223.6H24V224.4ZM55.6 224V256H56.4V224H55.6ZM56 224.4H88V223.6H56V224.4ZM87.6 224V256H88.4V224H87.6ZM88 224.4H120V223.6H88V224.4ZM119.6 224V256H120.4V224H119.6ZM120 224.4H152V223.6H120V224.4ZM151.6 224V256H152.4V224H151.6ZM152 224.4H184V223.6H152V224.4ZM183.6 224V256H184.4V224H183.6ZM184 224.4H216V223.6H184V224.4ZM215.6 224V256H216.4V224H215.6ZM216 224.4H248V223.6H216V224.4ZM247.6 224V256H248.4V224H247.6ZM248 224.4H280V223.6H248V224.4ZM279.6 224V256H280.4V224H279.6ZM280 224.4H312V223.6H280V224.4ZM311.6 224V256H312.4V224H311.6ZM312 224.4H344V223.6H312V224.4ZM343.6 224V256H344.4V224H343.6ZM344 224.4H376V223.6H344V224.4ZM375.6 224V256H376.4V224H375.6ZM376 224.4H408V223.6H376V224.4ZM407.6 224V256H408.4V224H407.6ZM408 224.4H440V223.6H408V224.4ZM439.6 224V256H440.4V224H439.6ZM440 224.4H472V223.6H440V224.4ZM471.6 224V256H472.4V224H471.6ZM472 224.4H504V223.6H472V224.4ZM503.6 224V256H504.4V224H503.6ZM504 224.4H536V223.6H504V224.4ZM535.6 224V256H536.4V224H535.6ZM536 224.4H568V223.6H536V224.4ZM567.6 224V256H568.4V224H567.6ZM568 224.4H600V223.6H568V224.4ZM599.6 224V256H600.4V224H599.6ZM600 224.4H632V223.6H600V224.4ZM631.6 224V256H632.4V224H631.6ZM632 224.4H664V223.6H632V224.4ZM663.6 224V256H664.4V224H663.6ZM664 224.4H696V223.6H664V224.4ZM695.6 224V256H696.4V224H695.6ZM696 224.4H728V223.6H696V224.4ZM727.6 224V256H728.4V224H727.6ZM728 224.4H760V223.6H728V224.4ZM759.6 224V256H760.4V224H759.6ZM760 224.4H792V223.6H760V224.4ZM791.6 224V256H792.4V224H791.6ZM792 224.4H824V223.6H792V224.4ZM823.6 224V256H824.4V224H823.6ZM824 224.4H856V223.6H824V224.4ZM855.6 224V256H856.4V224H855.6ZM856 224.4H888V223.6H856V224.4ZM887.6 224V256H888.4V224H887.6ZM888 224.4H920V223.6H888V224.4ZM919.6 224V256H920.4V224H919.6ZM920 224.4H952V223.6H920V224.4ZM951.6 224V256H952.4V224H951.6ZM952 224.4H984V223.6H952V224.4ZM983.6 224V256H984.4V224H983.6ZM984 224.4H1016V223.6H984V224.4ZM1015.6 224V256H1016.4V224H1015.6ZM1016 224.4H1048V223.6H1016V224.4ZM1047.6 224V256H1048.4V224H1047.6ZM1048 224.4H1080V223.6H1048V224.4ZM1079.6 224V256H1080.4V224H1079.6ZM1080 224.4H1112V223.6H1080V224.4ZM1111.6 224V256H1112.4V224H1111.6ZM1112 224.4H1144V223.6H1112V224.4ZM1143.6 224V256H1144.4V224H1143.6ZM1144 224.4H1176V223.6H1144V224.4ZM1175.6 224V256H1176.4V224H1175.6ZM1176 224.4H1208V223.6H1176V224.4ZM1207.6 224V256H1208.4V224H1207.6ZM1208 224.4H1240V223.6H1208V224.4ZM1239.6 224V256H1240.4V224H1239.6ZM1240 224.4H1272V223.6H1240V224.4ZM1271.6 224V256H1272.4V224H1271.6ZM1272 224.4H1304V223.6H1272V224.4ZM1303.6 224V256H1304.4V224H1303.6ZM1304 224.4H1336V223.6H1304V224.4ZM1335.6 224V256H1336.4V224H1335.6ZM1336 224.4H1368V223.6H1336V224.4ZM1367.6 224V256H1368.4V224H1367.6ZM1368 224.4H1400V223.6H1368V224.4ZM1399.6 224V256H1400.4V224H1399.6ZM1400 224.4H1432V223.6H1400V224.4ZM1431.6 224V256H1432.4V224H1431.6ZM1432 224.4H1464V223.6H1432V224.4ZM1463.6 224V256H1464.4V224H1463.6ZM1464 224.4H1496V223.6H1464V224.4ZM1495.6 224V256H1496.4V224H1495.6ZM1496 224.4H1528V223.6H1496V224.4ZM1527.6 224V256H1528.4V224H1527.6ZM1528 224.4H1560V223.6H1528V224.4ZM-360 192.4H-328V191.6H-360V192.4ZM-328.4 192V224H-327.6V192H-328.4ZM-328 192.4H-296V191.6H-328V192.4ZM-296.4 192V224H-295.6V192H-296.4ZM-296 192.4H-264V191.6H-296V192.4ZM-264.4 192V224H-263.6V192H-264.4ZM-264 192.4H-232V191.6H-264V192.4ZM-232.4 192V224H-231.6V192H-232.4ZM-232 192.4H-200V191.6H-232V192.4ZM-200.4 192V224H-199.6V192H-200.4ZM-200 192.4H-168V191.6H-200V192.4ZM-168.4 192V224H-167.6V192H-168.4ZM-168 192.4H-136V191.6H-168V192.4ZM-136.4 192V224H-135.6V192H-136.4ZM-136 192.4H-104V191.6H-136V192.4ZM-104.4 192V224H-103.6V192H-104.4ZM-104 192.4H-72V191.6H-104V192.4ZM-72.4 192V224H-71.6V192H-72.4ZM-72 192.4H-40V191.6H-72V192.4ZM-40.4 192V224H-39.6V192H-40.4ZM-40 192.4H-8V191.6H-40V192.4ZM-8.39999 192V224H-7.60001V192H-8.39999ZM-8 192.4H24V191.6H-8V192.4ZM23.6 192V224H24.4V192H23.6ZM24 192.4H56V191.6H24V192.4ZM55.6 192V224H56.4V192H55.6ZM56 192.4H88V191.6H56V192.4ZM87.6 192V224H88.4V192H87.6ZM88 192.4H120V191.6H88V192.4ZM119.6 192V224H120.4V192H119.6ZM120 192.4H152V191.6H120V192.4ZM151.6 192V224H152.4V192H151.6ZM152 192.4H184V191.6H152V192.4ZM183.6 192V224H184.4V192H183.6ZM184 192.4H216V191.6H184V192.4ZM215.6 192V224H216.4V192H215.6ZM216 192.4H248V191.6H216V192.4ZM247.6 192V224H248.4V192H247.6ZM248 192.4H280V191.6H248V192.4ZM279.6 192V224H280.4V192H279.6ZM280 192.4H312V191.6H280V192.4ZM311.6 192V224H312.4V192H311.6ZM312 192.4H344V191.6H312V192.4ZM343.6 192V224H344.4V192H343.6ZM344 192.4H376V191.6H344V192.4ZM375.6 192V224H376.4V192H375.6ZM376 192.4H408V191.6H376V192.4ZM407.6 192V224H408.4V192H407.6ZM408 192.4H440V191.6H408V192.4ZM439.6 192V224H440.4V192H439.6ZM440 192.4H472V191.6H440V192.4ZM471.6 192V224H472.4V192H471.6ZM472 192.4H504V191.6H472V192.4ZM503.6 192V224H504.4V192H503.6ZM504 192.4H536V191.6H504V192.4ZM535.6 192V224H536.4V192H535.6ZM536 192.4H568V191.6H536V192.4ZM567.6 192V224H568.4V192H567.6ZM568 192.4H600V191.6H568V192.4ZM599.6 192V224H600.4V192H599.6ZM600 192.4H632V191.6H600V192.4ZM631.6 192V224H632.4V192H631.6ZM632 192.4H664V191.6H632V192.4ZM663.6 192V224H664.4V192H663.6ZM664 192.4H696V191.6H664V192.4ZM695.6 192V224H696.4V192H695.6ZM696 192.4H728V191.6H696V192.4ZM727.6 192V224H728.4V192H727.6ZM728 192.4H760V191.6H728V192.4ZM759.6 192V224H760.4V192H759.6ZM760 192.4H792V191.6H760V192.4ZM791.6 192V224H792.4V192H791.6ZM792 192.4H824V191.6H792V192.4ZM823.6 192V224H824.4V192H823.6ZM824 192.4H856V191.6H824V192.4ZM855.6 192V224H856.4V192H855.6ZM856 192.4H888V191.6H856V192.4ZM887.6 192V224H888.4V192H887.6ZM888 192.4H920V191.6H888V192.4ZM919.6 192V224H920.4V192H919.6ZM920 192.4H952V191.6H920V192.4ZM951.6 192V224H952.4V192H951.6ZM952 192.4H984V191.6H952V192.4ZM983.6 192V224H984.4V192H983.6ZM984 192.4H1016V191.6H984V192.4ZM1015.6 192V224H1016.4V192H1015.6ZM1016 192.4H1048V191.6H1016V192.4ZM1047.6 192V224H1048.4V192H1047.6ZM1048 192.4H1080V191.6H1048V192.4ZM1079.6 192V224H1080.4V192H1079.6ZM1080 192.4H1112V191.6H1080V192.4ZM1111.6 192V224H1112.4V192H1111.6ZM1112 192.4H1144V191.6H1112V192.4ZM1143.6 192V224H1144.4V192H1143.6ZM1144 192.4H1176V191.6H1144V192.4ZM1175.6 192V224H1176.4V192H1175.6ZM1176 192.4H1208V191.6H1176V192.4ZM1207.6 192V224H1208.4V192H1207.6ZM1208 192.4H1240V191.6H1208V192.4ZM1239.6 192V224H1240.4V192H1239.6ZM1240 192.4H1272V191.6H1240V192.4ZM1271.6 192V224H1272.4V192H1271.6ZM1272 192.4H1304V191.6H1272V192.4ZM1303.6 192V224H1304.4V192H1303.6ZM1304 192.4H1336V191.6H1304V192.4ZM1335.6 192V224H1336.4V192H1335.6ZM1336 192.4H1368V191.6H1336V192.4ZM1367.6 192V224H1368.4V192H1367.6ZM1368 192.4H1400V191.6H1368V192.4ZM1399.6 192V224H1400.4V192H1399.6ZM1400 192.4H1432V191.6H1400V192.4ZM1431.6 192V224H1432.4V192H1431.6ZM1432 192.4H1464V191.6H1432V192.4ZM1463.6 192V224H1464.4V192H1463.6ZM1464 192.4H1496V191.6H1464V192.4ZM1495.6 192V224H1496.4V192H1495.6ZM1496 192.4H1528V191.6H1496V192.4ZM1527.6 192V224H1528.4V192H1527.6ZM1528 192.4H1560V191.6H1528V192.4ZM-360 160.4H-328V159.6H-360V160.4ZM-328.4 160V192H-327.6V160H-328.4ZM-328 160.4H-296V159.6H-328V160.4ZM-296.4 160V192H-295.6V160H-296.4ZM-296 160.4H-264V159.6H-296V160.4ZM-264.4 160V192H-263.6V160H-264.4ZM-264 160.4H-232V159.6H-264V160.4ZM-232.4 160V192H-231.6V160H-232.4ZM-232 160.4H-200V159.6H-232V160.4ZM-200.4 160V192H-199.6V160H-200.4ZM-200 160.4H-168V159.6H-200V160.4ZM-168.4 160V192H-167.6V160H-168.4ZM-168 160.4H-136V159.6H-168V160.4ZM-136.4 160V192H-135.6V160H-136.4ZM-136 160.4H-104V159.6H-136V160.4ZM-104.4 160V192H-103.6V160H-104.4ZM-104 160.4H-72V159.6H-104V160.4ZM-72.4 160V192H-71.6V160H-72.4ZM-72 160.4H-40V159.6H-72V160.4ZM-40.4 160V192H-39.6V160H-40.4ZM-40 160.4H-8V159.6H-40V160.4ZM-8.39999 160V192H-7.60001V160H-8.39999ZM-8 160.4H24V159.6H-8V160.4ZM23.6 160V192H24.4V160H23.6ZM24 160.4H56V159.6H24V160.4ZM55.6 160V192H56.4V160H55.6ZM56 160.4H88V159.6H56V160.4ZM87.6 160V192H88.4V160H87.6ZM88 160.4H120V159.6H88V160.4ZM119.6 160V192H120.4V160H119.6ZM120 160.4H152V159.6H120V160.4ZM151.6 160V192H152.4V160H151.6ZM152 160.4H184V159.6H152V160.4ZM183.6 160V192H184.4V160H183.6ZM184 160.4H216V159.6H184V160.4ZM215.6 160V192H216.4V160H215.6ZM216 160.4H248V159.6H216V160.4ZM247.6 160V192H248.4V160H247.6ZM248 160.4H280V159.6H248V160.4ZM279.6 160V192H280.4V160H279.6ZM280 160.4H312V159.6H280V160.4ZM311.6 160V192H312.4V160H311.6ZM312 160.4H344V159.6H312V160.4ZM343.6 160V192H344.4V160H343.6ZM344 160.4H376V159.6H344V160.4ZM375.6 160V192H376.4V160H375.6ZM376 160.4H408V159.6H376V160.4ZM407.6 160V192H408.4V160H407.6ZM408 160.4H440V159.6H408V160.4ZM439.6 160V192H440.4V160H439.6ZM440 160.4H472V159.6H440V160.4ZM471.6 160V192H472.4V160H471.6ZM472 160.4H504V159.6H472V160.4ZM503.6 160V192H504.4V160H503.6ZM504 160.4H536V159.6H504V160.4ZM535.6 160V192H536.4V160H535.6ZM536 160.4H568V159.6H536V160.4ZM567.6 160V192H568.4V160H567.6ZM568 160.4H600V159.6H568V160.4ZM599.6 160V192H600.4V160H599.6ZM600 160.4H632V159.6H600V160.4ZM631.6 160V192H632.4V160H631.6ZM632 160.4H664V159.6H632V160.4ZM663.6 160V192H664.4V160H663.6ZM664 160.4H696V159.6H664V160.4ZM695.6 160V192H696.4V160H695.6ZM696 160.4H728V159.6H696V160.4ZM727.6 160V192H728.4V160H727.6ZM728 160.4H760V159.6H728V160.4ZM759.6 160V192H760.4V160H759.6ZM760 160.4H792V159.6H760V160.4ZM791.6 160V192H792.4V160H791.6ZM792 160.4H824V159.6H792V160.4ZM823.6 160V192H824.4V160H823.6ZM824 160.4H856V159.6H824V160.4ZM855.6 160V192H856.4V160H855.6ZM856 160.4H888V159.6H856V160.4ZM887.6 160V192H888.4V160H887.6ZM888 160.4H920V159.6H888V160.4ZM919.6 160V192H920.4V160H919.6ZM920 160.4H952V159.6H920V160.4ZM951.6 160V192H952.4V160H951.6ZM952 160.4H984V159.6H952V160.4ZM983.6 160V192H984.4V160H983.6ZM984 160.4H1016V159.6H984V160.4ZM1015.6 160V192H1016.4V160H1015.6ZM1016 160.4H1048V159.6H1016V160.4ZM1047.6 160V192H1048.4V160H1047.6ZM1048 160.4H1080V159.6H1048V160.4ZM1079.6 160V192H1080.4V160H1079.6ZM1080 160.4H1112V159.6H1080V160.4ZM1111.6 160V192H1112.4V160H1111.6ZM1112 160.4H1144V159.6H1112V160.4ZM1143.6 160V192H1144.4V160H1143.6ZM1144 160.4H1176V159.6H1144V160.4ZM1175.6 160V192H1176.4V160H1175.6ZM1176 160.4H1208V159.6H1176V160.4ZM1207.6 160V192H1208.4V160H1207.6ZM1208 160.4H1240V159.6H1208V160.4ZM1239.6 160V192H1240.4V160H1239.6ZM1240 160.4H1272V159.6H1240V160.4ZM1271.6 160V192H1272.4V160H1271.6ZM1272 160.4H1304V159.6H1272V160.4ZM1303.6 160V192H1304.4V160H1303.6ZM1304 160.4H1336V159.6H1304V160.4ZM1335.6 160V192H1336.4V160H1335.6ZM1336 160.4H1368V159.6H1336V160.4ZM1367.6 160V192H1368.4V160H1367.6ZM1368 160.4H1400V159.6H1368V160.4ZM1399.6 160V192H1400.4V160H1399.6ZM1400 160.4H1432V159.6H1400V160.4ZM1431.6 160V192H1432.4V160H1431.6ZM1432 160.4H1464V159.6H1432V160.4ZM1463.6 160V192H1464.4V160H1463.6ZM1464 160.4H1496V159.6H1464V160.4ZM1495.6 160V192H1496.4V160H1495.6ZM1496 160.4H1528V159.6H1496V160.4ZM1527.6 160V192H1528.4V160H1527.6ZM1528 160.4H1560V159.6H1528V160.4ZM-360 128.4H-328V127.6H-360V128.4ZM-328.4 128V160H-327.6V128H-328.4ZM-328 128.4H-296V127.6H-328V128.4ZM-296.4 128V160H-295.6V128H-296.4ZM-296 128.4H-264V127.6H-296V128.4ZM-264.4 128V160H-263.6V128H-264.4ZM-264 128.4H-232V127.6H-264V128.4ZM-232.4 128V160H-231.6V128H-232.4ZM-232 128.4H-200V127.6H-232V128.4ZM-200.4 128V160H-199.6V128H-200.4ZM-200 128.4H-168V127.6H-200V128.4ZM-168.4 128V160H-167.6V128H-168.4ZM-168 128.4H-136V127.6H-168V128.4ZM-136.4 128V160H-135.6V128H-136.4ZM-136 128.4H-104V127.6H-136V128.4ZM-104.4 128V160H-103.6V128H-104.4ZM-104 128.4H-72V127.6H-104V128.4ZM-72.4 128V160H-71.6V128H-72.4ZM-72 128.4H-40V127.6H-72V128.4ZM-40.4 128V160H-39.6V128H-40.4ZM-40 128.4H-8V127.6H-40V128.4ZM-8.39999 128V160H-7.60001V128H-8.39999ZM-8 128.4H24V127.6H-8V128.4ZM23.6 128V160H24.4V128H23.6ZM24 128.4H56V127.6H24V128.4ZM55.6 128V160H56.4V128H55.6ZM56 128.4H88V127.6H56V128.4ZM87.6 128V160H88.4V128H87.6ZM88 128.4H120V127.6H88V128.4ZM119.6 128V160H120.4V128H119.6ZM120 128.4H152V127.6H120V128.4ZM151.6 128V160H152.4V128H151.6ZM152 128.4H184V127.6H152V128.4ZM183.6 128V160H184.4V128H183.6ZM184 128.4H216V127.6H184V128.4ZM215.6 128V160H216.4V128H215.6ZM216 128.4H248V127.6H216V128.4ZM247.6 128V160H248.4V128H247.6ZM248 128.4H280V127.6H248V128.4ZM279.6 128V160H280.4V128H279.6ZM280 128.4H312V127.6H280V128.4ZM311.6 128V160H312.4V128H311.6ZM312 128.4H344V127.6H312V128.4ZM343.6 128V160H344.4V128H343.6ZM344 128.4H376V127.6H344V128.4ZM375.6 128V160H376.4V128H375.6ZM376 128.4H408V127.6H376V128.4ZM407.6 128V160H408.4V128H407.6ZM408 128.4H440V127.6H408V128.4ZM439.6 128V160H440.4V128H439.6ZM440 128.4H472V127.6H440V128.4ZM471.6 128V160H472.4V128H471.6ZM472 128.4H504V127.6H472V128.4ZM503.6 128V160H504.4V128H503.6ZM504 128.4H536V127.6H504V128.4ZM535.6 128V160H536.4V128H535.6ZM536 128.4H568V127.6H536V128.4ZM567.6 128V160H568.4V128H567.6ZM568 128.4H600V127.6H568V128.4ZM599.6 128V160H600.4V128H599.6ZM600 128.4H632V127.6H600V128.4ZM631.6 128V160H632.4V128H631.6ZM632 128.4H664V127.6H632V128.4ZM663.6 128V160H664.4V128H663.6ZM664 128.4H696V127.6H664V128.4ZM695.6 128V160H696.4V128H695.6ZM696 128.4H728V127.6H696V128.4ZM727.6 128V160H728.4V128H727.6ZM728 128.4H760V127.6H728V128.4ZM759.6 128V160H760.4V128H759.6ZM760 128.4H792V127.6H760V128.4ZM791.6 128V160H792.4V128H791.6ZM792 128.4H824V127.6H792V128.4ZM823.6 128V160H824.4V128H823.6ZM824 128.4H856V127.6H824V128.4ZM855.6 128V160H856.4V128H855.6ZM856 128.4H888V127.6H856V128.4ZM887.6 128V160H888.4V128H887.6ZM888 128.4H920V127.6H888V128.4ZM919.6 128V160H920.4V128H919.6ZM920 128.4H952V127.6H920V128.4ZM951.6 128V160H952.4V128H951.6ZM952 128.4H984V127.6H952V128.4ZM983.6 128V160H984.4V128H983.6ZM984 128.4H1016V127.6H984V128.4ZM1015.6 128V160H1016.4V128H1015.6ZM1016 128.4H1048V127.6H1016V128.4ZM1047.6 128V160H1048.4V128H1047.6ZM1048 128.4H1080V127.6H1048V128.4ZM1079.6 128V160H1080.4V128H1079.6ZM1080 128.4H1112V127.6H1080V128.4ZM1111.6 128V160H1112.4V128H1111.6ZM1112 128.4H1144V127.6H1112V128.4ZM1143.6 128V160H1144.4V128H1143.6ZM1144 128.4H1176V127.6H1144V128.4ZM1175.6 128V160H1176.4V128H1175.6ZM1176 128.4H1208V127.6H1176V128.4ZM1207.6 128V160H1208.4V128H1207.6ZM1208 128.4H1240V127.6H1208V128.4ZM1239.6 128V160H1240.4V128H1239.6ZM1240 128.4H1272V127.6H1240V128.4ZM1271.6 128V160H1272.4V128H1271.6ZM1272 128.4H1304V127.6H1272V128.4ZM1303.6 128V160H1304.4V128H1303.6ZM1304 128.4H1336V127.6H1304V128.4ZM1335.6 128V160H1336.4V128H1335.6ZM1336 128.4H1368V127.6H1336V128.4ZM1367.6 128V160H1368.4V128H1367.6ZM1368 128.4H1400V127.6H1368V128.4ZM1399.6 128V160H1400.4V128H1399.6ZM1400 128.4H1432V127.6H1400V128.4ZM1431.6 128V160H1432.4V128H1431.6ZM1432 128.4H1464V127.6H1432V128.4ZM1463.6 128V160H1464.4V128H1463.6ZM1464 128.4H1496V127.6H1464V128.4ZM1495.6 128V160H1496.4V128H1495.6ZM1496 128.4H1528V127.6H1496V128.4ZM1527.6 128V160H1528.4V128H1527.6ZM1528 128.4H1560V127.6H1528V128.4ZM-360 96.4H-328V95.6H-360V96.4ZM-328.4 96V128H-327.6V96H-328.4ZM-328 96.4H-296V95.6H-328V96.4ZM-296.4 96V128H-295.6V96H-296.4ZM-296 96.4H-264V95.6H-296V96.4ZM-264.4 96V128H-263.6V96H-264.4ZM-264 96.4H-232V95.6H-264V96.4ZM-232.4 96V128H-231.6V96H-232.4ZM-232 96.4H-200V95.6H-232V96.4ZM-200.4 96V128H-199.6V96H-200.4ZM-200 96.4H-168V95.6H-200V96.4ZM-168.4 96V128H-167.6V96H-168.4ZM-168 96.4H-136V95.6H-168V96.4ZM-136.4 96V128H-135.6V96H-136.4ZM-136 96.4H-104V95.6H-136V96.4ZM-104.4 96V128H-103.6V96H-104.4ZM-104 96.4H-72V95.6H-104V96.4ZM-72.4 96V128H-71.6V96H-72.4ZM-72 96.4H-40V95.6H-72V96.4ZM-40.4 96V128H-39.6V96H-40.4ZM-40 96.4H-8V95.6H-40V96.4ZM-8.39999 96V128H-7.60001V96H-8.39999ZM-8 96.4H24V95.6H-8V96.4ZM23.6 96V128H24.4V96H23.6ZM24 96.4H56V95.6H24V96.4ZM55.6 96V128H56.4V96H55.6ZM56 96.4H88V95.6H56V96.4ZM87.6 96V128H88.4V96H87.6ZM88 96.4H120V95.6H88V96.4ZM119.6 96V128H120.4V96H119.6ZM120 96.4H152V95.6H120V96.4ZM151.6 96V128H152.4V96H151.6ZM152 96.4H184V95.6H152V96.4ZM183.6 96V128H184.4V96H183.6ZM184 96.4H216V95.6H184V96.4ZM215.6 96V128H216.4V96H215.6ZM216 96.4H248V95.6H216V96.4ZM247.6 96V128H248.4V96H247.6ZM248 96.4H280V95.6H248V96.4ZM279.6 96V128H280.4V96H279.6ZM280 96.4H312V95.6H280V96.4ZM311.6 96V128H312.4V96H311.6ZM312 96.4H344V95.6H312V96.4ZM343.6 96V128H344.4V96H343.6ZM344 96.4H376V95.6H344V96.4ZM375.6 96V128H376.4V96H375.6ZM376 96.4H408V95.6H376V96.4ZM407.6 96V128H408.4V96H407.6ZM408 96.4H440V95.6H408V96.4ZM439.6 96V128H440.4V96H439.6ZM440 96.4H472V95.6H440V96.4ZM471.6 96V128H472.4V96H471.6ZM472 96.4H504V95.6H472V96.4ZM503.6 96V128H504.4V96H503.6ZM504 96.4H536V95.6H504V96.4ZM535.6 96V128H536.4V96H535.6ZM536 96.4H568V95.6H536V96.4ZM567.6 96V128H568.4V96H567.6ZM568 96.4H600V95.6H568V96.4ZM599.6 96V128H600.4V96H599.6ZM600 96.4H632V95.6H600V96.4ZM631.6 96V128H632.4V96H631.6ZM632 96.4H664V95.6H632V96.4ZM663.6 96V128H664.4V96H663.6ZM664 96.4H696V95.6H664V96.4ZM695.6 96V128H696.4V96H695.6ZM696 96.4H728V95.6H696V96.4ZM727.6 96V128H728.4V96H727.6ZM728 96.4H760V95.6H728V96.4ZM759.6 96V128H760.4V96H759.6ZM760 96.4H792V95.6H760V96.4ZM791.6 96V128H792.4V96H791.6ZM792 96.4H824V95.6H792V96.4ZM823.6 96V128H824.4V96H823.6ZM824 96.4H856V95.6H824V96.4ZM855.6 96V128H856.4V96H855.6ZM856 96.4H888V95.6H856V96.4ZM887.6 96V128H888.4V96H887.6ZM888 96.4H920V95.6H888V96.4ZM919.6 96V128H920.4V96H919.6ZM920 96.4H952V95.6H920V96.4ZM951.6 96V128H952.4V96H951.6ZM952 96.4H984V95.6H952V96.4ZM983.6 96V128H984.4V96H983.6ZM984 96.4H1016V95.6H984V96.4ZM1015.6 96V128H1016.4V96H1015.6ZM1016 96.4H1048V95.6H1016V96.4ZM1047.6 96V128H1048.4V96H1047.6ZM1048 96.4H1080V95.6H1048V96.4ZM1079.6 96V128H1080.4V96H1079.6ZM1080 96.4H1112V95.6H1080V96.4ZM1111.6 96V128H1112.4V96H1111.6ZM1112 96.4H1144V95.6H1112V96.4ZM1143.6 96V128H1144.4V96H1143.6ZM1144 96.4H1176V95.6H1144V96.4ZM1175.6 96V128H1176.4V96H1175.6ZM1176 96.4H1208V95.6H1176V96.4ZM1207.6 96V128H1208.4V96H1207.6ZM1208 96.4H1240V95.6H1208V96.4ZM1239.6 96V128H1240.4V96H1239.6ZM1240 96.4H1272V95.6H1240V96.4ZM1271.6 96V128H1272.4V96H1271.6ZM1272 96.4H1304V95.6H1272V96.4ZM1303.6 96V128H1304.4V96H1303.6ZM1304 96.4H1336V95.6H1304V96.4ZM1335.6 96V128H1336.4V96H1335.6ZM1336 96.4H1368V95.6H1336V96.4ZM1367.6 96V128H1368.4V96H1367.6ZM1368 96.4H1400V95.6H1368V96.4ZM1399.6 96V128H1400.4V96H1399.6ZM1400 96.4H1432V95.6H1400V96.4ZM1431.6 96V128H1432.4V96H1431.6ZM1432 96.4H1464V95.6H1432V96.4ZM1463.6 96V128H1464.4V96H1463.6ZM1464 96.4H1496V95.6H1464V96.4ZM1495.6 96V128H1496.4V96H1495.6ZM1496 96.4H1528V95.6H1496V96.4ZM1527.6 96V128H1528.4V96H1527.6ZM1528 96.4H1560V95.6H1528V96.4ZM-360 64.4H-328V63.6H-360V64.4ZM-328.4 64V96H-327.6V64H-328.4ZM-328 64.4H-296V63.6H-328V64.4ZM-296.4 64V96H-295.6V64H-296.4ZM-296 64.4H-264V63.6H-296V64.4ZM-264.4 64V96H-263.6V64H-264.4ZM-264 64.4H-232V63.6H-264V64.4ZM-232.4 64V96H-231.6V64H-232.4ZM-232 64.4H-200V63.6H-232V64.4ZM-200.4 64V96H-199.6V64H-200.4ZM-200 64.4H-168V63.6H-200V64.4ZM-168.4 64V96H-167.6V64H-168.4ZM-168 64.4H-136V63.6H-168V64.4ZM-136.4 64V96H-135.6V64H-136.4ZM-136 64.4H-104V63.6H-136V64.4ZM-104.4 64V96H-103.6V64H-104.4ZM-104 64.4H-72V63.6H-104V64.4ZM-72.4 64V96H-71.6V64H-72.4ZM-72 64.4H-40V63.6H-72V64.4ZM-40.4 64V96H-39.6V64H-40.4ZM-40 64.4H-8V63.6H-40V64.4ZM-8.39999 64V96H-7.60001V64H-8.39999ZM-8 64.4H24V63.6H-8V64.4ZM23.6 64V96H24.4V64H23.6ZM24 64.4H56V63.6H24V64.4ZM55.6 64V96H56.4V64H55.6ZM56 64.4H88V63.6H56V64.4ZM87.6 64V96H88.4V64H87.6ZM88 64.4H120V63.6H88V64.4ZM119.6 64V96H120.4V64H119.6ZM120 64.4H152V63.6H120V64.4ZM151.6 64V96H152.4V64H151.6ZM152 64.4H184V63.6H152V64.4ZM183.6 64V96H184.4V64H183.6ZM184 64.4H216V63.6H184V64.4ZM215.6 64V96H216.4V64H215.6ZM216 64.4H248V63.6H216V64.4ZM247.6 64V96H248.4V64H247.6ZM248 64.4H280V63.6H248V64.4ZM279.6 64V96H280.4V64H279.6ZM280 64.4H312V63.6H280V64.4ZM311.6 64V96H312.4V64H311.6ZM312 64.4H344V63.6H312V64.4ZM343.6 64V96H344.4V64H343.6ZM344 64.4H376V63.6H344V64.4ZM375.6 64V96H376.4V64H375.6ZM376 64.4H408V63.6H376V64.4ZM407.6 64V96H408.4V64H407.6ZM408 64.4H440V63.6H408V64.4ZM439.6 64V96H440.4V64H439.6ZM440 64.4H472V63.6H440V64.4ZM471.6 64V96H472.4V64H471.6ZM472 64.4H504V63.6H472V64.4ZM503.6 64V96H504.4V64H503.6ZM504 64.4H536V63.6H504V64.4ZM535.6 64V96H536.4V64H535.6ZM536 64.4H568V63.6H536V64.4ZM567.6 64V96H568.4V64H567.6ZM568 64.4H600V63.6H568V64.4ZM599.6 64V96H600.4V64H599.6ZM600 64.4H632V63.6H600V64.4ZM631.6 64V96H632.4V64H631.6ZM632 64.4H664V63.6H632V64.4ZM663.6 64V96H664.4V64H663.6ZM664 64.4H696V63.6H664V64.4ZM695.6 64V96H696.4V64H695.6ZM696 64.4H728V63.6H696V64.4ZM727.6 64V96H728.4V64H727.6ZM728 64.4H760V63.6H728V64.4ZM759.6 64V96H760.4V64H759.6ZM760 64.4H792V63.6H760V64.4ZM791.6 64V96H792.4V64H791.6ZM792 64.4H824V63.6H792V64.4ZM823.6 64V96H824.4V64H823.6ZM824 64.4H856V63.6H824V64.4ZM855.6 64V96H856.4V64H855.6ZM856 64.4H888V63.6H856V64.4ZM887.6 64V96H888.4V64H887.6ZM888 64.4H920V63.6H888V64.4ZM919.6 64V96H920.4V64H919.6ZM920 64.4H952V63.6H920V64.4ZM951.6 64V96H952.4V64H951.6ZM952 64.4H984V63.6H952V64.4ZM983.6 64V96H984.4V64H983.6ZM984 64.4H1016V63.6H984V64.4ZM1015.6 64V96H1016.4V64H1015.6ZM1016 64.4H1048V63.6H1016V64.4ZM1047.6 64V96H1048.4V64H1047.6ZM1048 64.4H1080V63.6H1048V64.4ZM1079.6 64V96H1080.4V64H1079.6ZM1080 64.4H1112V63.6H1080V64.4ZM1111.6 64V96H1112.4V64H1111.6ZM1112 64.4H1144V63.6H1112V64.4ZM1143.6 64V96H1144.4V64H1143.6ZM1144 64.4H1176V63.6H1144V64.4ZM1175.6 64V96H1176.4V64H1175.6ZM1176 64.4H1208V63.6H1176V64.4ZM1207.6 64V96H1208.4V64H1207.6ZM1208 64.4H1240V63.6H1208V64.4ZM1239.6 64V96H1240.4V64H1239.6ZM1240 64.4H1272V63.6H1240V64.4ZM1271.6 64V96H1272.4V64H1271.6ZM1272 64.4H1304V63.6H1272V64.4ZM1303.6 64V96H1304.4V64H1303.6ZM1304 64.4H1336V63.6H1304V64.4ZM1335.6 64V96H1336.4V64H1335.6ZM1336 64.4H1368V63.6H1336V64.4ZM1367.6 64V96H1368.4V64H1367.6ZM1368 64.4H1400V63.6H1368V64.4ZM1399.6 64V96H1400.4V64H1399.6ZM1400 64.4H1432V63.6H1400V64.4ZM1431.6 64V96H1432.4V64H1431.6ZM1432 64.4H1464V63.6H1432V64.4ZM1463.6 64V96H1464.4V64H1463.6ZM1464 64.4H1496V63.6H1464V64.4ZM1495.6 64V96H1496.4V64H1495.6ZM1496 64.4H1528V63.6H1496V64.4ZM1527.6 64V96H1528.4V64H1527.6ZM1528 64.4H1560V63.6H1528V64.4ZM-360 32.4H-328V31.6H-360V32.4ZM-328.4 32V64H-327.6V32H-328.4ZM-328 32.4H-296V31.6H-328V32.4ZM-296.4 32V64H-295.6V32H-296.4ZM-296 32.4H-264V31.6H-296V32.4ZM-264.4 32V64H-263.6V32H-264.4ZM-264 32.4H-232V31.6H-264V32.4ZM-232.4 32V64H-231.6V32H-232.4ZM-232 32.4H-200V31.6H-232V32.4ZM-200.4 32V64H-199.6V32H-200.4ZM-200 32.4H-168V31.6H-200V32.4ZM-168.4 32V64H-167.6V32H-168.4ZM-168 32.4H-136V31.6H-168V32.4ZM-136.4 32V64H-135.6V32H-136.4ZM-136 32.4H-104V31.6H-136V32.4ZM-104.4 32V64H-103.6V32H-104.4ZM-104 32.4H-72V31.6H-104V32.4ZM-72.4 32V64H-71.6V32H-72.4ZM-72 32.4H-40V31.6H-72V32.4ZM-40.4 32V64H-39.6V32H-40.4ZM-40 32.4H-8V31.6H-40V32.4ZM-8.39999 32V64H-7.60001V32H-8.39999ZM-8 32.4H24V31.6H-8V32.4ZM23.6 32V64H24.4V32H23.6ZM24 32.4H56V31.6H24V32.4ZM55.6 32V64H56.4V32H55.6ZM56 32.4H88V31.6H56V32.4ZM87.6 32V64H88.4V32H87.6ZM88 32.4H120V31.6H88V32.4ZM119.6 32V64H120.4V32H119.6ZM120 32.4H152V31.6H120V32.4ZM151.6 32V64H152.4V32H151.6ZM152 32.4H184V31.6H152V32.4ZM183.6 32V64H184.4V32H183.6ZM184 32.4H216V31.6H184V32.4ZM215.6 32V64H216.4V32H215.6ZM216 32.4H248V31.6H216V32.4ZM247.6 32V64H248.4V32H247.6ZM248 32.4H280V31.6H248V32.4ZM279.6 32V64H280.4V32H279.6ZM280 32.4H312V31.6H280V32.4ZM311.6 32V64H312.4V32H311.6ZM312 32.4H344V31.6H312V32.4ZM343.6 32V64H344.4V32H343.6ZM344 32.4H376V31.6H344V32.4ZM375.6 32V64H376.4V32H375.6ZM376 32.4H408V31.6H376V32.4ZM407.6 32V64H408.4V32H407.6ZM408 32.4H440V31.6H408V32.4ZM439.6 32V64H440.4V32H439.6ZM440 32.4H472V31.6H440V32.4ZM471.6 32V64H472.4V32H471.6ZM472 32.4H504V31.6H472V32.4ZM503.6 32V64H504.4V32H503.6ZM504 32.4H536V31.6H504V32.4ZM535.6 32V64H536.4V32H535.6ZM536 32.4H568V31.6H536V32.4ZM567.6 32V64H568.4V32H567.6ZM568 32.4H600V31.6H568V32.4ZM599.6 32V64H600.4V32H599.6ZM600 32.4H632V31.6H600V32.4ZM631.6 32V64H632.4V32H631.6ZM632 32.4H664V31.6H632V32.4ZM663.6 32V64H664.4V32H663.6ZM664 32.4H696V31.6H664V32.4ZM695.6 32V64H696.4V32H695.6ZM696 32.4H728V31.6H696V32.4ZM727.6 32V64H728.4V32H727.6ZM728 32.4H760V31.6H728V32.4ZM759.6 32V64H760.4V32H759.6ZM760 32.4H792V31.6H760V32.4ZM791.6 32V64H792.4V32H791.6ZM792 32.4H824V31.6H792V32.4ZM823.6 32V64H824.4V32H823.6ZM824 32.4H856V31.6H824V32.4ZM855.6 32V64H856.4V32H855.6ZM856 32.4H888V31.6H856V32.4ZM887.6 32V64H888.4V32H887.6ZM888 32.4H920V31.6H888V32.4ZM919.6 32V64H920.4V32H919.6ZM920 32.4H952V31.6H920V32.4ZM951.6 32V64H952.4V32H951.6ZM952 32.4H984V31.6H952V32.4ZM983.6 32V64H984.4V32H983.6ZM984 32.4H1016V31.6H984V32.4ZM1015.6 32V64H1016.4V32H1015.6ZM1016 32.4H1048V31.6H1016V32.4ZM1047.6 32V64H1048.4V32H1047.6ZM1048 32.4H1080V31.6H1048V32.4ZM1079.6 32V64H1080.4V32H1079.6ZM1080 32.4H1112V31.6H1080V32.4ZM1111.6 32V64H1112.4V32H1111.6ZM1112 32.4H1144V31.6H1112V32.4ZM1143.6 32V64H1144.4V32H1143.6ZM1144 32.4H1176V31.6H1144V32.4ZM1175.6 32V64H1176.4V32H1175.6ZM1176 32.4H1208V31.6H1176V32.4ZM1207.6 32V64H1208.4V32H1207.6ZM1208 32.4H1240V31.6H1208V32.4ZM1239.6 32V64H1240.4V32H1239.6ZM1240 32.4H1272V31.6H1240V32.4ZM1271.6 32V64H1272.4V32H1271.6ZM1272 32.4H1304V31.6H1272V32.4ZM1303.6 32V64H1304.4V32H1303.6ZM1304 32.4H1336V31.6H1304V32.4ZM1335.6 32V64H1336.4V32H1335.6ZM1336 32.4H1368V31.6H1336V32.4ZM1367.6 32V64H1368.4V32H1367.6ZM1368 32.4H1400V31.6H1368V32.4ZM1399.6 32V64H1400.4V32H1399.6ZM1400 32.4H1432V31.6H1400V32.4ZM1431.6 32V64H1432.4V32H1431.6ZM1432 32.4H1464V31.6H1432V32.4ZM1463.6 32V64H1464.4V32H1463.6ZM1464 32.4H1496V31.6H1464V32.4ZM1495.6 32V64H1496.4V32H1495.6ZM1496 32.4H1528V31.6H1496V32.4ZM1527.6 32V64H1528.4V32H1527.6ZM1528 32.4H1560V31.6H1528V32.4ZM-328.4 0V32H-327.6V0H-328.4ZM-296.4 0V32H-295.6V0H-296.4ZM-264.4 0V32H-263.6V0H-264.4ZM-232.4 0V32H-231.6V0H-232.4ZM-200.4 0V32H-199.6V0H-200.4ZM-168.4 0V32H-167.6V0H-168.4ZM-136.4 0V32H-135.6V0H-136.4ZM-104.4 0V32H-103.6V0H-104.4ZM-72.4 0V32H-71.6V0H-72.4ZM-40.4 0V32H-39.6V0H-40.4ZM-8.39999 0V32H-7.60001V0H-8.39999ZM23.6 0V32H24.4V0H23.6ZM55.6 0V32H56.4V0H55.6ZM87.6 0V32H88.4V0H87.6ZM119.6 0V32H120.4V0H119.6ZM151.6 0V32H152.4V0H151.6ZM183.6 0V32H184.4V0H183.6ZM215.6 0V32H216.4V0H215.6ZM247.6 0V32H248.4V0H247.6ZM279.6 0V32H280.4V0H279.6ZM311.6 0V32H312.4V0H311.6ZM343.6 0V32H344.4V0H343.6ZM375.6 0V32H376.4V0H375.6ZM407.6 0V32H408.4V0H407.6ZM439.6 0V32H440.4V0H439.6ZM471.6 0V32H472.4V0H471.6ZM503.6 0V32H504.4V0H503.6ZM535.6 0V32H536.4V0H535.6ZM567.6 0V32H568.4V0H567.6ZM599.6 0V32H600.4V0H599.6ZM631.6 0V32H632.4V0H631.6ZM663.6 0V32H664.4V0H663.6ZM695.6 0V32H696.4V0H695.6ZM727.6 0V32H728.4V0H727.6ZM759.6 0V32H760.4V0H759.6ZM791.6 0V32H792.4V0H791.6ZM823.6 0V32H824.4V0H823.6ZM855.6 0V32H856.4V0H855.6ZM887.6 0V32H888.4V0H887.6ZM919.6 0V32H920.4V0H919.6ZM951.6 0V32H952.4V0H951.6ZM983.6 0V32H984.4V0H983.6ZM1015.6 0V32H1016.4V0H1015.6ZM1047.6 0V32H1048.4V0H1047.6ZM1079.6 0V32H1080.4V0H1079.6ZM1111.6 0V32H1112.4V0H1111.6ZM1143.6 0V32H1144.4V0H1143.6ZM1175.6 0V32H1176.4V0H1175.6ZM1207.6 0V32H1208.4V0H1207.6ZM1239.6 0V32H1240.4V0H1239.6ZM1271.6 0V32H1272.4V0H1271.6ZM1303.6 0V32H1304.4V0H1303.6ZM1335.6 0V32H1336.4V0H1335.6ZM1367.6 0V32H1368.4V0H1367.6ZM1399.6 0V32H1400.4V0H1399.6ZM1431.6 0V32H1432.4V0H1431.6ZM1463.6 0V32H1464.4V0H1463.6ZM1495.6 0V32H1496.4V0H1495.6ZM1527.6 0V32H1528.4V0H1527.6ZM-360 320H-360.8V320.8H-360V320ZM1560 320V320.8H1560.8V320H1560ZM-360 0V-0.8H-360.8V0H-360ZM1560 0H1560.8V-0.8H1560V0ZM-328 319.2H-360V320.8H-328V319.2ZM-359.2 320V288H-360.8V320H-359.2ZM-296 319.2H-328V320.8H-296V319.2ZM-264 319.2H-296V320.8H-264V319.2ZM-232 319.2H-264V320.8H-232V319.2ZM-200 319.2H-232V320.8H-200V319.2ZM-168 319.2H-200V320.8H-168V319.2ZM-136 319.2H-168V320.8H-136V319.2ZM-104 319.2H-136V320.8H-104V319.2ZM-72 319.2H-104V320.8H-72V319.2ZM-40 319.2H-72V320.8H-40V319.2ZM-8 319.2H-40V320.8H-8V319.2ZM24 319.2H-8V320.8H24V319.2ZM56 319.2H24V320.8H56V319.2ZM88 319.2H56V320.8H88V319.2ZM120 319.2H88V320.8H120V319.2ZM152 319.2H120V320.8H152V319.2ZM184 319.2H152V320.8H184V319.2ZM216 319.2H184V320.8H216V319.2ZM248 319.2H216V320.8H248V319.2ZM280 319.2H248V320.8H280V319.2ZM312 319.2H280V320.8H312V319.2ZM344 319.2H312V320.8H344V319.2ZM376 319.2H344V320.8H376V319.2ZM408 319.2H376V320.8H408V319.2ZM440 319.2H408V320.8H440V319.2ZM472 319.2H440V320.8H472V319.2ZM504 319.2H472V320.8H504V319.2ZM536 319.2H504V320.8H536V319.2ZM568 319.2H536V320.8H568V319.2ZM600 319.2H568V320.8H600V319.2ZM632 319.2H600V320.8H632V319.2ZM664 319.2H632V320.8H664V319.2ZM696 319.2H664V320.8H696V319.2ZM728 319.2H696V320.8H728V319.2ZM760 319.2H728V320.8H760V319.2ZM792 319.2H760V320.8H792V319.2ZM824 319.2H792V320.8H824V319.2ZM856 319.2H824V320.8H856V319.2ZM888 319.2H856V320.8H888V319.2ZM920 319.2H888V320.8H920V319.2ZM952 319.2H920V320.8H952V319.2ZM984 319.2H952V320.8H984V319.2ZM1016 319.2H984V320.8H1016V319.2ZM1048 319.2H1016V320.8H1048V319.2ZM1080 319.2H1048V320.8H1080V319.2ZM1112 319.2H1080V320.8H1112V319.2ZM1144 319.2H1112V320.8H1144V319.2ZM1176 319.2H1144V320.8H1176V319.2ZM1208 319.2H1176V320.8H1208V319.2ZM1240 319.2H1208V320.8H1240V319.2ZM1272 319.2H1240V320.8H1272V319.2ZM1304 319.2H1272V320.8H1304V319.2ZM1336 319.2H1304V320.8H1336V319.2ZM1368 319.2H1336V320.8H1368V319.2ZM1400 319.2H1368V320.8H1400V319.2ZM1432 319.2H1400V320.8H1432V319.2ZM1464 319.2H1432V320.8H1464V319.2ZM1496 319.2H1464V320.8H1496V319.2ZM1528 319.2H1496V320.8H1528V319.2ZM1559.2 288V320H1560.8V288H1559.2ZM1560 319.2H1528V320.8H1560V319.2ZM-359.2 288V256H-360.8V288H-359.2ZM1559.2 256V288H1560.8V256H1559.2ZM-359.2 256V224H-360.8V256H-359.2ZM1559.2 224V256H1560.8V224H1559.2ZM-359.2 224V192H-360.8V224H-359.2ZM1559.2 192V224H1560.8V192H1559.2ZM-359.2 192V160H-360.8V192H-359.2ZM1559.2 160V192H1560.8V160H1559.2ZM-359.2 160V128H-360.8V160H-359.2ZM1559.2 128V160H1560.8V128H1559.2ZM-359.2 128V96H-360.8V128H-359.2ZM1559.2 96V128H1560.8V96H1559.2ZM-359.2 96V64H-360.8V96H-359.2ZM1559.2 64V96H1560.8V64H1559.2ZM-359.2 64V32H-360.8V64H-359.2ZM1559.2 32V64H1560.8V32H1559.2ZM-360 0.8H-328V-0.8H-360V0.8ZM-359.2 32V0H-360.8V32H-359.2ZM-328 0.8H-296V-0.8H-328V0.8ZM-296 0.8H-264V-0.8H-296V0.8ZM-264 0.8H-232V-0.8H-264V0.8ZM-232 0.8H-200V-0.8H-232V0.8ZM-200 0.8H-168V-0.8H-200V0.8ZM-168 0.8H-136V-0.8H-168V0.8ZM-136 0.8H-104V-0.8H-136V0.8ZM-104 0.8H-72V-0.8H-104V0.8ZM-72 0.8H-40V-0.8H-72V0.8ZM-40 0.8H-8V-0.8H-40V0.8ZM-8 0.8H24V-0.8H-8V0.8ZM24 0.8H56V-0.8H24V0.8ZM56 0.8H88V-0.8H56V0.8ZM88 0.8H120V-0.8H88V0.8ZM120 0.8H152V-0.8H120V0.8ZM152 0.8H184V-0.8H152V0.8ZM184 0.8H216V-0.8H184V0.8ZM216 0.8H248V-0.8H216V0.8ZM248 0.8H280V-0.8H248V0.8ZM280 0.8H312V-0.8H280V0.8ZM312 0.8H344V-0.8H312V0.8ZM344 0.8H376V-0.8H344V0.8ZM376 0.8H408V-0.8H376V0.8ZM408 0.8H440V-0.8H408V0.8ZM440 0.8H472V-0.8H440V0.8ZM472 0.8H504V-0.8H472V0.8ZM504 0.8H536V-0.8H504V0.8ZM536 0.8H568V-0.8H536V0.8ZM568 0.8H600V-0.8H568V0.8ZM600 0.8H632V-0.8H600V0.8ZM632 0.8H664V-0.8H632V0.8ZM664 0.8H696V-0.8H664V0.8ZM696 0.8H728V-0.8H696V0.8ZM728 0.8H760V-0.8H728V0.8ZM760 0.8H792V-0.8H760V0.8ZM792 0.8H824V-0.8H792V0.8ZM824 0.8H856V-0.8H824V0.8ZM856 0.8H888V-0.8H856V0.8ZM888 0.8H920V-0.8H888V0.8ZM920 0.8H952V-0.8H920V0.8ZM952 0.8H984V-0.8H952V0.8ZM984 0.8H1016V-0.8H984V0.8ZM1016 0.8H1048V-0.8H1016V0.8ZM1048 0.8H1080V-0.8H1048V0.8ZM1080 0.8H1112V-0.8H1080V0.8ZM1112 0.8H1144V-0.8H1112V0.8ZM1144 0.8H1176V-0.8H1144V0.8ZM1176 0.8H1208V-0.8H1176V0.8ZM1208 0.8H1240V-0.8H1208V0.8ZM1240 0.8H1272V-0.8H1240V0.8ZM1272 0.8H1304V-0.8H1272V0.8ZM1304 0.8H1336V-0.8H1304V0.8ZM1336 0.8H1368V-0.8H1336V0.8ZM1368 0.8H1400V-0.8H1368V0.8ZM1400 0.8H1432V-0.8H1400V0.8ZM1432 0.8H1464V-0.8H1432V0.8ZM1464 0.8H1496V-0.8H1464V0.8ZM1496 0.8H1528V-0.8H1496V0.8ZM1528 0.8H1560V-0.8H1528V0.8ZM1559.2 0V32H1560.8V0H1559.2Z" fill="url(#paint0_radial_9165_234)" mask="url(#path-1-inside-1_9165_234)"/>
<defs>
<radialGradient id="paint0_radial_9165_234" cx="0" cy="0" r="1" gradientUnits="userSpaceOnUse" gradientTransform="translate(600 9.22429e-06) rotate(90) scale(320 514.591)">
<stop stop-color="#BEDBFF"/>
<stop offset="1" stop-color="#BEDBFF" stop-opacity="0"/>
</radialGradient>
</defs>
</svg>
