<svg width="1200" height="400" viewBox="0 0 1200 400" fill="none" xmlns="http://www.w3.org/2000/svg">
<mask id="path-1-inside-1_9164_11192" fill="white">
<path d="M-600 360H-560V400H-600V360Z"/>
<path d="M-560 360H-520V400H-560V360Z"/>
<path d="M-520 360H-480V400H-520V360Z"/>
<path d="M-480 360H-440V400H-480V360Z"/>
<path d="M-440 360H-400V400H-440V360Z"/>
<path d="M-400 360H-360V400H-400V360Z"/>
<path d="M-360 360H-320V400H-360V360Z"/>
<path d="M-320 360H-280V400H-320V360Z"/>
<path d="M-280 360H-240V400H-280V360Z"/>
<path d="M-240 360H-200V400H-240V360Z"/>
<path d="M-200 360H-160V400H-200V360Z"/>
<path d="M-160 360H-120V400H-160V360Z"/>
<path d="M-120 360H-80V400H-120V360Z"/>
<path d="M-80 360H-40V400H-80V360Z"/>
<path d="M-40 360H0V400H-40V360Z"/>
<path d="M0 360H40V400H0V360Z"/>
<path d="M40 360H80V400H40V360Z"/>
<path d="M80 360H120V400H80V360Z"/>
<path d="M120 360H160V400H120V360Z"/>
<path d="M160 360H200V400H160V360Z"/>
<path d="M200 360H240V400H200V360Z"/>
<path d="M240 360H280V400H240V360Z"/>
<path d="M280 360H320V400H280V360Z"/>
<path d="M320 360H360V400H320V360Z"/>
<path d="M360 360H400V400H360V360Z"/>
<path d="M400 360H440V400H400V360Z"/>
<path d="M440 360H480V400H440V360Z"/>
<path d="M480 360H520V400H480V360Z"/>
<path d="M520 360H560V400H520V360Z"/>
<path d="M560 360H600V400H560V360Z"/>
<path d="M600 360H640V400H600V360Z"/>
<path d="M640 360H680V400H640V360Z"/>
<path d="M680 360H720V400H680V360Z"/>
<path d="M720 360H760V400H720V360Z"/>
<path d="M760 360H800V400H760V360Z"/>
<path d="M800 360H840V400H800V360Z"/>
<path d="M840 360H880V400H840V360Z"/>
<path d="M880 360H920V400H880V360Z"/>
<path d="M920 360H960V400H920V360Z"/>
<path d="M960 360H1000V400H960V360Z"/>
<path d="M1000 360H1040V400H1000V360Z"/>
<path d="M1040 360H1080V400H1040V360Z"/>
<path d="M1080 360H1120V400H1080V360Z"/>
<path d="M1120 360H1160V400H1120V360Z"/>
<path d="M1160 360H1200V400H1160V360Z"/>
<path d="M1200 360H1240V400H1200V360Z"/>
<path d="M1240 360H1280V400H1240V360Z"/>
<path d="M1280 360H1320V400H1280V360Z"/>
<path d="M1320 360H1360V400H1320V360Z"/>
<path d="M1360 360H1400V400H1360V360Z"/>
<path d="M1400 360H1440V400H1400V360Z"/>
<path d="M1440 360H1480V400H1440V360Z"/>
<path d="M1480 360H1520V400H1480V360Z"/>
<path d="M1520 360H1560V400H1520V360Z"/>
<path d="M1560 360H1600V400H1560V360Z"/>
<path d="M1600 360H1640V400H1600V360Z"/>
<path d="M1640 360H1680V400H1640V360Z"/>
<path d="M1680 360H1720V400H1680V360Z"/>
<path d="M1720 360H1760V400H1720V360Z"/>
<path d="M1760 360H1800V400H1760V360Z"/>
<path d="M-600 320H-560V360H-600V320Z"/>
<path d="M-560 320H-520V360H-560V320Z"/>
<path d="M-520 320H-480V360H-520V320Z"/>
<path d="M-480 320H-440V360H-480V320Z"/>
<path d="M-440 320H-400V360H-440V320Z"/>
<path d="M-400 320H-360V360H-400V320Z"/>
<path d="M-360 320H-320V360H-360V320Z"/>
<path d="M-320 320H-280V360H-320V320Z"/>
<path d="M-280 320H-240V360H-280V320Z"/>
<path d="M-240 320H-200V360H-240V320Z"/>
<path d="M-200 320H-160V360H-200V320Z"/>
<path d="M-160 320H-120V360H-160V320Z"/>
<path d="M-120 320H-80V360H-120V320Z"/>
<path d="M-80 320H-40V360H-80V320Z"/>
<path d="M-40 320H0V360H-40V320Z"/>
<path d="M0 320H40V360H0V320Z"/>
<path d="M40 320H80V360H40V320Z"/>
<path d="M80 320H120V360H80V320Z"/>
<path d="M120 320H160V360H120V320Z"/>
<path d="M160 320H200V360H160V320Z"/>
<path d="M200 320H240V360H200V320Z"/>
<path d="M240 320H280V360H240V320Z"/>
<path d="M280 320H320V360H280V320Z"/>
<path d="M320 320H360V360H320V320Z"/>
<path d="M360 320H400V360H360V320Z"/>
<path d="M400 320H440V360H400V320Z"/>
<path d="M440 320H480V360H440V320Z"/>
<path d="M480 320H520V360H480V320Z"/>
<path d="M520 320H560V360H520V320Z"/>
<path d="M560 320H600V360H560V320Z"/>
<path d="M600 320H640V360H600V320Z"/>
<path d="M640 320H680V360H640V320Z"/>
<path d="M680 320H720V360H680V320Z"/>
<path d="M720 320H760V360H720V320Z"/>
<path d="M760 320H800V360H760V320Z"/>
<path d="M800 320H840V360H800V320Z"/>
<path d="M840 320H880V360H840V320Z"/>
<path d="M880 320H920V360H880V320Z"/>
<path d="M920 320H960V360H920V320Z"/>
<path d="M960 320H1000V360H960V320Z"/>
<path d="M1000 320H1040V360H1000V320Z"/>
<path d="M1040 320H1080V360H1040V320Z"/>
<path d="M1080 320H1120V360H1080V320Z"/>
<path d="M1120 320H1160V360H1120V320Z"/>
<path d="M1160 320H1200V360H1160V320Z"/>
<path d="M1200 320H1240V360H1200V320Z"/>
<path d="M1240 320H1280V360H1240V320Z"/>
<path d="M1280 320H1320V360H1280V320Z"/>
<path d="M1320 320H1360V360H1320V320Z"/>
<path d="M1360 320H1400V360H1360V320Z"/>
<path d="M1400 320H1440V360H1400V320Z"/>
<path d="M1440 320H1480V360H1440V320Z"/>
<path d="M1480 320H1520V360H1480V320Z"/>
<path d="M1520 320H1560V360H1520V320Z"/>
<path d="M1560 320H1600V360H1560V320Z"/>
<path d="M1600 320H1640V360H1600V320Z"/>
<path d="M1640 320H1680V360H1640V320Z"/>
<path d="M1680 320H1720V360H1680V320Z"/>
<path d="M1720 320H1760V360H1720V320Z"/>
<path d="M1760 320H1800V360H1760V320Z"/>
<path d="M-600 280H-560V320H-600V280Z"/>
<path d="M-560 280H-520V320H-560V280Z"/>
<path d="M-520 280H-480V320H-520V280Z"/>
<path d="M-480 280H-440V320H-480V280Z"/>
<path d="M-440 280H-400V320H-440V280Z"/>
<path d="M-400 280H-360V320H-400V280Z"/>
<path d="M-360 280H-320V320H-360V280Z"/>
<path d="M-320 280H-280V320H-320V280Z"/>
<path d="M-280 280H-240V320H-280V280Z"/>
<path d="M-240 280H-200V320H-240V280Z"/>
<path d="M-200 280H-160V320H-200V280Z"/>
<path d="M-160 280H-120V320H-160V280Z"/>
<path d="M-120 280H-80V320H-120V280Z"/>
<path d="M-80 280H-40V320H-80V280Z"/>
<path d="M-40 280H0V320H-40V280Z"/>
<path d="M0 280H40V320H0V280Z"/>
<path d="M40 280H80V320H40V280Z"/>
<path d="M80 280H120V320H80V280Z"/>
<path d="M120 280H160V320H120V280Z"/>
<path d="M160 280H200V320H160V280Z"/>
<path d="M200 280H240V320H200V280Z"/>
<path d="M240 280H280V320H240V280Z"/>
<path d="M280 280H320V320H280V280Z"/>
<path d="M320 280H360V320H320V280Z"/>
<path d="M360 280H400V320H360V280Z"/>
<path d="M400 280H440V320H400V280Z"/>
<path d="M440 280H480V320H440V280Z"/>
<path d="M480 280H520V320H480V280Z"/>
<path d="M520 280H560V320H520V280Z"/>
<path d="M560 280H600V320H560V280Z"/>
<path d="M600 280H640V320H600V280Z"/>
<path d="M640 280H680V320H640V280Z"/>
<path d="M680 280H720V320H680V280Z"/>
<path d="M720 280H760V320H720V280Z"/>
<path d="M760 280H800V320H760V280Z"/>
<path d="M800 280H840V320H800V280Z"/>
<path d="M840 280H880V320H840V280Z"/>
<path d="M880 280H920V320H880V280Z"/>
<path d="M920 280H960V320H920V280Z"/>
<path d="M960 280H1000V320H960V280Z"/>
<path d="M1000 280H1040V320H1000V280Z"/>
<path d="M1040 280H1080V320H1040V280Z"/>
<path d="M1080 280H1120V320H1080V280Z"/>
<path d="M1120 280H1160V320H1120V280Z"/>
<path d="M1160 280H1200V320H1160V280Z"/>
<path d="M1200 280H1240V320H1200V280Z"/>
<path d="M1240 280H1280V320H1240V280Z"/>
<path d="M1280 280H1320V320H1280V280Z"/>
<path d="M1320 280H1360V320H1320V280Z"/>
<path d="M1360 280H1400V320H1360V280Z"/>
<path d="M1400 280H1440V320H1400V280Z"/>
<path d="M1440 280H1480V320H1440V280Z"/>
<path d="M1480 280H1520V320H1480V280Z"/>
<path d="M1520 280H1560V320H1520V280Z"/>
<path d="M1560 280H1600V320H1560V280Z"/>
<path d="M1600 280H1640V320H1600V280Z"/>
<path d="M1640 280H1680V320H1640V280Z"/>
<path d="M1680 280H1720V320H1680V280Z"/>
<path d="M1720 280H1760V320H1720V280Z"/>
<path d="M1760 280H1800V320H1760V280Z"/>
<path d="M-600 240H-560V280H-600V240Z"/>
<path d="M-560 240H-520V280H-560V240Z"/>
<path d="M-520 240H-480V280H-520V240Z"/>
<path d="M-480 240H-440V280H-480V240Z"/>
<path d="M-440 240H-400V280H-440V240Z"/>
<path d="M-400 240H-360V280H-400V240Z"/>
<path d="M-360 240H-320V280H-360V240Z"/>
<path d="M-320 240H-280V280H-320V240Z"/>
<path d="M-280 240H-240V280H-280V240Z"/>
<path d="M-240 240H-200V280H-240V240Z"/>
<path d="M-200 240H-160V280H-200V240Z"/>
<path d="M-160 240H-120V280H-160V240Z"/>
<path d="M-120 240H-80V280H-120V240Z"/>
<path d="M-80 240H-40V280H-80V240Z"/>
<path d="M-40 240H0V280H-40V240Z"/>
<path d="M0 240H40V280H0V240Z"/>
<path d="M40 240H80V280H40V240Z"/>
<path d="M80 240H120V280H80V240Z"/>
<path d="M120 240H160V280H120V240Z"/>
<path d="M160 240H200V280H160V240Z"/>
<path d="M200 240H240V280H200V240Z"/>
<path d="M240 240H280V280H240V240Z"/>
<path d="M280 240H320V280H280V240Z"/>
<path d="M320 240H360V280H320V240Z"/>
<path d="M360 240H400V280H360V240Z"/>
<path d="M400 240H440V280H400V240Z"/>
<path d="M440 240H480V280H440V240Z"/>
<path d="M480 240H520V280H480V240Z"/>
<path d="M520 240H560V280H520V240Z"/>
<path d="M560 240H600V280H560V240Z"/>
<path d="M600 240H640V280H600V240Z"/>
<path d="M640 240H680V280H640V240Z"/>
<path d="M680 240H720V280H680V240Z"/>
<path d="M720 240H760V280H720V240Z"/>
<path d="M760 240H800V280H760V240Z"/>
<path d="M800 240H840V280H800V240Z"/>
<path d="M840 240H880V280H840V240Z"/>
<path d="M880 240H920V280H880V240Z"/>
<path d="M920 240H960V280H920V240Z"/>
<path d="M960 240H1000V280H960V240Z"/>
<path d="M1000 240H1040V280H1000V240Z"/>
<path d="M1040 240H1080V280H1040V240Z"/>
<path d="M1080 240H1120V280H1080V240Z"/>
<path d="M1120 240H1160V280H1120V240Z"/>
<path d="M1160 240H1200V280H1160V240Z"/>
<path d="M1200 240H1240V280H1200V240Z"/>
<path d="M1240 240H1280V280H1240V240Z"/>
<path d="M1280 240H1320V280H1280V240Z"/>
<path d="M1320 240H1360V280H1320V240Z"/>
<path d="M1360 240H1400V280H1360V240Z"/>
<path d="M1400 240H1440V280H1400V240Z"/>
<path d="M1440 240H1480V280H1440V240Z"/>
<path d="M1480 240H1520V280H1480V240Z"/>
<path d="M1520 240H1560V280H1520V240Z"/>
<path d="M1560 240H1600V280H1560V240Z"/>
<path d="M1600 240H1640V280H1600V240Z"/>
<path d="M1640 240H1680V280H1640V240Z"/>
<path d="M1680 240H1720V280H1680V240Z"/>
<path d="M1720 240H1760V280H1720V240Z"/>
<path d="M1760 240H1800V280H1760V240Z"/>
<path d="M-600 200H-560V240H-600V200Z"/>
<path d="M-560 200H-520V240H-560V200Z"/>
<path d="M-520 200H-480V240H-520V200Z"/>
<path d="M-480 200H-440V240H-480V200Z"/>
<path d="M-440 200H-400V240H-440V200Z"/>
<path d="M-400 200H-360V240H-400V200Z"/>
<path d="M-360 200H-320V240H-360V200Z"/>
<path d="M-320 200H-280V240H-320V200Z"/>
<path d="M-280 200H-240V240H-280V200Z"/>
<path d="M-240 200H-200V240H-240V200Z"/>
<path d="M-200 200H-160V240H-200V200Z"/>
<path d="M-160 200H-120V240H-160V200Z"/>
<path d="M-120 200H-80V240H-120V200Z"/>
<path d="M-80 200H-40V240H-80V200Z"/>
<path d="M-40 200H0V240H-40V200Z"/>
<path d="M0 200H40V240H0V200Z"/>
<path d="M40 200H80V240H40V200Z"/>
<path d="M80 200H120V240H80V200Z"/>
<path d="M120 200H160V240H120V200Z"/>
<path d="M160 200H200V240H160V200Z"/>
<path d="M200 200H240V240H200V200Z"/>
<path d="M240 200H280V240H240V200Z"/>
<path d="M280 200H320V240H280V200Z"/>
<path d="M320 200H360V240H320V200Z"/>
<path d="M360 200H400V240H360V200Z"/>
<path d="M400 200H440V240H400V200Z"/>
<path d="M440 200H480V240H440V200Z"/>
<path d="M480 200H520V240H480V200Z"/>
<path d="M520 200H560V240H520V200Z"/>
<path d="M560 200H600V240H560V200Z"/>
<path d="M600 200H640V240H600V200Z"/>
<path d="M640 200H680V240H640V200Z"/>
<path d="M680 200H720V240H680V200Z"/>
<path d="M720 200H760V240H720V200Z"/>
<path d="M760 200H800V240H760V200Z"/>
<path d="M800 200H840V240H800V200Z"/>
<path d="M840 200H880V240H840V200Z"/>
<path d="M880 200H920V240H880V200Z"/>
<path d="M920 200H960V240H920V200Z"/>
<path d="M960 200H1000V240H960V200Z"/>
<path d="M1000 200H1040V240H1000V200Z"/>
<path d="M1040 200H1080V240H1040V200Z"/>
<path d="M1080 200H1120V240H1080V200Z"/>
<path d="M1120 200H1160V240H1120V200Z"/>
<path d="M1160 200H1200V240H1160V200Z"/>
<path d="M1200 200H1240V240H1200V200Z"/>
<path d="M1240 200H1280V240H1240V200Z"/>
<path d="M1280 200H1320V240H1280V200Z"/>
<path d="M1320 200H1360V240H1320V200Z"/>
<path d="M1360 200H1400V240H1360V200Z"/>
<path d="M1400 200H1440V240H1400V200Z"/>
<path d="M1440 200H1480V240H1440V200Z"/>
<path d="M1480 200H1520V240H1480V200Z"/>
<path d="M1520 200H1560V240H1520V200Z"/>
<path d="M1560 200H1600V240H1560V200Z"/>
<path d="M1600 200H1640V240H1600V200Z"/>
<path d="M1640 200H1680V240H1640V200Z"/>
<path d="M1680 200H1720V240H1680V200Z"/>
<path d="M1720 200H1760V240H1720V200Z"/>
<path d="M1760 200H1800V240H1760V200Z"/>
<path d="M-600 160H-560V200H-600V160Z"/>
<path d="M-560 160H-520V200H-560V160Z"/>
<path d="M-520 160H-480V200H-520V160Z"/>
<path d="M-480 160H-440V200H-480V160Z"/>
<path d="M-440 160H-400V200H-440V160Z"/>
<path d="M-400 160H-360V200H-400V160Z"/>
<path d="M-360 160H-320V200H-360V160Z"/>
<path d="M-320 160H-280V200H-320V160Z"/>
<path d="M-280 160H-240V200H-280V160Z"/>
<path d="M-240 160H-200V200H-240V160Z"/>
<path d="M-200 160H-160V200H-200V160Z"/>
<path d="M-160 160H-120V200H-160V160Z"/>
<path d="M-120 160H-80V200H-120V160Z"/>
<path d="M-80 160H-40V200H-80V160Z"/>
<path d="M-40 160H0V200H-40V160Z"/>
<path d="M0 160H40V200H0V160Z"/>
<path d="M40 160H80V200H40V160Z"/>
<path d="M80 160H120V200H80V160Z"/>
<path d="M120 160H160V200H120V160Z"/>
<path d="M160 160H200V200H160V160Z"/>
<path d="M200 160H240V200H200V160Z"/>
<path d="M240 160H280V200H240V160Z"/>
<path d="M280 160H320V200H280V160Z"/>
<path d="M320 160H360V200H320V160Z"/>
<path d="M360 160H400V200H360V160Z"/>
<path d="M400 160H440V200H400V160Z"/>
<path d="M440 160H480V200H440V160Z"/>
<path d="M480 160H520V200H480V160Z"/>
<path d="M520 160H560V200H520V160Z"/>
<path d="M560 160H600V200H560V160Z"/>
<path d="M600 160H640V200H600V160Z"/>
<path d="M640 160H680V200H640V160Z"/>
<path d="M680 160H720V200H680V160Z"/>
<path d="M720 160H760V200H720V160Z"/>
<path d="M760 160H800V200H760V160Z"/>
<path d="M800 160H840V200H800V160Z"/>
<path d="M840 160H880V200H840V160Z"/>
<path d="M880 160H920V200H880V160Z"/>
<path d="M920 160H960V200H920V160Z"/>
<path d="M960 160H1000V200H960V160Z"/>
<path d="M1000 160H1040V200H1000V160Z"/>
<path d="M1040 160H1080V200H1040V160Z"/>
<path d="M1080 160H1120V200H1080V160Z"/>
<path d="M1120 160H1160V200H1120V160Z"/>
<path d="M1160 160H1200V200H1160V160Z"/>
<path d="M1200 160H1240V200H1200V160Z"/>
<path d="M1240 160H1280V200H1240V160Z"/>
<path d="M1280 160H1320V200H1280V160Z"/>
<path d="M1320 160H1360V200H1320V160Z"/>
<path d="M1360 160H1400V200H1360V160Z"/>
<path d="M1400 160H1440V200H1400V160Z"/>
<path d="M1440 160H1480V200H1440V160Z"/>
<path d="M1480 160H1520V200H1480V160Z"/>
<path d="M1520 160H1560V200H1520V160Z"/>
<path d="M1560 160H1600V200H1560V160Z"/>
<path d="M1600 160H1640V200H1600V160Z"/>
<path d="M1640 160H1680V200H1640V160Z"/>
<path d="M1680 160H1720V200H1680V160Z"/>
<path d="M1720 160H1760V200H1720V160Z"/>
<path d="M1760 160H1800V200H1760V160Z"/>
<path d="M-600 120H-560V160H-600V120Z"/>
<path d="M-560 120H-520V160H-560V120Z"/>
<path d="M-520 120H-480V160H-520V120Z"/>
<path d="M-480 120H-440V160H-480V120Z"/>
<path d="M-440 120H-400V160H-440V120Z"/>
<path d="M-400 120H-360V160H-400V120Z"/>
<path d="M-360 120H-320V160H-360V120Z"/>
<path d="M-320 120H-280V160H-320V120Z"/>
<path d="M-280 120H-240V160H-280V120Z"/>
<path d="M-240 120H-200V160H-240V120Z"/>
<path d="M-200 120H-160V160H-200V120Z"/>
<path d="M-160 120H-120V160H-160V120Z"/>
<path d="M-120 120H-80V160H-120V120Z"/>
<path d="M-80 120H-40V160H-80V120Z"/>
<path d="M-40 120H0V160H-40V120Z"/>
<path d="M0 120H40V160H0V120Z"/>
<path d="M40 120H80V160H40V120Z"/>
<path d="M80 120H120V160H80V120Z"/>
<path d="M120 120H160V160H120V120Z"/>
<path d="M160 120H200V160H160V120Z"/>
<path d="M200 120H240V160H200V120Z"/>
<path d="M240 120H280V160H240V120Z"/>
<path d="M280 120H320V160H280V120Z"/>
<path d="M320 120H360V160H320V120Z"/>
<path d="M360 120H400V160H360V120Z"/>
<path d="M400 120H440V160H400V120Z"/>
<path d="M440 120H480V160H440V120Z"/>
<path d="M480 120H520V160H480V120Z"/>
<path d="M520 120H560V160H520V120Z"/>
<path d="M560 120H600V160H560V120Z"/>
<path d="M600 120H640V160H600V120Z"/>
<path d="M640 120H680V160H640V120Z"/>
<path d="M680 120H720V160H680V120Z"/>
<path d="M720 120H760V160H720V120Z"/>
<path d="M760 120H800V160H760V120Z"/>
<path d="M800 120H840V160H800V120Z"/>
<path d="M840 120H880V160H840V120Z"/>
<path d="M880 120H920V160H880V120Z"/>
<path d="M920 120H960V160H920V120Z"/>
<path d="M960 120H1000V160H960V120Z"/>
<path d="M1000 120H1040V160H1000V120Z"/>
<path d="M1040 120H1080V160H1040V120Z"/>
<path d="M1080 120H1120V160H1080V120Z"/>
<path d="M1120 120H1160V160H1120V120Z"/>
<path d="M1160 120H1200V160H1160V120Z"/>
<path d="M1200 120H1240V160H1200V120Z"/>
<path d="M1240 120H1280V160H1240V120Z"/>
<path d="M1280 120H1320V160H1280V120Z"/>
<path d="M1320 120H1360V160H1320V120Z"/>
<path d="M1360 120H1400V160H1360V120Z"/>
<path d="M1400 120H1440V160H1400V120Z"/>
<path d="M1440 120H1480V160H1440V120Z"/>
<path d="M1480 120H1520V160H1480V120Z"/>
<path d="M1520 120H1560V160H1520V120Z"/>
<path d="M1560 120H1600V160H1560V120Z"/>
<path d="M1600 120H1640V160H1600V120Z"/>
<path d="M1640 120H1680V160H1640V120Z"/>
<path d="M1680 120H1720V160H1680V120Z"/>
<path d="M1720 120H1760V160H1720V120Z"/>
<path d="M1760 120H1800V160H1760V120Z"/>
<path d="M-600 80H-560V120H-600V80Z"/>
<path d="M-560 80H-520V120H-560V80Z"/>
<path d="M-520 80H-480V120H-520V80Z"/>
<path d="M-480 80H-440V120H-480V80Z"/>
<path d="M-440 80H-400V120H-440V80Z"/>
<path d="M-400 80H-360V120H-400V80Z"/>
<path d="M-360 80H-320V120H-360V80Z"/>
<path d="M-320 80H-280V120H-320V80Z"/>
<path d="M-280 80H-240V120H-280V80Z"/>
<path d="M-240 80H-200V120H-240V80Z"/>
<path d="M-200 80H-160V120H-200V80Z"/>
<path d="M-160 80H-120V120H-160V80Z"/>
<path d="M-120 80H-80V120H-120V80Z"/>
<path d="M-80 80H-40V120H-80V80Z"/>
<path d="M-40 80H0V120H-40V80Z"/>
<path d="M0 80H40V120H0V80Z"/>
<path d="M40 80H80V120H40V80Z"/>
<path d="M80 80H120V120H80V80Z"/>
<path d="M120 80H160V120H120V80Z"/>
<path d="M160 80H200V120H160V80Z"/>
<path d="M200 80H240V120H200V80Z"/>
<path d="M240 80H280V120H240V80Z"/>
<path d="M280 80H320V120H280V80Z"/>
<path d="M320 80H360V120H320V80Z"/>
<path d="M360 80H400V120H360V80Z"/>
<path d="M400 80H440V120H400V80Z"/>
<path d="M440 80H480V120H440V80Z"/>
<path d="M480 80H520V120H480V80Z"/>
<path d="M520 80H560V120H520V80Z"/>
<path d="M560 80H600V120H560V80Z"/>
<path d="M600 80H640V120H600V80Z"/>
<path d="M640 80H680V120H640V80Z"/>
<path d="M680 80H720V120H680V80Z"/>
<path d="M720 80H760V120H720V80Z"/>
<path d="M760 80H800V120H760V80Z"/>
<path d="M800 80H840V120H800V80Z"/>
<path d="M840 80H880V120H840V80Z"/>
<path d="M880 80H920V120H880V80Z"/>
<path d="M920 80H960V120H920V80Z"/>
<path d="M960 80H1000V120H960V80Z"/>
<path d="M1000 80H1040V120H1000V80Z"/>
<path d="M1040 80H1080V120H1040V80Z"/>
<path d="M1080 80H1120V120H1080V80Z"/>
<path d="M1120 80H1160V120H1120V80Z"/>
<path d="M1160 80H1200V120H1160V80Z"/>
<path d="M1200 80H1240V120H1200V80Z"/>
<path d="M1240 80H1280V120H1240V80Z"/>
<path d="M1280 80H1320V120H1280V80Z"/>
<path d="M1320 80H1360V120H1320V80Z"/>
<path d="M1360 80H1400V120H1360V80Z"/>
<path d="M1400 80H1440V120H1400V80Z"/>
<path d="M1440 80H1480V120H1440V80Z"/>
<path d="M1480 80H1520V120H1480V80Z"/>
<path d="M1520 80H1560V120H1520V80Z"/>
<path d="M1560 80H1600V120H1560V80Z"/>
<path d="M1600 80H1640V120H1600V80Z"/>
<path d="M1640 80H1680V120H1640V80Z"/>
<path d="M1680 80H1720V120H1680V80Z"/>
<path d="M1720 80H1760V120H1720V80Z"/>
<path d="M1760 80H1800V120H1760V80Z"/>
<path d="M-600 40H-560V80H-600V40Z"/>
<path d="M-560 40H-520V80H-560V40Z"/>
<path d="M-520 40H-480V80H-520V40Z"/>
<path d="M-480 40H-440V80H-480V40Z"/>
<path d="M-440 40H-400V80H-440V40Z"/>
<path d="M-400 40H-360V80H-400V40Z"/>
<path d="M-360 40H-320V80H-360V40Z"/>
<path d="M-320 40H-280V80H-320V40Z"/>
<path d="M-280 40H-240V80H-280V40Z"/>
<path d="M-240 40H-200V80H-240V40Z"/>
<path d="M-200 40H-160V80H-200V40Z"/>
<path d="M-160 40H-120V80H-160V40Z"/>
<path d="M-120 40H-80V80H-120V40Z"/>
<path d="M-80 40H-40V80H-80V40Z"/>
<path d="M-40 40H0V80H-40V40Z"/>
<path d="M0 40H40V80H0V40Z"/>
<path d="M40 40H80V80H40V40Z"/>
<path d="M80 40H120V80H80V40Z"/>
<path d="M120 40H160V80H120V40Z"/>
<path d="M160 40H200V80H160V40Z"/>
<path d="M200 40H240V80H200V40Z"/>
<path d="M240 40H280V80H240V40Z"/>
<path d="M280 40H320V80H280V40Z"/>
<path d="M320 40H360V80H320V40Z"/>
<path d="M360 40H400V80H360V40Z"/>
<path d="M400 40H440V80H400V40Z"/>
<path d="M440 40H480V80H440V40Z"/>
<path d="M480 40H520V80H480V40Z"/>
<path d="M520 40H560V80H520V40Z"/>
<path d="M560 40H600V80H560V40Z"/>
<path d="M600 40H640V80H600V40Z"/>
<path d="M640 40H680V80H640V40Z"/>
<path d="M680 40H720V80H680V40Z"/>
<path d="M720 40H760V80H720V40Z"/>
<path d="M760 40H800V80H760V40Z"/>
<path d="M800 40H840V80H800V40Z"/>
<path d="M840 40H880V80H840V40Z"/>
<path d="M880 40H920V80H880V40Z"/>
<path d="M920 40H960V80H920V40Z"/>
<path d="M960 40H1000V80H960V40Z"/>
<path d="M1000 40H1040V80H1000V40Z"/>
<path d="M1040 40H1080V80H1040V40Z"/>
<path d="M1080 40H1120V80H1080V40Z"/>
<path d="M1120 40H1160V80H1120V40Z"/>
<path d="M1160 40H1200V80H1160V40Z"/>
<path d="M1200 40H1240V80H1200V40Z"/>
<path d="M1240 40H1280V80H1240V40Z"/>
<path d="M1280 40H1320V80H1280V40Z"/>
<path d="M1320 40H1360V80H1320V40Z"/>
<path d="M1360 40H1400V80H1360V40Z"/>
<path d="M1400 40H1440V80H1400V40Z"/>
<path d="M1440 40H1480V80H1440V40Z"/>
<path d="M1480 40H1520V80H1480V40Z"/>
<path d="M1520 40H1560V80H1520V40Z"/>
<path d="M1560 40H1600V80H1560V40Z"/>
<path d="M1600 40H1640V80H1600V40Z"/>
<path d="M1640 40H1680V80H1640V40Z"/>
<path d="M1680 40H1720V80H1680V40Z"/>
<path d="M1720 40H1760V80H1720V40Z"/>
<path d="M1760 40H1800V80H1760V40Z"/>
<path d="M-600 0H-560V40H-600V0Z"/>
<path d="M-560 0H-520V40H-560V0Z"/>
<path d="M-520 0H-480V40H-520V0Z"/>
<path d="M-480 0H-440V40H-480V0Z"/>
<path d="M-440 0H-400V40H-440V0Z"/>
<path d="M-400 0H-360V40H-400V0Z"/>
<path d="M-360 0H-320V40H-360V0Z"/>
<path d="M-320 0H-280V40H-320V0Z"/>
<path d="M-280 0H-240V40H-280V0Z"/>
<path d="M-240 0H-200V40H-240V0Z"/>
<path d="M-200 0H-160V40H-200V0Z"/>
<path d="M-160 0H-120V40H-160V0Z"/>
<path d="M-120 0H-80V40H-120V0Z"/>
<path d="M-80 0H-40V40H-80V0Z"/>
<path d="M-40 0H0V40H-40V0Z"/>
<path d="M0 0H40V40H0V0Z"/>
<path d="M40 0H80V40H40V0Z"/>
<path d="M80 0H120V40H80V0Z"/>
<path d="M120 0H160V40H120V0Z"/>
<path d="M160 0H200V40H160V0Z"/>
<path d="M200 0H240V40H200V0Z"/>
<path d="M240 0H280V40H240V0Z"/>
<path d="M280 0H320V40H280V0Z"/>
<path d="M320 0H360V40H320V0Z"/>
<path d="M360 0H400V40H360V0Z"/>
<path d="M400 0H440V40H400V0Z"/>
<path d="M440 0H480V40H440V0Z"/>
<path d="M480 0H520V40H480V0Z"/>
<path d="M520 0H560V40H520V0Z"/>
<path d="M560 0H600V40H560V0Z"/>
<path d="M600 0H640V40H600V0Z"/>
<path d="M640 0H680V40H640V0Z"/>
<path d="M680 0H720V40H680V0Z"/>
<path d="M720 0H760V40H720V0Z"/>
<path d="M760 0H800V40H760V0Z"/>
<path d="M800 0H840V40H800V0Z"/>
<path d="M840 0H880V40H840V0Z"/>
<path d="M880 0H920V40H880V0Z"/>
<path d="M920 0H960V40H920V0Z"/>
<path d="M960 0H1000V40H960V0Z"/>
<path d="M1000 0H1040V40H1000V0Z"/>
<path d="M1040 0H1080V40H1040V0Z"/>
<path d="M1080 0H1120V40H1080V0Z"/>
<path d="M1120 0H1160V40H1120V0Z"/>
<path d="M1160 0H1200V40H1160V0Z"/>
<path d="M1200 0H1240V40H1200V0Z"/>
<path d="M1240 0H1280V40H1240V0Z"/>
<path d="M1280 0H1320V40H1280V0Z"/>
<path d="M1320 0H1360V40H1320V0Z"/>
<path d="M1360 0H1400V40H1360V0Z"/>
<path d="M1400 0H1440V40H1400V0Z"/>
<path d="M1440 0H1480V40H1440V0Z"/>
<path d="M1480 0H1520V40H1480V0Z"/>
<path d="M1520 0H1560V40H1520V0Z"/>
<path d="M1560 0H1600V40H1560V0Z"/>
<path d="M1600 0H1640V40H1600V0Z"/>
<path d="M1640 0H1680V40H1640V0Z"/>
<path d="M1680 0H1720V40H1680V0Z"/>
<path d="M1720 0H1760V40H1720V0Z"/>
<path d="M1760 0H1800V40H1760V0Z"/>
</mask>
<path d="M-600 360.5H-560V359.5H-600V360.5ZM-560.5 360V400H-559.5V360H-560.5ZM-560 360.5H-520V359.5H-560V360.5ZM-520.5 360V400H-519.5V360H-520.5ZM-520 360.5H-480V359.5H-520V360.5ZM-480.5 360V400H-479.5V360H-480.5ZM-480 360.5H-440V359.5H-480V360.5ZM-440.5 360V400H-439.5V360H-440.5ZM-440 360.5H-400V359.5H-440V360.5ZM-400.5 360V400H-399.5V360H-400.5ZM-400 360.5H-360V359.5H-400V360.5ZM-360.5 360V400H-359.5V360H-360.5ZM-360 360.5H-320V359.5H-360V360.5ZM-320.5 360V400H-319.5V360H-320.5ZM-320 360.5H-280V359.5H-320V360.5ZM-280.5 360V400H-279.5V360H-280.5ZM-280 360.5H-240V359.5H-280V360.5ZM-240.5 360V400H-239.5V360H-240.5ZM-240 360.5H-200V359.5H-240V360.5ZM-200.5 360V400H-199.5V360H-200.5ZM-200 360.5H-160V359.5H-200V360.5ZM-160.5 360V400H-159.5V360H-160.5ZM-160 360.5H-120V359.5H-160V360.5ZM-120.5 360V400H-119.5V360H-120.5ZM-120 360.5H-80V359.5H-120V360.5ZM-80.5 360V400H-79.5V360H-80.5ZM-80 360.5H-40V359.5H-80V360.5ZM-40.5 360V400H-39.5V360H-40.5ZM-40 360.5H0V359.5H-40V360.5ZM-0.5 360V400H0.5V360H-0.5ZM0 360.5H40V359.5H0V360.5ZM39.5 360V400H40.5V360H39.5ZM40 360.5H80V359.5H40V360.5ZM79.5 360V400H80.5V360H79.5ZM80 360.5H120V359.5H80V360.5ZM119.5 360V400H120.5V360H119.5ZM120 360.5H160V359.5H120V360.5ZM159.5 360V400H160.5V360H159.5ZM160 360.5H200V359.5H160V360.5ZM199.5 360V400H200.5V360H199.5ZM200 360.5H240V359.5H200V360.5ZM239.5 360V400H240.5V360H239.5ZM240 360.5H280V359.5H240V360.5ZM279.5 360V400H280.5V360H279.5ZM280 360.5H320V359.5H280V360.5ZM319.5 360V400H320.5V360H319.5ZM320 360.5H360V359.5H320V360.5ZM359.5 360V400H360.5V360H359.5ZM360 360.5H400V359.5H360V360.5ZM399.5 360V400H400.5V360H399.5ZM400 360.5H440V359.5H400V360.5ZM439.5 360V400H440.5V360H439.5ZM440 360.5H480V359.5H440V360.5ZM479.5 360V400H480.5V360H479.5ZM480 360.5H520V359.5H480V360.5ZM519.5 360V400H520.5V360H519.5ZM520 360.5H560V359.5H520V360.5ZM559.5 360V400H560.5V360H559.5ZM560 360.5H600V359.5H560V360.5ZM599.5 360V400H600.5V360H599.5ZM600 360.5H640V359.5H600V360.5ZM639.5 360V400H640.5V360H639.5ZM640 360.5H680V359.5H640V360.5ZM679.5 360V400H680.5V360H679.5ZM680 360.5H720V359.5H680V360.5ZM719.5 360V400H720.5V360H719.5ZM720 360.5H760V359.5H720V360.5ZM759.5 360V400H760.5V360H759.5ZM760 360.5H800V359.5H760V360.5ZM799.5 360V400H800.5V360H799.5ZM800 360.5H840V359.5H800V360.5ZM839.5 360V400H840.5V360H839.5ZM840 360.5H880V359.5H840V360.5ZM879.5 360V400H880.5V360H879.5ZM880 360.5H920V359.5H880V360.5ZM919.5 360V400H920.5V360H919.5ZM920 360.5H960V359.5H920V360.5ZM959.5 360V400H960.5V360H959.5ZM960 360.5H1000V359.5H960V360.5ZM999.5 360V400H1000.5V360H999.5ZM1000 360.5H1040V359.5H1000V360.5ZM1039.5 360V400H1040.5V360H1039.5ZM1040 360.5H1080V359.5H1040V360.5ZM1079.5 360V400H1080.5V360H1079.5ZM1080 360.5H1120V359.5H1080V360.5ZM1119.5 360V400H1120.5V360H1119.5ZM1120 360.5H1160V359.5H1120V360.5ZM1159.5 360V400H1160.5V360H1159.5ZM1160 360.5H1200V359.5H1160V360.5ZM1199.5 360V400H1200.5V360H1199.5ZM1200 360.5H1240V359.5H1200V360.5ZM1239.5 360V400H1240.5V360H1239.5ZM1240 360.5H1280V359.5H1240V360.5ZM1279.5 360V400H1280.5V360H1279.5ZM1280 360.5H1320V359.5H1280V360.5ZM1319.5 360V400H1320.5V360H1319.5ZM1320 360.5H1360V359.5H1320V360.5ZM1359.5 360V400H1360.5V360H1359.5ZM1360 360.5H1400V359.5H1360V360.5ZM1399.5 360V400H1400.5V360H1399.5ZM1400 360.5H1440V359.5H1400V360.5ZM1439.5 360V400H1440.5V360H1439.5ZM1440 360.5H1480V359.5H1440V360.5ZM1479.5 360V400H1480.5V360H1479.5ZM1480 360.5H1520V359.5H1480V360.5ZM1519.5 360V400H1520.5V360H1519.5ZM1520 360.5H1560V359.5H1520V360.5ZM1559.5 360V400H1560.5V360H1559.5ZM1560 360.5H1600V359.5H1560V360.5ZM1599.5 360V400H1600.5V360H1599.5ZM1600 360.5H1640V359.5H1600V360.5ZM1639.5 360V400H1640.5V360H1639.5ZM1640 360.5H1680V359.5H1640V360.5ZM1679.5 360V400H1680.5V360H1679.5ZM1680 360.5H1720V359.5H1680V360.5ZM1719.5 360V400H1720.5V360H1719.5ZM1720 360.5H1760V359.5H1720V360.5ZM1759.5 360V400H1760.5V360H1759.5ZM1760 360.5H1800V359.5H1760V360.5ZM-600 320.5H-560V319.5H-600V320.5ZM-560.5 320V360H-559.5V320H-560.5ZM-560 320.5H-520V319.5H-560V320.5ZM-520.5 320V360H-519.5V320H-520.5ZM-520 320.5H-480V319.5H-520V320.5ZM-480.5 320V360H-479.5V320H-480.5ZM-480 320.5H-440V319.5H-480V320.5ZM-440.5 320V360H-439.5V320H-440.5ZM-440 320.5H-400V319.5H-440V320.5ZM-400.5 320V360H-399.5V320H-400.5ZM-400 320.5H-360V319.5H-400V320.5ZM-360.5 320V360H-359.5V320H-360.5ZM-360 320.5H-320V319.5H-360V320.5ZM-320.5 320V360H-319.5V320H-320.5ZM-320 320.5H-280V319.5H-320V320.5ZM-280.5 320V360H-279.5V320H-280.5ZM-280 320.5H-240V319.5H-280V320.5ZM-240.5 320V360H-239.5V320H-240.5ZM-240 320.5H-200V319.5H-240V320.5ZM-200.5 320V360H-199.5V320H-200.5ZM-200 320.5H-160V319.5H-200V320.5ZM-160.5 320V360H-159.5V320H-160.5ZM-160 320.5H-120V319.5H-160V320.5ZM-120.5 320V360H-119.5V320H-120.5ZM-120 320.5H-80V319.5H-120V320.5ZM-80.5 320V360H-79.5V320H-80.5ZM-80 320.5H-40V319.5H-80V320.5ZM-40.5 320V360H-39.5V320H-40.5ZM-40 320.5H0V319.5H-40V320.5ZM-0.5 320V360H0.5V320H-0.5ZM0 320.5H40V319.5H0V320.5ZM39.5 320V360H40.5V320H39.5ZM40 320.5H80V319.5H40V320.5ZM79.5 320V360H80.5V320H79.5ZM80 320.5H120V319.5H80V320.5ZM119.5 320V360H120.5V320H119.5ZM120 320.5H160V319.5H120V320.5ZM159.5 320V360H160.5V320H159.5ZM160 320.5H200V319.5H160V320.5ZM199.5 320V360H200.5V320H199.5ZM200 320.5H240V319.5H200V320.5ZM239.5 320V360H240.5V320H239.5ZM240 320.5H280V319.5H240V320.5ZM279.5 320V360H280.5V320H279.5ZM280 320.5H320V319.5H280V320.5ZM319.5 320V360H320.5V320H319.5ZM320 320.5H360V319.5H320V320.5ZM359.5 320V360H360.5V320H359.5ZM360 320.5H400V319.5H360V320.5ZM399.5 320V360H400.5V320H399.5ZM400 320.5H440V319.5H400V320.5ZM439.5 320V360H440.5V320H439.5ZM440 320.5H480V319.5H440V320.5ZM479.5 320V360H480.5V320H479.5ZM480 320.5H520V319.5H480V320.5ZM519.5 320V360H520.5V320H519.5ZM520 320.5H560V319.5H520V320.5ZM559.5 320V360H560.5V320H559.5ZM560 320.5H600V319.5H560V320.5ZM599.5 320V360H600.5V320H599.5ZM600 320.5H640V319.5H600V320.5ZM639.5 320V360H640.5V320H639.5ZM640 320.5H680V319.5H640V320.5ZM679.5 320V360H680.5V320H679.5ZM680 320.5H720V319.5H680V320.5ZM719.5 320V360H720.5V320H719.5ZM720 320.5H760V319.5H720V320.5ZM759.5 320V360H760.5V320H759.5ZM760 320.5H800V319.5H760V320.5ZM799.5 320V360H800.5V320H799.5ZM800 320.5H840V319.5H800V320.5ZM839.5 320V360H840.5V320H839.5ZM840 320.5H880V319.5H840V320.5ZM879.5 320V360H880.5V320H879.5ZM880 320.5H920V319.5H880V320.5ZM919.5 320V360H920.5V320H919.5ZM920 320.5H960V319.5H920V320.5ZM959.5 320V360H960.5V320H959.5ZM960 320.5H1000V319.5H960V320.5ZM999.5 320V360H1000.5V320H999.5ZM1000 320.5H1040V319.5H1000V320.5ZM1039.5 320V360H1040.5V320H1039.5ZM1040 320.5H1080V319.5H1040V320.5ZM1079.5 320V360H1080.5V320H1079.5ZM1080 320.5H1120V319.5H1080V320.5ZM1119.5 320V360H1120.5V320H1119.5ZM1120 320.5H1160V319.5H1120V320.5ZM1159.5 320V360H1160.5V320H1159.5ZM1160 320.5H1200V319.5H1160V320.5ZM1199.5 320V360H1200.5V320H1199.5ZM1200 320.5H1240V319.5H1200V320.5ZM1239.5 320V360H1240.5V320H1239.5ZM1240 320.5H1280V319.5H1240V320.5ZM1279.5 320V360H1280.5V320H1279.5ZM1280 320.5H1320V319.5H1280V320.5ZM1319.5 320V360H1320.5V320H1319.5ZM1320 320.5H1360V319.5H1320V320.5ZM1359.5 320V360H1360.5V320H1359.5ZM1360 320.5H1400V319.5H1360V320.5ZM1399.5 320V360H1400.5V320H1399.5ZM1400 320.5H1440V319.5H1400V320.5ZM1439.5 320V360H1440.5V320H1439.5ZM1440 320.5H1480V319.5H1440V320.5ZM1479.5 320V360H1480.5V320H1479.5ZM1480 320.5H1520V319.5H1480V320.5ZM1519.5 320V360H1520.5V320H1519.5ZM1520 320.5H1560V319.5H1520V320.5ZM1559.5 320V360H1560.5V320H1559.5ZM1560 320.5H1600V319.5H1560V320.5ZM1599.5 320V360H1600.5V320H1599.5ZM1600 320.5H1640V319.5H1600V320.5ZM1639.5 320V360H1640.5V320H1639.5ZM1640 320.5H1680V319.5H1640V320.5ZM1679.5 320V360H1680.5V320H1679.5ZM1680 320.5H1720V319.5H1680V320.5ZM1719.5 320V360H1720.5V320H1719.5ZM1720 320.5H1760V319.5H1720V320.5ZM1759.5 320V360H1760.5V320H1759.5ZM1760 320.5H1800V319.5H1760V320.5ZM-600 280.5H-560V279.5H-600V280.5ZM-560.5 280V320H-559.5V280H-560.5ZM-560 280.5H-520V279.5H-560V280.5ZM-520.5 280V320H-519.5V280H-520.5ZM-520 280.5H-480V279.5H-520V280.5ZM-480.5 280V320H-479.5V280H-480.5ZM-480 280.5H-440V279.5H-480V280.5ZM-440.5 280V320H-439.5V280H-440.5ZM-440 280.5H-400V279.5H-440V280.5ZM-400.5 280V320H-399.5V280H-400.5ZM-400 280.5H-360V279.5H-400V280.5ZM-360.5 280V320H-359.5V280H-360.5ZM-360 280.5H-320V279.5H-360V280.5ZM-320.5 280V320H-319.5V280H-320.5ZM-320 280.5H-280V279.5H-320V280.5ZM-280.5 280V320H-279.5V280H-280.5ZM-280 280.5H-240V279.5H-280V280.5ZM-240.5 280V320H-239.5V280H-240.5ZM-240 280.5H-200V279.5H-240V280.5ZM-200.5 280V320H-199.5V280H-200.5ZM-200 280.5H-160V279.5H-200V280.5ZM-160.5 280V320H-159.5V280H-160.5ZM-160 280.5H-120V279.5H-160V280.5ZM-120.5 280V320H-119.5V280H-120.5ZM-120 280.5H-80V279.5H-120V280.5ZM-80.5 280V320H-79.5V280H-80.5ZM-80 280.5H-40V279.5H-80V280.5ZM-40.5 280V320H-39.5V280H-40.5ZM-40 280.5H0V279.5H-40V280.5ZM-0.5 280V320H0.5V280H-0.5ZM0 280.5H40V279.5H0V280.5ZM39.5 280V320H40.5V280H39.5ZM40 280.5H80V279.5H40V280.5ZM79.5 280V320H80.5V280H79.5ZM80 280.5H120V279.5H80V280.5ZM119.5 280V320H120.5V280H119.5ZM120 280.5H160V279.5H120V280.5ZM159.5 280V320H160.5V280H159.5ZM160 280.5H200V279.5H160V280.5ZM199.5 280V320H200.5V280H199.5ZM200 280.5H240V279.5H200V280.5ZM239.5 280V320H240.5V280H239.5ZM240 280.5H280V279.5H240V280.5ZM279.5 280V320H280.5V280H279.5ZM280 280.5H320V279.5H280V280.5ZM319.5 280V320H320.5V280H319.5ZM320 280.5H360V279.5H320V280.5ZM359.5 280V320H360.5V280H359.5ZM360 280.5H400V279.5H360V280.5ZM399.5 280V320H400.5V280H399.5ZM400 280.5H440V279.5H400V280.5ZM439.5 280V320H440.5V280H439.5ZM440 280.5H480V279.5H440V280.5ZM479.5 280V320H480.5V280H479.5ZM480 280.5H520V279.5H480V280.5ZM519.5 280V320H520.5V280H519.5ZM520 280.5H560V279.5H520V280.5ZM559.5 280V320H560.5V280H559.5ZM560 280.5H600V279.5H560V280.5ZM599.5 280V320H600.5V280H599.5ZM600 280.5H640V279.5H600V280.5ZM639.5 280V320H640.5V280H639.5ZM640 280.5H680V279.5H640V280.5ZM679.5 280V320H680.5V280H679.5ZM680 280.5H720V279.5H680V280.5ZM719.5 280V320H720.5V280H719.5ZM720 280.5H760V279.5H720V280.5ZM759.5 280V320H760.5V280H759.5ZM760 280.5H800V279.5H760V280.5ZM799.5 280V320H800.5V280H799.5ZM800 280.5H840V279.5H800V280.5ZM839.5 280V320H840.5V280H839.5ZM840 280.5H880V279.5H840V280.5ZM879.5 280V320H880.5V280H879.5ZM880 280.5H920V279.5H880V280.5ZM919.5 280V320H920.5V280H919.5ZM920 280.5H960V279.5H920V280.5ZM959.5 280V320H960.5V280H959.5ZM960 280.5H1000V279.5H960V280.5ZM999.5 280V320H1000.5V280H999.5ZM1000 280.5H1040V279.5H1000V280.5ZM1039.5 280V320H1040.5V280H1039.5ZM1040 280.5H1080V279.5H1040V280.5ZM1079.5 280V320H1080.5V280H1079.5ZM1080 280.5H1120V279.5H1080V280.5ZM1119.5 280V320H1120.5V280H1119.5ZM1120 280.5H1160V279.5H1120V280.5ZM1159.5 280V320H1160.5V280H1159.5ZM1160 280.5H1200V279.5H1160V280.5ZM1199.5 280V320H1200.5V280H1199.5ZM1200 280.5H1240V279.5H1200V280.5ZM1239.5 280V320H1240.5V280H1239.5ZM1240 280.5H1280V279.5H1240V280.5ZM1279.5 280V320H1280.5V280H1279.5ZM1280 280.5H1320V279.5H1280V280.5ZM1319.5 280V320H1320.5V280H1319.5ZM1320 280.5H1360V279.5H1320V280.5ZM1359.5 280V320H1360.5V280H1359.5ZM1360 280.5H1400V279.5H1360V280.5ZM1399.5 280V320H1400.5V280H1399.5ZM1400 280.5H1440V279.5H1400V280.5ZM1439.5 280V320H1440.5V280H1439.5ZM1440 280.5H1480V279.5H1440V280.5ZM1479.5 280V320H1480.5V280H1479.5ZM1480 280.5H1520V279.5H1480V280.5ZM1519.5 280V320H1520.5V280H1519.5ZM1520 280.5H1560V279.5H1520V280.5ZM1559.5 280V320H1560.5V280H1559.5ZM1560 280.5H1600V279.5H1560V280.5ZM1599.5 280V320H1600.5V280H1599.5ZM1600 280.5H1640V279.5H1600V280.5ZM1639.5 280V320H1640.5V280H1639.5ZM1640 280.5H1680V279.5H1640V280.5ZM1679.5 280V320H1680.5V280H1679.5ZM1680 280.5H1720V279.5H1680V280.5ZM1719.5 280V320H1720.5V280H1719.5ZM1720 280.5H1760V279.5H1720V280.5ZM1759.5 280V320H1760.5V280H1759.5ZM1760 280.5H1800V279.5H1760V280.5ZM-600 240.5H-560V239.5H-600V240.5ZM-560.5 240V280H-559.5V240H-560.5ZM-560 240.5H-520V239.5H-560V240.5ZM-520.5 240V280H-519.5V240H-520.5ZM-520 240.5H-480V239.5H-520V240.5ZM-480.5 240V280H-479.5V240H-480.5ZM-480 240.5H-440V239.5H-480V240.5ZM-440.5 240V280H-439.5V240H-440.5ZM-440 240.5H-400V239.5H-440V240.5ZM-400.5 240V280H-399.5V240H-400.5ZM-400 240.5H-360V239.5H-400V240.5ZM-360.5 240V280H-359.5V240H-360.5ZM-360 240.5H-320V239.5H-360V240.5ZM-320.5 240V280H-319.5V240H-320.5ZM-320 240.5H-280V239.5H-320V240.5ZM-280.5 240V280H-279.5V240H-280.5ZM-280 240.5H-240V239.5H-280V240.5ZM-240.5 240V280H-239.5V240H-240.5ZM-240 240.5H-200V239.5H-240V240.5ZM-200.5 240V280H-199.5V240H-200.5ZM-200 240.5H-160V239.5H-200V240.5ZM-160.5 240V280H-159.5V240H-160.5ZM-160 240.5H-120V239.5H-160V240.5ZM-120.5 240V280H-119.5V240H-120.5ZM-120 240.5H-80V239.5H-120V240.5ZM-80.5 240V280H-79.5V240H-80.5ZM-80 240.5H-40V239.5H-80V240.5ZM-40.5 240V280H-39.5V240H-40.5ZM-40 240.5H0V239.5H-40V240.5ZM-0.5 240V280H0.5V240H-0.5ZM0 240.5H40V239.5H0V240.5ZM39.5 240V280H40.5V240H39.5ZM40 240.5H80V239.5H40V240.5ZM79.5 240V280H80.5V240H79.5ZM80 240.5H120V239.5H80V240.5ZM119.5 240V280H120.5V240H119.5ZM120 240.5H160V239.5H120V240.5ZM159.5 240V280H160.5V240H159.5ZM160 240.5H200V239.5H160V240.5ZM199.5 240V280H200.5V240H199.5ZM200 240.5H240V239.5H200V240.5ZM239.5 240V280H240.5V240H239.5ZM240 240.5H280V239.5H240V240.5ZM279.5 240V280H280.5V240H279.5ZM280 240.5H320V239.5H280V240.5ZM319.5 240V280H320.5V240H319.5ZM320 240.5H360V239.5H320V240.5ZM359.5 240V280H360.5V240H359.5ZM360 240.5H400V239.5H360V240.5ZM399.5 240V280H400.5V240H399.5ZM400 240.5H440V239.5H400V240.5ZM439.5 240V280H440.5V240H439.5ZM440 240.5H480V239.5H440V240.5ZM479.5 240V280H480.5V240H479.5ZM480 240.5H520V239.5H480V240.5ZM519.5 240V280H520.5V240H519.5ZM520 240.5H560V239.5H520V240.5ZM559.5 240V280H560.5V240H559.5ZM560 240.5H600V239.5H560V240.5ZM599.5 240V280H600.5V240H599.5ZM600 240.5H640V239.5H600V240.5ZM639.5 240V280H640.5V240H639.5ZM640 240.5H680V239.5H640V240.5ZM679.5 240V280H680.5V240H679.5ZM680 240.5H720V239.5H680V240.5ZM719.5 240V280H720.5V240H719.5ZM720 240.5H760V239.5H720V240.5ZM759.5 240V280H760.5V240H759.5ZM760 240.5H800V239.5H760V240.5ZM799.5 240V280H800.5V240H799.5ZM800 240.5H840V239.5H800V240.5ZM839.5 240V280H840.5V240H839.5ZM840 240.5H880V239.5H840V240.5ZM879.5 240V280H880.5V240H879.5ZM880 240.5H920V239.5H880V240.5ZM919.5 240V280H920.5V240H919.5ZM920 240.5H960V239.5H920V240.5ZM959.5 240V280H960.5V240H959.5ZM960 240.5H1000V239.5H960V240.5ZM999.5 240V280H1000.5V240H999.5ZM1000 240.5H1040V239.5H1000V240.5ZM1039.5 240V280H1040.5V240H1039.5ZM1040 240.5H1080V239.5H1040V240.5ZM1079.5 240V280H1080.5V240H1079.5ZM1080 240.5H1120V239.5H1080V240.5ZM1119.5 240V280H1120.5V240H1119.5ZM1120 240.5H1160V239.5H1120V240.5ZM1159.5 240V280H1160.5V240H1159.5ZM1160 240.5H1200V239.5H1160V240.5ZM1199.5 240V280H1200.5V240H1199.5ZM1200 240.5H1240V239.5H1200V240.5ZM1239.5 240V280H1240.5V240H1239.5ZM1240 240.5H1280V239.5H1240V240.5ZM1279.5 240V280H1280.5V240H1279.5ZM1280 240.5H1320V239.5H1280V240.5ZM1319.5 240V280H1320.5V240H1319.5ZM1320 240.5H1360V239.5H1320V240.5ZM1359.5 240V280H1360.5V240H1359.5ZM1360 240.5H1400V239.5H1360V240.5ZM1399.5 240V280H1400.5V240H1399.5ZM1400 240.5H1440V239.5H1400V240.5ZM1439.5 240V280H1440.5V240H1439.5ZM1440 240.5H1480V239.5H1440V240.5ZM1479.5 240V280H1480.5V240H1479.5ZM1480 240.5H1520V239.5H1480V240.5ZM1519.5 240V280H1520.5V240H1519.5ZM1520 240.5H1560V239.5H1520V240.5ZM1559.5 240V280H1560.5V240H1559.5ZM1560 240.5H1600V239.5H1560V240.5ZM1599.5 240V280H1600.5V240H1599.5ZM1600 240.5H1640V239.5H1600V240.5ZM1639.5 240V280H1640.5V240H1639.5ZM1640 240.5H1680V239.5H1640V240.5ZM1679.5 240V280H1680.5V240H1679.5ZM1680 240.5H1720V239.5H1680V240.5ZM1719.5 240V280H1720.5V240H1719.5ZM1720 240.5H1760V239.5H1720V240.5ZM1759.5 240V280H1760.5V240H1759.5ZM1760 240.5H1800V239.5H1760V240.5ZM-600 200.5H-560V199.5H-600V200.5ZM-560.5 200V240H-559.5V200H-560.5ZM-560 200.5H-520V199.5H-560V200.5ZM-520.5 200V240H-519.5V200H-520.5ZM-520 200.5H-480V199.5H-520V200.5ZM-480.5 200V240H-479.5V200H-480.5ZM-480 200.5H-440V199.5H-480V200.5ZM-440.5 200V240H-439.5V200H-440.5ZM-440 200.5H-400V199.5H-440V200.5ZM-400.5 200V240H-399.5V200H-400.5ZM-400 200.5H-360V199.5H-400V200.5ZM-360.5 200V240H-359.5V200H-360.5ZM-360 200.5H-320V199.5H-360V200.5ZM-320.5 200V240H-319.5V200H-320.5ZM-320 200.5H-280V199.5H-320V200.5ZM-280.5 200V240H-279.5V200H-280.5ZM-280 200.5H-240V199.5H-280V200.5ZM-240.5 200V240H-239.5V200H-240.5ZM-240 200.5H-200V199.5H-240V200.5ZM-200.5 200V240H-199.5V200H-200.5ZM-200 200.5H-160V199.5H-200V200.5ZM-160.5 200V240H-159.5V200H-160.5ZM-160 200.5H-120V199.5H-160V200.5ZM-120.5 200V240H-119.5V200H-120.5ZM-120 200.5H-80V199.5H-120V200.5ZM-80.5 200V240H-79.5V200H-80.5ZM-80 200.5H-40V199.5H-80V200.5ZM-40.5 200V240H-39.5V200H-40.5ZM-40 200.5H0V199.5H-40V200.5ZM-0.5 200V240H0.5V200H-0.5ZM0 200.5H40V199.5H0V200.5ZM39.5 200V240H40.5V200H39.5ZM40 200.5H80V199.5H40V200.5ZM79.5 200V240H80.5V200H79.5ZM80 200.5H120V199.5H80V200.5ZM119.5 200V240H120.5V200H119.5ZM120 200.5H160V199.5H120V200.5ZM159.5 200V240H160.5V200H159.5ZM160 200.5H200V199.5H160V200.5ZM199.5 200V240H200.5V200H199.5ZM200 200.5H240V199.5H200V200.5ZM239.5 200V240H240.5V200H239.5ZM240 200.5H280V199.5H240V200.5ZM279.5 200V240H280.5V200H279.5ZM280 200.5H320V199.5H280V200.5ZM319.5 200V240H320.5V200H319.5ZM320 200.5H360V199.5H320V200.5ZM359.5 200V240H360.5V200H359.5ZM360 200.5H400V199.5H360V200.5ZM399.5 200V240H400.5V200H399.5ZM400 200.5H440V199.5H400V200.5ZM439.5 200V240H440.5V200H439.5ZM440 200.5H480V199.5H440V200.5ZM479.5 200V240H480.5V200H479.5ZM480 200.5H520V199.5H480V200.5ZM519.5 200V240H520.5V200H519.5ZM520 200.5H560V199.5H520V200.5ZM559.5 200V240H560.5V200H559.5ZM560 200.5H600V199.5H560V200.5ZM599.5 200V240H600.5V200H599.5ZM600 200.5H640V199.5H600V200.5ZM639.5 200V240H640.5V200H639.5ZM640 200.5H680V199.5H640V200.5ZM679.5 200V240H680.5V200H679.5ZM680 200.5H720V199.5H680V200.5ZM719.5 200V240H720.5V200H719.5ZM720 200.5H760V199.5H720V200.5ZM759.5 200V240H760.5V200H759.5ZM760 200.5H800V199.5H760V200.5ZM799.5 200V240H800.5V200H799.5ZM800 200.5H840V199.5H800V200.5ZM839.5 200V240H840.5V200H839.5ZM840 200.5H880V199.5H840V200.5ZM879.5 200V240H880.5V200H879.5ZM880 200.5H920V199.5H880V200.5ZM919.5 200V240H920.5V200H919.5ZM920 200.5H960V199.5H920V200.5ZM959.5 200V240H960.5V200H959.5ZM960 200.5H1000V199.5H960V200.5ZM999.5 200V240H1000.5V200H999.5ZM1000 200.5H1040V199.5H1000V200.5ZM1039.5 200V240H1040.5V200H1039.5ZM1040 200.5H1080V199.5H1040V200.5ZM1079.5 200V240H1080.5V200H1079.5ZM1080 200.5H1120V199.5H1080V200.5ZM1119.5 200V240H1120.5V200H1119.5ZM1120 200.5H1160V199.5H1120V200.5ZM1159.5 200V240H1160.5V200H1159.5ZM1160 200.5H1200V199.5H1160V200.5ZM1199.5 200V240H1200.5V200H1199.5ZM1200 200.5H1240V199.5H1200V200.5ZM1239.5 200V240H1240.5V200H1239.5ZM1240 200.5H1280V199.5H1240V200.5ZM1279.5 200V240H1280.5V200H1279.5ZM1280 200.5H1320V199.5H1280V200.5ZM1319.5 200V240H1320.5V200H1319.5ZM1320 200.5H1360V199.5H1320V200.5ZM1359.5 200V240H1360.5V200H1359.5ZM1360 200.5H1400V199.5H1360V200.5ZM1399.5 200V240H1400.5V200H1399.5ZM1400 200.5H1440V199.5H1400V200.5ZM1439.5 200V240H1440.5V200H1439.5ZM1440 200.5H1480V199.5H1440V200.5ZM1479.5 200V240H1480.5V200H1479.5ZM1480 200.5H1520V199.5H1480V200.5ZM1519.5 200V240H1520.5V200H1519.5ZM1520 200.5H1560V199.5H1520V200.5ZM1559.5 200V240H1560.5V200H1559.5ZM1560 200.5H1600V199.5H1560V200.5ZM1599.5 200V240H1600.5V200H1599.5ZM1600 200.5H1640V199.5H1600V200.5ZM1639.5 200V240H1640.5V200H1639.5ZM1640 200.5H1680V199.5H1640V200.5ZM1679.5 200V240H1680.5V200H1679.5ZM1680 200.5H1720V199.5H1680V200.5ZM1719.5 200V240H1720.5V200H1719.5ZM1720 200.5H1760V199.5H1720V200.5ZM1759.5 200V240H1760.5V200H1759.5ZM1760 200.5H1800V199.5H1760V200.5ZM-600 160.5H-560V159.5H-600V160.5ZM-560.5 160V200H-559.5V160H-560.5ZM-560 160.5H-520V159.5H-560V160.5ZM-520.5 160V200H-519.5V160H-520.5ZM-520 160.5H-480V159.5H-520V160.5ZM-480.5 160V200H-479.5V160H-480.5ZM-480 160.5H-440V159.5H-480V160.5ZM-440.5 160V200H-439.5V160H-440.5ZM-440 160.5H-400V159.5H-440V160.5ZM-400.5 160V200H-399.5V160H-400.5ZM-400 160.5H-360V159.5H-400V160.5ZM-360.5 160V200H-359.5V160H-360.5ZM-360 160.5H-320V159.5H-360V160.5ZM-320.5 160V200H-319.5V160H-320.5ZM-320 160.5H-280V159.5H-320V160.5ZM-280.5 160V200H-279.5V160H-280.5ZM-280 160.5H-240V159.5H-280V160.5ZM-240.5 160V200H-239.5V160H-240.5ZM-240 160.5H-200V159.5H-240V160.5ZM-200.5 160V200H-199.5V160H-200.5ZM-200 160.5H-160V159.5H-200V160.5ZM-160.5 160V200H-159.5V160H-160.5ZM-160 160.5H-120V159.5H-160V160.5ZM-120.5 160V200H-119.5V160H-120.5ZM-120 160.5H-80V159.5H-120V160.5ZM-80.5 160V200H-79.5V160H-80.5ZM-80 160.5H-40V159.5H-80V160.5ZM-40.5 160V200H-39.5V160H-40.5ZM-40 160.5H0V159.5H-40V160.5ZM-0.5 160V200H0.5V160H-0.5ZM0 160.5H40V159.5H0V160.5ZM39.5 160V200H40.5V160H39.5ZM40 160.5H80V159.5H40V160.5ZM79.5 160V200H80.5V160H79.5ZM80 160.5H120V159.5H80V160.5ZM119.5 160V200H120.5V160H119.5ZM120 160.5H160V159.5H120V160.5ZM159.5 160V200H160.5V160H159.5ZM160 160.5H200V159.5H160V160.5ZM199.5 160V200H200.5V160H199.5ZM200 160.5H240V159.5H200V160.5ZM239.5 160V200H240.5V160H239.5ZM240 160.5H280V159.5H240V160.5ZM279.5 160V200H280.5V160H279.5ZM280 160.5H320V159.5H280V160.5ZM319.5 160V200H320.5V160H319.5ZM320 160.5H360V159.5H320V160.5ZM359.5 160V200H360.5V160H359.5ZM360 160.5H400V159.5H360V160.5ZM399.5 160V200H400.5V160H399.5ZM400 160.5H440V159.5H400V160.5ZM439.5 160V200H440.5V160H439.5ZM440 160.5H480V159.5H440V160.5ZM479.5 160V200H480.5V160H479.5ZM480 160.5H520V159.5H480V160.5ZM519.5 160V200H520.5V160H519.5ZM520 160.5H560V159.5H520V160.5ZM559.5 160V200H560.5V160H559.5ZM560 160.5H600V159.5H560V160.5ZM599.5 160V200H600.5V160H599.5ZM600 160.5H640V159.5H600V160.5ZM639.5 160V200H640.5V160H639.5ZM640 160.5H680V159.5H640V160.5ZM679.5 160V200H680.5V160H679.5ZM680 160.5H720V159.5H680V160.5ZM719.5 160V200H720.5V160H719.5ZM720 160.5H760V159.5H720V160.5ZM759.5 160V200H760.5V160H759.5ZM760 160.5H800V159.5H760V160.5ZM799.5 160V200H800.5V160H799.5ZM800 160.5H840V159.5H800V160.5ZM839.5 160V200H840.5V160H839.5ZM840 160.5H880V159.5H840V160.5ZM879.5 160V200H880.5V160H879.5ZM880 160.5H920V159.5H880V160.5ZM919.5 160V200H920.5V160H919.5ZM920 160.5H960V159.5H920V160.5ZM959.5 160V200H960.5V160H959.5ZM960 160.5H1000V159.5H960V160.5ZM999.5 160V200H1000.5V160H999.5ZM1000 160.5H1040V159.5H1000V160.5ZM1039.5 160V200H1040.5V160H1039.5ZM1040 160.5H1080V159.5H1040V160.5ZM1079.5 160V200H1080.5V160H1079.5ZM1080 160.5H1120V159.5H1080V160.5ZM1119.5 160V200H1120.5V160H1119.5ZM1120 160.5H1160V159.5H1120V160.5ZM1159.5 160V200H1160.5V160H1159.5ZM1160 160.5H1200V159.5H1160V160.5ZM1199.5 160V200H1200.5V160H1199.5ZM1200 160.5H1240V159.5H1200V160.5ZM1239.5 160V200H1240.5V160H1239.5ZM1240 160.5H1280V159.5H1240V160.5ZM1279.5 160V200H1280.5V160H1279.5ZM1280 160.5H1320V159.5H1280V160.5ZM1319.5 160V200H1320.5V160H1319.5ZM1320 160.5H1360V159.5H1320V160.5ZM1359.5 160V200H1360.5V160H1359.5ZM1360 160.5H1400V159.5H1360V160.5ZM1399.5 160V200H1400.5V160H1399.5ZM1400 160.5H1440V159.5H1400V160.5ZM1439.5 160V200H1440.5V160H1439.5ZM1440 160.5H1480V159.5H1440V160.5ZM1479.5 160V200H1480.5V160H1479.5ZM1480 160.5H1520V159.5H1480V160.5ZM1519.5 160V200H1520.5V160H1519.5ZM1520 160.5H1560V159.5H1520V160.5ZM1559.5 160V200H1560.5V160H1559.5ZM1560 160.5H1600V159.5H1560V160.5ZM1599.5 160V200H1600.5V160H1599.5ZM1600 160.5H1640V159.5H1600V160.5ZM1639.5 160V200H1640.5V160H1639.5ZM1640 160.5H1680V159.5H1640V160.5ZM1679.5 160V200H1680.5V160H1679.5ZM1680 160.5H1720V159.5H1680V160.5ZM1719.5 160V200H1720.5V160H1719.5ZM1720 160.5H1760V159.5H1720V160.5ZM1759.5 160V200H1760.5V160H1759.5ZM1760 160.5H1800V159.5H1760V160.5ZM-600 120.5H-560V119.5H-600V120.5ZM-560.5 120V160H-559.5V120H-560.5ZM-560 120.5H-520V119.5H-560V120.5ZM-520.5 120V160H-519.5V120H-520.5ZM-520 120.5H-480V119.5H-520V120.5ZM-480.5 120V160H-479.5V120H-480.5ZM-480 120.5H-440V119.5H-480V120.5ZM-440.5 120V160H-439.5V120H-440.5ZM-440 120.5H-400V119.5H-440V120.5ZM-400.5 120V160H-399.5V120H-400.5ZM-400 120.5H-360V119.5H-400V120.5ZM-360.5 120V160H-359.5V120H-360.5ZM-360 120.5H-320V119.5H-360V120.5ZM-320.5 120V160H-319.5V120H-320.5ZM-320 120.5H-280V119.5H-320V120.5ZM-280.5 120V160H-279.5V120H-280.5ZM-280 120.5H-240V119.5H-280V120.5ZM-240.5 120V160H-239.5V120H-240.5ZM-240 120.5H-200V119.5H-240V120.5ZM-200.5 120V160H-199.5V120H-200.5ZM-200 120.5H-160V119.5H-200V120.5ZM-160.5 120V160H-159.5V120H-160.5ZM-160 120.5H-120V119.5H-160V120.5ZM-120.5 120V160H-119.5V120H-120.5ZM-120 120.5H-80V119.5H-120V120.5ZM-80.5 120V160H-79.5V120H-80.5ZM-80 120.5H-40V119.5H-80V120.5ZM-40.5 120V160H-39.5V120H-40.5ZM-40 120.5H0V119.5H-40V120.5ZM-0.5 120V160H0.5V120H-0.5ZM0 120.5H40V119.5H0V120.5ZM39.5 120V160H40.5V120H39.5ZM40 120.5H80V119.5H40V120.5ZM79.5 120V160H80.5V120H79.5ZM80 120.5H120V119.5H80V120.5ZM119.5 120V160H120.5V120H119.5ZM120 120.5H160V119.5H120V120.5ZM159.5 120V160H160.5V120H159.5ZM160 120.5H200V119.5H160V120.5ZM199.5 120V160H200.5V120H199.5ZM200 120.5H240V119.5H200V120.5ZM239.5 120V160H240.5V120H239.5ZM240 120.5H280V119.5H240V120.5ZM279.5 120V160H280.5V120H279.5ZM280 120.5H320V119.5H280V120.5ZM319.5 120V160H320.5V120H319.5ZM320 120.5H360V119.5H320V120.5ZM359.5 120V160H360.5V120H359.5ZM360 120.5H400V119.5H360V120.5ZM399.5 120V160H400.5V120H399.5ZM400 120.5H440V119.5H400V120.5ZM439.5 120V160H440.5V120H439.5ZM440 120.5H480V119.5H440V120.5ZM479.5 120V160H480.5V120H479.5ZM480 120.5H520V119.5H480V120.5ZM519.5 120V160H520.5V120H519.5ZM520 120.5H560V119.5H520V120.5ZM559.5 120V160H560.5V120H559.5ZM560 120.5H600V119.5H560V120.5ZM599.5 120V160H600.5V120H599.5ZM600 120.5H640V119.5H600V120.5ZM639.5 120V160H640.5V120H639.5ZM640 120.5H680V119.5H640V120.5ZM679.5 120V160H680.5V120H679.5ZM680 120.5H720V119.5H680V120.5ZM719.5 120V160H720.5V120H719.5ZM720 120.5H760V119.5H720V120.5ZM759.5 120V160H760.5V120H759.5ZM760 120.5H800V119.5H760V120.5ZM799.5 120V160H800.5V120H799.5ZM800 120.5H840V119.5H800V120.5ZM839.5 120V160H840.5V120H839.5ZM840 120.5H880V119.5H840V120.5ZM879.5 120V160H880.5V120H879.5ZM880 120.5H920V119.5H880V120.5ZM919.5 120V160H920.5V120H919.5ZM920 120.5H960V119.5H920V120.5ZM959.5 120V160H960.5V120H959.5ZM960 120.5H1000V119.5H960V120.5ZM999.5 120V160H1000.5V120H999.5ZM1000 120.5H1040V119.5H1000V120.5ZM1039.5 120V160H1040.5V120H1039.5ZM1040 120.5H1080V119.5H1040V120.5ZM1079.5 120V160H1080.5V120H1079.5ZM1080 120.5H1120V119.5H1080V120.5ZM1119.5 120V160H1120.5V120H1119.5ZM1120 120.5H1160V119.5H1120V120.5ZM1159.5 120V160H1160.5V120H1159.5ZM1160 120.5H1200V119.5H1160V120.5ZM1199.5 120V160H1200.5V120H1199.5ZM1200 120.5H1240V119.5H1200V120.5ZM1239.5 120V160H1240.5V120H1239.5ZM1240 120.5H1280V119.5H1240V120.5ZM1279.5 120V160H1280.5V120H1279.5ZM1280 120.5H1320V119.5H1280V120.5ZM1319.5 120V160H1320.5V120H1319.5ZM1320 120.5H1360V119.5H1320V120.5ZM1359.5 120V160H1360.5V120H1359.5ZM1360 120.5H1400V119.5H1360V120.5ZM1399.5 120V160H1400.5V120H1399.5ZM1400 120.5H1440V119.5H1400V120.5ZM1439.5 120V160H1440.5V120H1439.5ZM1440 120.5H1480V119.5H1440V120.5ZM1479.5 120V160H1480.5V120H1479.5ZM1480 120.5H1520V119.5H1480V120.5ZM1519.5 120V160H1520.5V120H1519.5ZM1520 120.5H1560V119.5H1520V120.5ZM1559.5 120V160H1560.5V120H1559.5ZM1560 120.5H1600V119.5H1560V120.5ZM1599.5 120V160H1600.5V120H1599.5ZM1600 120.5H1640V119.5H1600V120.5ZM1639.5 120V160H1640.5V120H1639.5ZM1640 120.5H1680V119.5H1640V120.5ZM1679.5 120V160H1680.5V120H1679.5ZM1680 120.5H1720V119.5H1680V120.5ZM1719.5 120V160H1720.5V120H1719.5ZM1720 120.5H1760V119.5H1720V120.5ZM1759.5 120V160H1760.5V120H1759.5ZM1760 120.5H1800V119.5H1760V120.5ZM-600 80.5H-560V79.5H-600V80.5ZM-560.5 80V120H-559.5V80H-560.5ZM-560 80.5H-520V79.5H-560V80.5ZM-520.5 80V120H-519.5V80H-520.5ZM-520 80.5H-480V79.5H-520V80.5ZM-480.5 80V120H-479.5V80H-480.5ZM-480 80.5H-440V79.5H-480V80.5ZM-440.5 80V120H-439.5V80H-440.5ZM-440 80.5H-400V79.5H-440V80.5ZM-400.5 80V120H-399.5V80H-400.5ZM-400 80.5H-360V79.5H-400V80.5ZM-360.5 80V120H-359.5V80H-360.5ZM-360 80.5H-320V79.5H-360V80.5ZM-320.5 80V120H-319.5V80H-320.5ZM-320 80.5H-280V79.5H-320V80.5ZM-280.5 80V120H-279.5V80H-280.5ZM-280 80.5H-240V79.5H-280V80.5ZM-240.5 80V120H-239.5V80H-240.5ZM-240 80.5H-200V79.5H-240V80.5ZM-200.5 80V120H-199.5V80H-200.5ZM-200 80.5H-160V79.5H-200V80.5ZM-160.5 80V120H-159.5V80H-160.5ZM-160 80.5H-120V79.5H-160V80.5ZM-120.5 80V120H-119.5V80H-120.5ZM-120 80.5H-80V79.5H-120V80.5ZM-80.5 80V120H-79.5V80H-80.5ZM-80 80.5H-40V79.5H-80V80.5ZM-40.5 80V120H-39.5V80H-40.5ZM-40 80.5H0V79.5H-40V80.5ZM-0.5 80V120H0.5V80H-0.5ZM0 80.5H40V79.5H0V80.5ZM39.5 80V120H40.5V80H39.5ZM40 80.5H80V79.5H40V80.5ZM79.5 80V120H80.5V80H79.5ZM80 80.5H120V79.5H80V80.5ZM119.5 80V120H120.5V80H119.5ZM120 80.5H160V79.5H120V80.5ZM159.5 80V120H160.5V80H159.5ZM160 80.5H200V79.5H160V80.5ZM199.5 80V120H200.5V80H199.5ZM200 80.5H240V79.5H200V80.5ZM239.5 80V120H240.5V80H239.5ZM240 80.5H280V79.5H240V80.5ZM279.5 80V120H280.5V80H279.5ZM280 80.5H320V79.5H280V80.5ZM319.5 80V120H320.5V80H319.5ZM320 80.5H360V79.5H320V80.5ZM359.5 80V120H360.5V80H359.5ZM360 80.5H400V79.5H360V80.5ZM399.5 80V120H400.5V80H399.5ZM400 80.5H440V79.5H400V80.5ZM439.5 80V120H440.5V80H439.5ZM440 80.5H480V79.5H440V80.5ZM479.5 80V120H480.5V80H479.5ZM480 80.5H520V79.5H480V80.5ZM519.5 80V120H520.5V80H519.5ZM520 80.5H560V79.5H520V80.5ZM559.5 80V120H560.5V80H559.5ZM560 80.5H600V79.5H560V80.5ZM599.5 80V120H600.5V80H599.5ZM600 80.5H640V79.5H600V80.5ZM639.5 80V120H640.5V80H639.5ZM640 80.5H680V79.5H640V80.5ZM679.5 80V120H680.5V80H679.5ZM680 80.5H720V79.5H680V80.5ZM719.5 80V120H720.5V80H719.5ZM720 80.5H760V79.5H720V80.5ZM759.5 80V120H760.5V80H759.5ZM760 80.5H800V79.5H760V80.5ZM799.5 80V120H800.5V80H799.5ZM800 80.5H840V79.5H800V80.5ZM839.5 80V120H840.5V80H839.5ZM840 80.5H880V79.5H840V80.5ZM879.5 80V120H880.5V80H879.5ZM880 80.5H920V79.5H880V80.5ZM919.5 80V120H920.5V80H919.5ZM920 80.5H960V79.5H920V80.5ZM959.5 80V120H960.5V80H959.5ZM960 80.5H1000V79.5H960V80.5ZM999.5 80V120H1000.5V80H999.5ZM1000 80.5H1040V79.5H1000V80.5ZM1039.5 80V120H1040.5V80H1039.5ZM1040 80.5H1080V79.5H1040V80.5ZM1079.5 80V120H1080.5V80H1079.5ZM1080 80.5H1120V79.5H1080V80.5ZM1119.5 80V120H1120.5V80H1119.5ZM1120 80.5H1160V79.5H1120V80.5ZM1159.5 80V120H1160.5V80H1159.5ZM1160 80.5H1200V79.5H1160V80.5ZM1199.5 80V120H1200.5V80H1199.5ZM1200 80.5H1240V79.5H1200V80.5ZM1239.5 80V120H1240.5V80H1239.5ZM1240 80.5H1280V79.5H1240V80.5ZM1279.5 80V120H1280.5V80H1279.5ZM1280 80.5H1320V79.5H1280V80.5ZM1319.5 80V120H1320.5V80H1319.5ZM1320 80.5H1360V79.5H1320V80.5ZM1359.5 80V120H1360.5V80H1359.5ZM1360 80.5H1400V79.5H1360V80.5ZM1399.5 80V120H1400.5V80H1399.5ZM1400 80.5H1440V79.5H1400V80.5ZM1439.5 80V120H1440.5V80H1439.5ZM1440 80.5H1480V79.5H1440V80.5ZM1479.5 80V120H1480.5V80H1479.5ZM1480 80.5H1520V79.5H1480V80.5ZM1519.5 80V120H1520.5V80H1519.5ZM1520 80.5H1560V79.5H1520V80.5ZM1559.5 80V120H1560.5V80H1559.5ZM1560 80.5H1600V79.5H1560V80.5ZM1599.5 80V120H1600.5V80H1599.5ZM1600 80.5H1640V79.5H1600V80.5ZM1639.5 80V120H1640.5V80H1639.5ZM1640 80.5H1680V79.5H1640V80.5ZM1679.5 80V120H1680.5V80H1679.5ZM1680 80.5H1720V79.5H1680V80.5ZM1719.5 80V120H1720.5V80H1719.5ZM1720 80.5H1760V79.5H1720V80.5ZM1759.5 80V120H1760.5V80H1759.5ZM1760 80.5H1800V79.5H1760V80.5ZM-600 40.5H-560V39.5H-600V40.5ZM-560.5 40V80H-559.5V40H-560.5ZM-560 40.5H-520V39.5H-560V40.5ZM-520.5 40V80H-519.5V40H-520.5ZM-520 40.5H-480V39.5H-520V40.5ZM-480.5 40V80H-479.5V40H-480.5ZM-480 40.5H-440V39.5H-480V40.5ZM-440.5 40V80H-439.5V40H-440.5ZM-440 40.5H-400V39.5H-440V40.5ZM-400.5 40V80H-399.5V40H-400.5ZM-400 40.5H-360V39.5H-400V40.5ZM-360.5 40V80H-359.5V40H-360.5ZM-360 40.5H-320V39.5H-360V40.5ZM-320.5 40V80H-319.5V40H-320.5ZM-320 40.5H-280V39.5H-320V40.5ZM-280.5 40V80H-279.5V40H-280.5ZM-280 40.5H-240V39.5H-280V40.5ZM-240.5 40V80H-239.5V40H-240.5ZM-240 40.5H-200V39.5H-240V40.5ZM-200.5 40V80H-199.5V40H-200.5ZM-200 40.5H-160V39.5H-200V40.5ZM-160.5 40V80H-159.5V40H-160.5ZM-160 40.5H-120V39.5H-160V40.5ZM-120.5 40V80H-119.5V40H-120.5ZM-120 40.5H-80V39.5H-120V40.5ZM-80.5 40V80H-79.5V40H-80.5ZM-80 40.5H-40V39.5H-80V40.5ZM-40.5 40V80H-39.5V40H-40.5ZM-40 40.5H0V39.5H-40V40.5ZM-0.5 40V80H0.5V40H-0.5ZM0 40.5H40V39.5H0V40.5ZM39.5 40V80H40.5V40H39.5ZM40 40.5H80V39.5H40V40.5ZM79.5 40V80H80.5V40H79.5ZM80 40.5H120V39.5H80V40.5ZM119.5 40V80H120.5V40H119.5ZM120 40.5H160V39.5H120V40.5ZM159.5 40V80H160.5V40H159.5ZM160 40.5H200V39.5H160V40.5ZM199.5 40V80H200.5V40H199.5ZM200 40.5H240V39.5H200V40.5ZM239.5 40V80H240.5V40H239.5ZM240 40.5H280V39.5H240V40.5ZM279.5 40V80H280.5V40H279.5ZM280 40.5H320V39.5H280V40.5ZM319.5 40V80H320.5V40H319.5ZM320 40.5H360V39.5H320V40.5ZM359.5 40V80H360.5V40H359.5ZM360 40.5H400V39.5H360V40.5ZM399.5 40V80H400.5V40H399.5ZM400 40.5H440V39.5H400V40.5ZM439.5 40V80H440.5V40H439.5ZM440 40.5H480V39.5H440V40.5ZM479.5 40V80H480.5V40H479.5ZM480 40.5H520V39.5H480V40.5ZM519.5 40V80H520.5V40H519.5ZM520 40.5H560V39.5H520V40.5ZM559.5 40V80H560.5V40H559.5ZM560 40.5H600V39.5H560V40.5ZM599.5 40V80H600.5V40H599.5ZM600 40.5H640V39.5H600V40.5ZM639.5 40V80H640.5V40H639.5ZM640 40.5H680V39.5H640V40.5ZM679.5 40V80H680.5V40H679.5ZM680 40.5H720V39.5H680V40.5ZM719.5 40V80H720.5V40H719.5ZM720 40.5H760V39.5H720V40.5ZM759.5 40V80H760.5V40H759.5ZM760 40.5H800V39.5H760V40.5ZM799.5 40V80H800.5V40H799.5ZM800 40.5H840V39.5H800V40.5ZM839.5 40V80H840.5V40H839.5ZM840 40.5H880V39.5H840V40.5ZM879.5 40V80H880.5V40H879.5ZM880 40.5H920V39.5H880V40.5ZM919.5 40V80H920.5V40H919.5ZM920 40.5H960V39.5H920V40.5ZM959.5 40V80H960.5V40H959.5ZM960 40.5H1000V39.5H960V40.5ZM999.5 40V80H1000.5V40H999.5ZM1000 40.5H1040V39.5H1000V40.5ZM1039.5 40V80H1040.5V40H1039.5ZM1040 40.5H1080V39.5H1040V40.5ZM1079.5 40V80H1080.5V40H1079.5ZM1080 40.5H1120V39.5H1080V40.5ZM1119.5 40V80H1120.5V40H1119.5ZM1120 40.5H1160V39.5H1120V40.5ZM1159.5 40V80H1160.5V40H1159.5ZM1160 40.5H1200V39.5H1160V40.5ZM1199.5 40V80H1200.5V40H1199.5ZM1200 40.5H1240V39.5H1200V40.5ZM1239.5 40V80H1240.5V40H1239.5ZM1240 40.5H1280V39.5H1240V40.5ZM1279.5 40V80H1280.5V40H1279.5ZM1280 40.5H1320V39.5H1280V40.5ZM1319.5 40V80H1320.5V40H1319.5ZM1320 40.5H1360V39.5H1320V40.5ZM1359.5 40V80H1360.5V40H1359.5ZM1360 40.5H1400V39.5H1360V40.5ZM1399.5 40V80H1400.5V40H1399.5ZM1400 40.5H1440V39.5H1400V40.5ZM1439.5 40V80H1440.5V40H1439.5ZM1440 40.5H1480V39.5H1440V40.5ZM1479.5 40V80H1480.5V40H1479.5ZM1480 40.5H1520V39.5H1480V40.5ZM1519.5 40V80H1520.5V40H1519.5ZM1520 40.5H1560V39.5H1520V40.5ZM1559.5 40V80H1560.5V40H1559.5ZM1560 40.5H1600V39.5H1560V40.5ZM1599.5 40V80H1600.5V40H1599.5ZM1600 40.5H1640V39.5H1600V40.5ZM1639.5 40V80H1640.5V40H1639.5ZM1640 40.5H1680V39.5H1640V40.5ZM1679.5 40V80H1680.5V40H1679.5ZM1680 40.5H1720V39.5H1680V40.5ZM1719.5 40V80H1720.5V40H1719.5ZM1720 40.5H1760V39.5H1720V40.5ZM1759.5 40V80H1760.5V40H1759.5ZM1760 40.5H1800V39.5H1760V40.5ZM-560.5 0V40H-559.5V0H-560.5ZM-520.5 0V40H-519.5V0H-520.5ZM-480.5 0V40H-479.5V0H-480.5ZM-440.5 0V40H-439.5V0H-440.5ZM-400.5 0V40H-399.5V0H-400.5ZM-360.5 0V40H-359.5V0H-360.5ZM-320.5 0V40H-319.5V0H-320.5ZM-280.5 0V40H-279.5V0H-280.5ZM-240.5 0V40H-239.5V0H-240.5ZM-200.5 0V40H-199.5V0H-200.5ZM-160.5 0V40H-159.5V0H-160.5ZM-120.5 0V40H-119.5V0H-120.5ZM-80.5 0V40H-79.5V0H-80.5ZM-40.5 0V40H-39.5V0H-40.5ZM-0.5 0V40H0.5V0H-0.5ZM39.5 0V40H40.5V0H39.5ZM79.5 0V40H80.5V0H79.5ZM119.5 0V40H120.5V0H119.5ZM159.5 0V40H160.5V0H159.5ZM199.5 0V40H200.5V0H199.5ZM239.5 0V40H240.5V0H239.5ZM279.5 0V40H280.5V0H279.5ZM319.5 0V40H320.5V0H319.5ZM359.5 0V40H360.5V0H359.5ZM399.5 0V40H400.5V0H399.5ZM439.5 0V40H440.5V0H439.5ZM479.5 0V40H480.5V0H479.5ZM519.5 0V40H520.5V0H519.5ZM559.5 0V40H560.5V0H559.5ZM599.5 0V40H600.5V0H599.5ZM639.5 0V40H640.5V0H639.5ZM679.5 0V40H680.5V0H679.5ZM719.5 0V40H720.5V0H719.5ZM759.5 0V40H760.5V0H759.5ZM799.5 0V40H800.5V0H799.5ZM839.5 0V40H840.5V0H839.5ZM879.5 0V40H880.5V0H879.5ZM919.5 0V40H920.5V0H919.5ZM959.5 0V40H960.5V0H959.5ZM999.5 0V40H1000.5V0H999.5ZM1039.5 0V40H1040.5V0H1039.5ZM1079.5 0V40H1080.5V0H1079.5ZM1119.5 0V40H1120.5V0H1119.5ZM1159.5 0V40H1160.5V0H1159.5ZM1199.5 0V40H1200.5V0H1199.5ZM1239.5 0V40H1240.5V0H1239.5ZM1279.5 0V40H1280.5V0H1279.5ZM1319.5 0V40H1320.5V0H1319.5ZM1359.5 0V40H1360.5V0H1359.5ZM1399.5 0V40H1400.5V0H1399.5ZM1439.5 0V40H1440.5V0H1439.5ZM1479.5 0V40H1480.5V0H1479.5ZM1519.5 0V40H1520.5V0H1519.5ZM1559.5 0V40H1560.5V0H1559.5ZM1599.5 0V40H1600.5V0H1599.5ZM1639.5 0V40H1640.5V0H1639.5ZM1679.5 0V40H1680.5V0H1679.5ZM1719.5 0V40H1720.5V0H1719.5ZM1759.5 0V40H1760.5V0H1759.5ZM-600 400H-601V401H-600V400ZM1800 400V401H1801V400H1800ZM-600 0V-1H-601V0H-600ZM1800 0H1801V-1H1800V0ZM-560 399H-600V401H-560V399ZM-599 400V360H-601V400H-599ZM-520 399H-560V401H-520V399ZM-480 399H-520V401H-480V399ZM-440 399H-480V401H-440V399ZM-400 399H-440V401H-400V399ZM-360 399H-400V401H-360V399ZM-320 399H-360V401H-320V399ZM-280 399H-320V401H-280V399ZM-240 399H-280V401H-240V399ZM-200 399H-240V401H-200V399ZM-160 399H-200V401H-160V399ZM-120 399H-160V401H-120V399ZM-80 399H-120V401H-80V399ZM-40 399H-80V401H-40V399ZM0 399H-40V401H0V399ZM40 399H0V401H40V399ZM80 399H40V401H80V399ZM120 399H80V401H120V399ZM160 399H120V401H160V399ZM200 399H160V401H200V399ZM240 399H200V401H240V399ZM280 399H240V401H280V399ZM320 399H280V401H320V399ZM360 399H320V401H360V399ZM400 399H360V401H400V399ZM440 399H400V401H440V399ZM480 399H440V401H480V399ZM520 399H480V401H520V399ZM560 399H520V401H560V399ZM600 399H560V401H600V399ZM640 399H600V401H640V399ZM680 399H640V401H680V399ZM720 399H680V401H720V399ZM760 399H720V401H760V399ZM800 399H760V401H800V399ZM840 399H800V401H840V399ZM880 399H840V401H880V399ZM920 399H880V401H920V399ZM960 399H920V401H960V399ZM1000 399H960V401H1000V399ZM1040 399H1000V401H1040V399ZM1080 399H1040V401H1080V399ZM1120 399H1080V401H1120V399ZM1160 399H1120V401H1160V399ZM1200 399H1160V401H1200V399ZM1240 399H1200V401H1240V399ZM1280 399H1240V401H1280V399ZM1320 399H1280V401H1320V399ZM1360 399H1320V401H1360V399ZM1400 399H1360V401H1400V399ZM1440 399H1400V401H1440V399ZM1480 399H1440V401H1480V399ZM1520 399H1480V401H1520V399ZM1560 399H1520V401H1560V399ZM1600 399H1560V401H1600V399ZM1640 399H1600V401H1640V399ZM1680 399H1640V401H1680V399ZM1720 399H1680V401H1720V399ZM1760 399H1720V401H1760V399ZM1799 360V400H1801V360H1799ZM1800 399H1760V401H1800V399ZM-599 360V320H-601V360H-599ZM1799 320V360H1801V320H1799ZM-599 320V280H-601V320H-599ZM1799 280V320H1801V280H1799ZM-599 280V240H-601V280H-599ZM1799 240V280H1801V240H1799ZM-599 240V200H-601V240H-599ZM1799 200V240H1801V200H1799ZM-599 200V160H-601V200H-599ZM1799 160V200H1801V160H1799ZM-599 160V120H-601V160H-599ZM1799 120V160H1801V120H1799ZM-599 120V80H-601V120H-599ZM1799 80V120H1801V80H1799ZM-599 80V40H-601V80H-599ZM1799 40V80H1801V40H1799ZM-600 1H-560V-1H-600V1ZM-599 40V0H-601V40H-599ZM-560 1H-520V-1H-560V1ZM-520 1H-480V-1H-520V1ZM-480 1H-440V-1H-480V1ZM-440 1H-400V-1H-440V1ZM-400 1H-360V-1H-400V1ZM-360 1H-320V-1H-360V1ZM-320 1H-280V-1H-320V1ZM-280 1H-240V-1H-280V1ZM-240 1H-200V-1H-240V1ZM-200 1H-160V-1H-200V1ZM-160 1H-120V-1H-160V1ZM-120 1H-80V-1H-120V1ZM-80 1H-40V-1H-80V1ZM-40 1H0V-1H-40V1ZM0 1H40V-1H0V1ZM40 1H80V-1H40V1ZM80 1H120V-1H80V1ZM120 1H160V-1H120V1ZM160 1H200V-1H160V1ZM200 1H240V-1H200V1ZM240 1H280V-1H240V1ZM280 1H320V-1H280V1ZM320 1H360V-1H320V1ZM360 1H400V-1H360V1ZM400 1H440V-1H400V1ZM440 1H480V-1H440V1ZM480 1H520V-1H480V1ZM520 1H560V-1H520V1ZM560 1H600V-1H560V1ZM600 1H640V-1H600V1ZM640 1H680V-1H640V1ZM680 1H720V-1H680V1ZM720 1H760V-1H720V1ZM760 1H800V-1H760V1ZM800 1H840V-1H800V1ZM840 1H880V-1H840V1ZM880 1H920V-1H880V1ZM920 1H960V-1H920V1ZM960 1H1000V-1H960V1ZM1000 1H1040V-1H1000V1ZM1040 1H1080V-1H1040V1ZM1080 1H1120V-1H1080V1ZM1120 1H1160V-1H1120V1ZM1160 1H1200V-1H1160V1ZM1200 1H1240V-1H1200V1ZM1240 1H1280V-1H1240V1ZM1280 1H1320V-1H1280V1ZM1320 1H1360V-1H1320V1ZM1360 1H1400V-1H1360V1ZM1400 1H1440V-1H1400V1ZM1440 1H1480V-1H1440V1ZM1480 1H1520V-1H1480V1ZM1520 1H1560V-1H1520V1ZM1560 1H1600V-1H1560V1ZM1600 1H1640V-1H1600V1ZM1640 1H1680V-1H1640V1ZM1680 1H1720V-1H1680V1ZM1720 1H1760V-1H1720V1ZM1760 1H1800V-1H1760V1ZM1799 0V40H1801V0H1799Z" fill="url(#paint0_radial_9164_11192)" mask="url(#path-1-inside-1_9164_11192)"/>
<defs>
<radialGradient id="paint0_radial_9164_11192" cx="0" cy="0" r="1" gradientUnits="userSpaceOnUse" gradientTransform="translate(600 400) rotate(-90) scale(400 643.239)">
<stop stop-color="#BEDBFF"/>
<stop offset="1" stop-color="#BEDBFF" stop-opacity="0"/>
</radialGradient>
</defs>
</svg>
