<svg width="16" height="16" viewBox="0 0 16 16" fill="none" xmlns="http://www.w3.org/2000/svg">
<g id="Frame">
<path id="Vector" d="M5.12554 10.687C4.9527 10.9858 5.0548 11.3682 5.35359 11.541C5.65237 11.7138 6.0347 11.6117 6.20755 11.313L5.12554 10.687ZM9.79218 11.313C9.96501 11.6117 10.3473 11.7138 10.6461 11.541C10.9449 11.3682 11.047 10.9858 10.8742 10.6871L9.79218 11.313ZM14.6666 9.31127V9.93627C15.0118 9.93627 15.2916 9.65645 15.2916 9.31127H14.6666ZM14.6666 6.68881H15.2916C15.2916 6.34363 15.0118 6.06381 14.6666 6.06381V6.68881ZM12.4879 2.97795L13.0269 3.29437C13.1116 3.15007 13.1349 2.97783 13.0916 2.8162C13.0483 2.65457 12.942 2.51706 12.7965 2.43444L12.4879 2.97795ZM10.1785 1.66674L10.4871 1.12323C10.19 0.954545 9.8125 1.05569 9.63953 1.35032L10.1785 1.66674ZM5.82234 1.66667L6.36132 1.35024C6.18835 1.05562 5.81085 0.954481 5.51375 1.12317L5.82234 1.66667ZM3.51294 2.97788L3.20435 2.43437C3.05884 2.51699 2.95253 2.65451 2.90923 2.81614C2.86593 2.97777 2.88924 3.15001 2.97396 3.29431L3.51294 2.97788ZM1.33325 6.68881V6.06381C0.988074 6.06381 0.708252 6.34363 0.708252 6.68881H1.33325ZM1.33325 9.31127H0.708252C0.708252 9.65645 0.988074 9.93627 1.33325 9.93627L1.33325 9.31127ZM3.51189 13.0221L2.97291 12.7057C2.88819 12.85 2.86487 13.0223 2.90818 13.1839C2.95148 13.3455 3.05779 13.483 3.2033 13.5656L3.51189 13.0221ZM5.82128 14.3333L5.5127 14.8768C5.8098 15.0455 6.1873 14.9444 6.36027 14.6498L5.82128 14.3333ZM10.1796 14.3333L9.6406 14.6497C9.81358 14.9443 10.1911 15.0455 10.4882 14.8768L10.1796 14.3333ZM12.489 13.0221L12.7976 13.5656C12.9431 13.483 13.0494 13.3455 13.0927 13.1838C13.136 13.0222 13.1127 12.85 13.028 12.7057L12.489 13.0221ZM6.20755 11.313C6.56618 10.693 7.23499 10.2781 7.99985 10.2781V9.02814C6.77071 9.02814 5.69841 9.69675 5.12554 10.687L6.20755 11.313ZM7.99985 10.2781C8.76479 10.2781 9.43356 10.693 9.79218 11.313L10.8742 10.6871C10.3013 9.69674 9.22905 9.02814 7.99985 9.02814V10.2781ZM8.70825 6.66667C8.70825 7.05787 8.39109 7.37501 7.99992 7.37501V8.62501C9.08141 8.62501 9.95825 7.74827 9.95825 6.66667H8.70825ZM7.99992 7.37501C7.60868 7.37501 7.29157 7.05788 7.29157 6.66667H6.04157C6.04157 7.74826 6.91835 8.62501 7.99992 8.62501V7.37501ZM7.29157 6.66667C7.29157 6.27548 7.60869 5.95834 7.99992 5.95834V4.70834C6.91835 4.70834 6.04157 5.58511 6.04157 6.66667H7.29157ZM7.99992 5.95834C8.39109 5.95834 8.70825 6.27548 8.70825 6.66667H9.95825C9.95825 5.5851 9.08142 4.70834 7.99992 4.70834V5.95834ZM15.2916 9.31127V6.68881H14.0416V9.31127H15.2916ZM14.6666 6.06381C13.2217 6.06381 12.3191 4.49989 13.0269 3.29437L11.9489 2.66152C10.7283 4.74067 12.3025 7.31381 14.6666 7.31381V6.06381ZM12.7965 2.43444L10.4871 1.12323L9.86993 2.21024L12.1793 3.52145L12.7965 2.43444ZM9.63953 1.35032C8.90503 2.60147 7.09591 2.60149 6.36132 1.35024L5.28336 1.9831C6.501 4.05712 9.49987 4.05727 10.7175 1.98316L9.63953 1.35032ZM5.51375 1.12317L3.20435 2.43437L3.82152 3.52139L6.13093 2.21018L5.51375 1.12317ZM2.97396 3.29431C3.68151 4.49949 2.77859 6.06381 1.33325 6.06381V7.31381C3.69688 7.31381 5.2728 4.74099 4.05192 2.66145L2.97396 3.29431ZM0.708252 6.68881V9.31127H1.95825V6.68881H0.708252ZM1.33325 9.93627C2.77812 9.93627 3.68066 11.5002 2.97291 12.7057L4.05086 13.3386C5.27151 11.2594 3.69729 8.68627 1.33325 8.68627V9.93627ZM3.2033 13.5656L5.5127 14.8768L6.12987 13.7898L3.82047 12.4786L3.2033 13.5656ZM6.36027 14.6498C7.0953 13.3977 8.90556 13.3977 9.6406 14.6497L10.7186 14.0168C9.50041 11.9419 6.5004 11.942 5.2823 14.0169L6.36027 14.6498ZM10.4882 14.8768L12.7976 13.5656L12.1804 12.4786L9.871 13.7898L10.4882 14.8768ZM13.028 12.7057C12.32 11.4997 13.2222 9.93627 14.6666 9.93627V8.68627C12.3021 8.68627 10.7297 11.2597 11.95 13.3385L13.028 12.7057Z" fill="#374151"/>
</g>
</svg>
