<svg width="16" height="16" viewBox="0 0 16 16" fill="none" xmlns="http://www.w3.org/2000/svg">
<g id="Frame">
<path id="Vector" d="M5.99992 2.33334V13.6667M1.64281 6.22918C1.47711 6.22918 1.32591 6.09487 1.33353 5.91931C1.37814 4.89126 1.50313 4.222 1.85331 3.69257C2.05477 3.38798 2.30502 3.12307 2.59274 2.9098C3.37042 2.33334 4.46751 2.33334 6.66169 2.33334H9.33819C11.5323 2.33334 12.6295 2.33334 13.4071 2.9098C13.6949 3.12307 13.9451 3.38798 14.1465 3.69257C14.4967 4.22194 14.6217 4.89111 14.6663 5.91896C14.6739 6.09473 14.5225 6.22918 14.3567 6.22918C13.4328 6.22918 12.6839 7.02201 12.6839 8.00001C12.6839 8.97801 13.4328 9.77081 14.3567 9.77081C14.5225 9.77081 14.6739 9.90528 14.6663 10.0811C14.6217 11.1089 14.4967 11.7781 14.1465 12.3075C13.9451 12.612 13.6949 12.8769 13.4071 13.0902C12.6295 13.6667 11.5323 13.6667 9.33819 13.6667H6.66169C4.46751 13.6667 3.37042 13.6667 2.59274 13.0902C2.30502 12.8769 2.05477 12.612 1.85331 12.3075C1.50313 11.778 1.37814 11.1087 1.33353 10.0807C1.32591 9.90514 1.47711 9.77081 1.64281 9.77081C2.56667 9.77081 3.3156 8.97801 3.3156 8.00001C3.3156 7.02201 2.56667 6.22918 1.64281 6.22918Z" stroke="#374151" stroke-width="1.25" stroke-linecap="round" stroke-linejoin="round"/>
</g>
</svg>
