<svg width="16" height="16" viewBox="0 0 16 16" fill="none" xmlns="http://www.w3.org/2000/svg">
<g id="Frame">
<path id="Vector" fill-rule="evenodd" clip-rule="evenodd" d="M5.50016 2.24238C5.50016 2.05105 5.50016 1.95539 5.43977 1.89652C5.37937 1.83764 5.2847 1.84006 5.09537 1.8449C4.70321 1.85491 4.35348 1.8736 4.04088 1.90848C3.35041 1.98553 2.78324 2.14643 2.29529 2.50812C1.95986 2.75676 1.66952 3.06454 1.43658 3.41673C1.0064 4.0671 0.879516 4.85556 0.834296 5.89763C0.812709 6.39508 1.23176 6.72921 1.6431 6.72921C2.26437 6.72921 2.8159 7.27094 2.8159 8.00001C2.8159 8.72908 2.26437 9.27081 1.6431 9.27081C1.23175 9.27081 0.812709 9.60494 0.834296 10.1024C0.879516 11.1445 1.0064 11.9329 1.43658 12.5833C1.66952 12.9355 1.95986 13.2433 2.29529 13.4919C2.78324 13.8536 3.35041 14.0145 4.04088 14.0915C4.35348 14.1264 4.70322 14.1451 5.09537 14.1551C5.2847 14.1599 5.37937 14.1623 5.43977 14.1035C5.50016 14.0446 5.50016 13.9489 5.50016 13.7577V2.24238ZM6.50016 14.0355C6.50016 14.1079 6.5589 14.1667 6.63135 14.1667H9.36907C10.4402 14.1667 11.2861 14.1667 11.9596 14.0915C12.6501 14.0145 13.2172 13.8536 13.7051 13.4919C14.0406 13.2433 14.3309 12.9355 14.5639 12.5833C14.994 11.933 15.1209 11.1446 15.1661 10.1027C15.1877 9.60501 14.7684 9.27081 14.3569 9.27081C13.7357 9.27081 13.1841 8.72908 13.1841 8.00001C13.1841 7.27094 13.7357 6.72921 14.3569 6.72921C14.7684 6.72921 15.1877 6.395 15.1661 5.89728C15.1209 4.85539 14.994 4.06703 14.5639 3.41673C14.3309 3.06454 14.0406 2.75676 13.7051 2.50812C13.2172 2.14643 12.6501 1.98553 11.9596 1.90848C11.2861 1.83333 10.4402 1.83334 9.36907 1.83334H6.63138C6.55891 1.83334 6.50016 1.89209 6.50016 1.96456V14.0355Z" fill="#3981F8"/>
</g>
</svg>
