<svg width="16" height="16" viewBox="0 0 16 16" fill="none" xmlns="http://www.w3.org/2000/svg">
<g id="Frame">
<path id="Vector" d="M7.33335 7.33334H5.33335M9.33335 4.66668H5.33335M2.66669 12.4305V5.36952C2.66669 3.46684 2.66669 2.51551 3.25247 1.92443C3.83826 1.33334 4.78107 1.33334 6.66669 1.33334H9.33335C11.219 1.33334 12.1618 1.33334 12.7476 1.92443C13.3334 2.51551 13.3334 3.46684 13.3334 5.36952V12.4305C13.3334 13.4383 13.3334 13.9422 13.0254 14.1405C12.5221 14.4647 11.7441 13.7849 11.3528 13.5382C11.0294 13.3343 10.8678 13.2323 10.6884 13.2265C10.4945 13.2201 10.33 13.3179 9.98062 13.5382L8.70669 14.3416C8.36302 14.5583 8.19122 14.6667 8.00002 14.6667C7.80882 14.6667 7.63702 14.5583 7.29335 14.3416L6.01944 13.5382C5.69612 13.3343 5.53446 13.2323 5.35504 13.2265C5.16117 13.2201 4.99664 13.3179 4.64727 13.5382C4.25599 13.7849 3.47793 14.4647 2.97465 14.1405C2.66669 13.9422 2.66669 13.4383 2.66669 12.4305Z" stroke="#374151" stroke-width="1.25" stroke-linecap="round" stroke-linejoin="round"/>
</g>
</svg>
