<svg width="16" height="16" viewBox="0 0 16 16" fill="none" xmlns="http://www.w3.org/2000/svg">
<g id="Frame">
<path id="Vector" fill-rule="evenodd" clip-rule="evenodd" d="M9.37053 0.833344H6.63013C5.71865 0.833331 4.98351 0.833317 4.40523 0.911771C3.80434 0.993291 3.29873 1.16775 2.89764 1.57247C2.49717 1.97657 2.3251 2.48491 2.2446 3.08909C2.16697 3.6717 2.16698 4.4127 2.16699 5.33316V12.4672C2.16697 12.9397 2.16694 13.3465 2.21026 13.6579C2.25467 13.9772 2.36197 14.3405 2.70423 14.5609C3.20989 14.8866 3.77033 14.6611 4.08505 14.4965C4.26529 14.4022 4.77379 14.0577 4.9143 13.9611C5.09617 13.8464 5.19686 13.7853 5.27227 13.7499C5.28673 13.7344 5.33446 13.7137 5.40969 13.7551C5.48583 13.7933 5.5831 13.8539 5.75303 13.9611L7.04479 14.7757C7.20119 14.8744 7.34933 14.9679 7.48293 15.0338C7.63206 15.1074 7.80079 15.1667 8.00033 15.1667C8.19986 15.1667 8.36859 15.1074 8.51773 15.0338C8.65126 14.9679 8.79939 14.8745 8.95573 14.7759L10.2477 13.9611C10.4295 13.8464 10.5302 13.7853 10.6056 13.7499C10.6223 13.7357 10.6732 13.7169 10.743 13.7551C10.7904 13.7789 10.9773 13.9015 11.1527 14.0166C11.2591 14.0865 11.3613 14.1535 11.4255 14.1941C11.566 14.2906 11.7354 14.4022 11.9156 14.4965C12.2303 14.6611 12.7908 14.8866 13.2965 14.5609C13.6387 14.3405 13.746 13.9772 13.7904 13.6579C13.8337 13.3465 13.8337 12.9397 13.8337 12.4672V5.3332C13.8337 4.41272 13.8337 3.6717 13.7561 3.08909C13.6755 2.48491 13.5035 1.97657 13.103 1.57247C12.7019 1.16775 12.1963 0.993291 11.5954 0.911771C11.0171 0.833317 10.282 0.833331 9.37053 0.833344ZM8.00033 7.33334C8.00033 7.70154 7.70186 8.00001 7.33366 8.00001H5.33366C4.96547 8.00001 4.66699 7.70154 4.66699 7.33334C4.66699 6.96514 4.96547 6.66668 5.33366 6.66668H7.33366C7.70186 6.66668 8.00033 6.96514 8.00033 7.33334ZM9.33366 5.33334C9.70186 5.33334 10.0003 5.03487 10.0003 4.66668C10.0003 4.29849 9.70186 4.00001 9.33366 4.00001H5.33366C4.96547 4.00001 4.66699 4.29849 4.66699 4.66668C4.66699 5.03487 4.96547 5.33334 5.33366 5.33334H9.33366Z" fill="#3981F8"/>
</g>
</svg>
