<svg width="16" height="16" viewBox="0 0 16 16" fill="none" xmlns="http://www.w3.org/2000/svg">
<g id="Frame" clip-path="url(#clip0_9080_2845)">
<path id="Vector" d="M6 10C6 8.1144 6 7.1716 6.58579 6.58579C7.1716 6 8.1144 6 10 6H10.6667C12.5523 6 13.4951 6 14.0809 6.58579C14.6667 7.1716 14.6667 8.1144 14.6667 10V10.6667C14.6667 12.5523 14.6667 13.4951 14.0809 14.0809C13.4951 14.6667 12.5523 14.6667 10.6667 14.6667H10C8.1144 14.6667 7.1716 14.6667 6.58579 14.0809C6 13.4951 6 12.5523 6 10.6667V10Z" stroke="#9CA3AF" stroke-width="1.5" stroke-linecap="round" stroke-linejoin="round"/>
<path id="Vector_2" d="M11.3329 6.00001C11.3313 4.02862 11.3015 3.00748 10.7277 2.3083C10.6169 2.17327 10.4931 2.04946 10.3581 1.93865C9.62047 1.33334 8.52467 1.33334 6.33301 1.33334C4.14135 1.33334 3.04553 1.33334 2.30796 1.93865C2.17293 2.04946 2.04913 2.17327 1.93831 2.3083C1.33301 3.04586 1.33301 4.14169 1.33301 6.33334C1.33301 8.52501 1.33301 9.62081 1.93831 10.3584C2.04912 10.4934 2.17293 10.6172 2.30796 10.728C3.00715 11.3019 4.02828 11.3317 5.99967 11.3333" stroke="#9CA3AF" stroke-width="1.5" stroke-linecap="round" stroke-linejoin="round"/>
</g>
<defs>
<clipPath id="clip0_9080_2845">
<rect width="16" height="16" fill="white"/>
</clipPath>
</defs>
</svg>
