<svg width="16" height="16" viewBox="0 0 16 16" fill="none" xmlns="http://www.w3.org/2000/svg">
<g id="Frame">
<path id="Vector" d="M10.9496 3.07006L11.6096 2.41007C12.1564 1.86331 13.0429 1.86331 13.5896 2.41007C14.1363 2.95683 14.1363 3.84329 13.5896 4.39005L12.9296 5.05004M10.9496 3.07006L6.51006 7.5096C6.17172 7.848 5.9317 8.27187 5.81565 8.73607L5.33301 10.6667L7.26361 10.184C7.72781 10.068 8.15167 9.82793 8.49007 9.4896L12.9296 5.05004M10.9496 3.07006L12.9296 5.05004" stroke="#9CA3AF" stroke-width="1.5" stroke-linejoin="round"/>
<path id="Vector_2" d="M12.6666 9.00001C12.6666 11.1917 12.6666 12.2875 12.0613 13.0251C11.9505 13.1601 11.8267 13.2839 11.6917 13.3947C10.9541 14 9.85827 14 7.6666 14H7.33333C4.81917 14 3.56211 14 2.78106 13.2189C2.00002 12.4379 2 11.1808 2 8.66668V8.33334C2 6.14169 2 5.04587 2.60529 4.3083C2.71611 4.17328 2.83993 4.04946 2.97496 3.93864C3.71253 3.33334 4.80835 3.33334 7 3.33334" stroke="#9CA3AF" stroke-width="1.5" stroke-linecap="round" stroke-linejoin="round"/>
</g>
</svg>
