<svg width="170" height="32" viewBox="0 0 170 32" fill="none" xmlns="http://www.w3.org/2000/svg">
<path d="M22.5781 6.66667L13.2812 2L3.98438 6.66667L13.2812 11.3333L22.5781 6.66667Z" fill="#336FE1"/>
<path fill-rule="evenodd" clip-rule="evenodd" d="M0 18L1.32812 17.3333L13.2812 23.3333L25.2344 17.3333L26.5625 18V23.3333L13.2812 30L0 23.3333V18ZM7.96875 25L6.64062 24.3333V22.3333L7.96875 23V25ZM8.63281 23.3333L9.96094 24V26L8.63281 25.3333V23.3333Z" fill="#336FE1"/>
<path fill-rule="evenodd" clip-rule="evenodd" d="M1.32812 8L0 8.66667V14L13.2812 20.6667L26.5625 14V8.66667L25.2344 8L13.2812 14L1.32812 8ZM6.64062 15L7.96875 15.6667V13.6667L6.64062 13V15ZM9.96094 14.6667L8.63281 14V16L9.96094 16.6667V14.6667Z" fill="#336FE1"/>
<path d="M43.7891 25.3333C42.7611 25.3333 41.8777 25.204 41.1388 24.9454C40.416 24.6707 39.8137 24.3232 39.3318 23.903C38.85 23.4667 38.4645 23.0141 38.1753 22.5454C37.8862 22.0768 37.6694 21.6323 37.5248 21.2121C37.3802 20.7757 37.2839 20.4283 37.2357 20.1697C37.2036 19.8949 37.1875 19.7576 37.1875 19.7576H39.5968C39.5968 19.7576 39.6209 19.8707 39.6691 20.097C39.7173 20.3232 39.8137 20.6061 39.9583 20.9454C40.1189 21.2848 40.3518 21.6323 40.657 21.9879C40.9621 22.3273 41.3717 22.6101 41.8857 22.8364C42.3997 23.0626 43.0502 23.1757 43.8373 23.1757C45.0259 23.1757 45.9656 22.8929 46.6562 22.3273C47.3469 21.7454 47.6923 20.9939 47.6923 20.0727C47.6923 19.2808 47.4272 18.6667 46.8972 18.2303C46.3832 17.7939 45.6443 17.4545 44.6806 17.2121L42.3194 16.6303C41.4842 16.4202 40.7051 16.1293 39.9823 15.7576C39.2756 15.3697 38.7054 14.8687 38.2717 14.2545C37.8541 13.6242 37.6453 12.8404 37.6453 11.903C37.6453 10.8525 37.9023 9.95555 38.4163 9.21211C38.9303 8.46868 39.629 7.90302 40.5124 7.51514C41.3958 7.1111 42.3997 6.90908 43.5241 6.90908C44.6163 6.90908 45.5238 7.07878 46.2467 7.41817C46.9695 7.75757 47.5477 8.17777 47.9814 8.67878C48.4151 9.16363 48.7363 9.65656 48.9451 10.1576C49.1539 10.6424 49.2905 11.0545 49.3547 11.3939C49.419 11.7333 49.4511 11.903 49.4511 11.903H47.1381C47.1381 11.903 47.106 11.7576 47.0417 11.4667C46.9775 11.1757 46.8249 10.8444 46.584 10.4727C46.343 10.0848 45.9736 9.74544 45.4757 9.45454C44.9777 9.16363 44.3031 9.01817 43.4518 9.01817C42.2953 9.01817 41.4199 9.29292 40.8256 9.84241C40.2474 10.3919 39.9583 11.0222 39.9583 11.7333C39.9583 12.3798 40.1912 12.905 40.657 13.3091C41.1228 13.697 41.7653 13.9959 42.5844 14.2061L45.1384 14.8364C46.0539 15.0626 46.8811 15.3939 47.62 15.8303C48.3588 16.2505 48.9451 16.8 49.3788 17.4788C49.8125 18.1414 50.0293 18.9576 50.0293 19.9273C50.0293 20.897 49.7884 21.7939 49.3065 22.6182C48.8407 23.4424 48.142 24.105 47.2104 24.606C46.2948 25.0909 45.1544 25.3333 43.7891 25.3333Z" fill="#020617"/>
<path d="M57.9504 25.3333C56.9064 25.3333 55.9908 25.1475 55.2038 24.7757C54.4167 24.3879 53.7582 23.8788 53.2281 23.2485C52.7141 22.602 52.3206 21.8828 52.0475 21.0909C51.7905 20.299 51.662 19.4909 51.662 18.6667C51.662 17.8424 51.7905 17.0424 52.0475 16.2667C52.3045 15.4747 52.69 14.7555 53.204 14.1091C53.7341 13.4626 54.3926 12.9535 55.1797 12.5818C55.9667 12.1939 56.8903 12 57.9504 12C58.9784 12 59.8297 12.1535 60.5043 12.4606C61.179 12.7677 61.7171 13.1555 62.1186 13.6242C62.5362 14.0768 62.8414 14.5374 63.0342 15.0061C63.243 15.4586 63.3795 15.8384 63.4438 16.1454C63.508 16.4525 63.5401 16.606 63.5401 16.606H61.3235C61.3235 16.606 61.2834 16.4768 61.2031 16.2182C61.1227 15.9434 60.9702 15.6364 60.7453 15.297C60.5204 14.9576 60.1831 14.6586 59.7334 14.4C59.2836 14.1252 58.6893 13.9879 57.9504 13.9879C57.067 13.9879 56.3201 14.2141 55.7097 14.6667C55.1154 15.103 54.6657 15.6768 54.3605 16.3879C54.0714 17.099 53.9268 17.8586 53.9268 18.6667C53.9268 19.4747 54.0714 20.2343 54.3605 20.9454C54.6657 21.6566 55.1154 22.2384 55.7097 22.6909C56.3201 23.1273 57.067 23.3454 57.9504 23.3454C58.6893 23.3454 59.2836 23.2162 59.7334 22.9576C60.1831 22.6828 60.5204 22.3757 60.7453 22.0364C60.9702 21.697 61.1227 21.398 61.2031 21.1394C61.2834 20.8646 61.3235 20.7273 61.3235 20.7273H63.5401C63.5401 20.7273 63.508 20.8808 63.4438 21.1879C63.3795 21.4949 63.243 21.8828 63.0342 22.3515C62.8414 22.804 62.5362 23.2646 62.1186 23.7333C61.7171 24.1858 61.179 24.5656 60.5043 24.8727C59.8297 25.1798 58.9784 25.3333 57.9504 25.3333Z" fill="#020617"/>
<path d="M71.2568 12C72.0599 12 72.7346 12.1293 73.2807 12.3879C73.8268 12.6465 74.2685 12.9535 74.6058 13.3091C74.9431 13.6485 75.2001 13.9717 75.3768 14.2788H75.5214V12.2424H77.8102V25.0909H75.5214V23.0545H75.3768C75.2001 23.3616 74.9431 23.6929 74.6058 24.0485C74.2685 24.404 73.8268 24.7111 73.2807 24.9697C72.7346 25.2121 72.0599 25.3333 71.2568 25.3333C70.2931 25.3333 69.4498 25.1475 68.727 24.7757C68.0042 24.3879 67.4019 23.8788 66.92 23.2485C66.4381 22.602 66.0767 21.8828 65.8358 21.0909C65.5948 20.299 65.4744 19.4909 65.4744 18.6667C65.4744 17.8424 65.5948 17.0343 65.8358 16.2424C66.0767 15.4505 66.4381 14.7394 66.92 14.1091C67.4019 13.4626 68.0042 12.9535 68.727 12.5818C69.4498 12.1939 70.2931 12 71.2568 12ZM71.6423 13.9636C70.791 13.9636 70.0762 14.198 69.498 14.6667C68.9197 15.1192 68.4861 15.701 68.1969 16.4121C67.9239 17.1232 67.7874 17.8747 67.7874 18.6667C67.7874 19.4424 67.9239 20.1939 68.1969 20.9212C68.4861 21.6323 68.9197 22.2222 69.498 22.6909C70.0762 23.1434 70.791 23.3697 71.6423 23.3697C72.4936 23.3697 73.2004 23.1434 73.7625 22.6909C74.3408 22.2222 74.7664 21.6323 75.0395 20.9212C75.3286 20.1939 75.4732 19.4424 75.4732 18.6667C75.4732 17.8747 75.3286 17.1232 75.0395 16.4121C74.7664 15.701 74.3408 15.1192 73.7625 14.6667C73.2004 14.198 72.4936 13.9636 71.6423 13.9636Z" fill="#020617"/>
<path d="M80.4509 25.0909L80.475 6.66666H82.7398V25.0909H80.4509Z" fill="#020617"/>
<path d="M90.9288 12C91.7319 12 92.4065 12.1293 92.9526 12.3879C93.4987 12.6465 93.9405 12.9535 94.2778 13.3091C94.6151 13.6485 94.8721 13.9717 95.0488 14.2788H95.1933V12.2424H97.4822V25.0909H95.1933V23.0545H95.0488C94.8721 23.3616 94.6151 23.6929 94.2778 24.0485C93.9405 24.404 93.4987 24.7111 92.9526 24.9697C92.4065 25.2121 91.7319 25.3333 90.9288 25.3333C89.965 25.3333 89.1218 25.1475 88.399 24.7757C87.6762 24.3879 87.0738 23.8788 86.5919 23.2485C86.1101 22.602 85.7487 21.8828 85.5077 21.0909C85.2668 20.299 85.1463 19.4909 85.1463 18.6667C85.1463 17.8424 85.2668 17.0343 85.5077 16.2424C85.7487 15.4505 86.1101 14.7394 86.5919 14.1091C87.0738 13.4626 87.6762 12.9535 88.399 12.5818C89.1218 12.1939 89.965 12 90.9288 12ZM91.3143 13.9636C90.463 13.9636 89.7482 14.198 89.1699 14.6667C88.5917 15.1192 88.158 15.701 87.8689 16.4121C87.5958 17.1232 87.4593 17.8747 87.4593 18.6667C87.4593 19.4424 87.5958 20.1939 87.8689 20.9212C88.158 21.6323 88.5917 22.2222 89.1699 22.6909C89.7482 23.1434 90.463 23.3697 91.3143 23.3697C92.1656 23.3697 92.8723 23.1434 93.4345 22.6909C94.0127 22.2222 94.4384 21.6323 94.7114 20.9212C95.0006 20.1939 95.1451 19.4424 95.1451 18.6667C95.1451 17.8747 95.0006 17.1232 94.7114 16.4121C94.4384 15.701 94.0127 15.1192 93.4345 14.6667C92.8723 14.198 92.1656 13.9636 91.3143 13.9636Z" fill="#020617"/>
<path d="M99.9301 25.0909V7.15151H102.918L111.109 19.3212V7.15151H114.362V25.0909H111.375L103.183 13.1394V25.0909H99.9301Z" fill="#020617"/>
<path d="M122.897 25.3333C121.5 25.3333 120.311 25.0182 119.332 24.3879C118.352 23.7576 117.605 22.9414 117.091 21.9394C116.593 20.9212 116.344 19.8303 116.344 18.6667C116.344 17.503 116.593 16.4202 117.091 15.4182C117.605 14.4 118.352 13.5757 119.332 12.9454C120.311 12.3151 121.5 12 122.897 12C124.311 12 125.5 12.3151 126.463 12.9454C127.443 13.5757 128.182 14.4 128.68 15.4182C129.194 16.4202 129.451 17.503 129.451 18.6667C129.451 19.8303 129.194 20.9212 128.68 21.9394C128.182 22.9414 127.443 23.7576 126.463 24.3879C125.5 25.0182 124.311 25.3333 122.897 25.3333ZM122.897 22.6424C123.62 22.6424 124.223 22.4566 124.704 22.0848C125.202 21.7131 125.58 21.2283 125.837 20.6303C126.094 20.0162 126.222 19.3616 126.222 18.6667C126.222 17.9555 126.094 17.301 125.837 16.703C125.58 16.105 125.202 15.6202 124.704 15.2485C124.223 14.8768 123.62 14.6909 122.897 14.6909C122.191 14.6909 121.588 14.8768 121.09 15.2485C120.592 15.6202 120.215 16.105 119.958 16.703C119.701 17.301 119.573 17.9555 119.573 18.6667C119.573 19.3616 119.701 20.0162 119.958 20.6303C120.215 21.2283 120.592 21.7131 121.09 22.0848C121.588 22.4566 122.191 22.6424 122.897 22.6424Z" fill="#020617"/>
<path d="M136.642 25.3333C135.694 25.3333 134.867 25.1475 134.16 24.7757C133.453 24.3879 132.859 23.8788 132.377 23.2485C131.911 22.602 131.558 21.8828 131.317 21.0909C131.092 20.299 130.98 19.4909 130.98 18.6667C130.98 17.8424 131.092 17.0343 131.317 16.2424C131.558 15.4505 131.911 14.7394 132.377 14.1091C132.859 13.4626 133.453 12.9535 134.16 12.5818C134.867 12.1939 135.694 12 136.642 12C137.461 12 138.136 12.1374 138.666 12.4121C139.196 12.6707 139.613 12.9616 139.919 13.2848C140.224 13.5919 140.433 13.8424 140.545 14.0364H140.69V6.66666H143.894V25.0909H140.69V23.297H140.545C140.433 23.4909 140.224 23.7495 139.919 24.0727C139.613 24.3959 139.196 24.6869 138.666 24.9454C138.136 25.204 137.461 25.3333 136.642 25.3333ZM137.485 22.6909C138.208 22.6909 138.81 22.497 139.292 22.1091C139.774 21.705 140.135 21.1959 140.376 20.5818C140.617 19.9677 140.738 19.3293 140.738 18.6667C140.738 18.004 140.617 17.3656 140.376 16.7515C140.135 16.1374 139.774 15.6364 139.292 15.2485C138.81 14.8444 138.208 14.6424 137.485 14.6424C136.762 14.6424 136.152 14.8444 135.654 15.2485C135.172 15.6364 134.811 16.1374 134.57 16.7515C134.329 17.3656 134.208 18.004 134.208 18.6667C134.208 19.3293 134.329 19.9677 134.57 20.5818C134.811 21.1959 135.172 21.705 135.654 22.1091C136.152 22.497 136.762 22.6909 137.485 22.6909Z" fill="#020617"/>
<path d="M152.235 25.3333C151.143 25.3333 150.195 25.1475 149.392 24.7757C148.605 24.3879 147.947 23.8788 147.416 23.2485C146.902 22.602 146.517 21.8828 146.26 21.0909C146.003 20.299 145.875 19.4909 145.875 18.6667C145.875 17.8424 145.995 17.0424 146.236 16.2667C146.493 15.4747 146.87 14.7555 147.368 14.1091C147.882 13.4626 148.533 12.9535 149.32 12.5818C150.107 12.1939 151.039 12 152.115 12C153.271 12 154.291 12.2586 155.175 12.7757C156.058 13.2929 156.749 14.0525 157.247 15.0545C157.745 16.0404 157.994 17.2687 157.994 18.7394V19.5636H149.103C149.151 20.4364 149.448 21.1959 149.994 21.8424C150.541 22.4727 151.288 22.7879 152.235 22.7879C152.781 22.7879 153.231 22.699 153.584 22.5212C153.938 22.3434 154.211 22.1414 154.404 21.9151C154.596 21.6727 154.733 21.4707 154.813 21.3091C154.893 21.1313 154.934 21.0424 154.934 21.0424H157.897C157.897 21.0424 157.857 21.1879 157.777 21.4788C157.696 21.7535 157.544 22.1091 157.319 22.5454C157.11 22.9656 156.797 23.3939 156.379 23.8303C155.962 24.2505 155.416 24.6061 154.741 24.897C154.066 25.1879 153.231 25.3333 152.235 25.3333ZM149.103 17.4545H154.91C154.861 16.4525 154.564 15.7091 154.018 15.2242C153.472 14.7394 152.829 14.497 152.091 14.497C151.271 14.497 150.589 14.7636 150.043 15.297C149.497 15.8141 149.183 16.5333 149.103 17.4545Z" fill="#020617"/>
<path d="M164.989 25.3333C163.944 25.3333 163.085 25.1959 162.411 24.9212C161.736 24.6303 161.198 24.2747 160.796 23.8545C160.411 23.4182 160.122 22.9899 159.929 22.5697C159.736 22.1495 159.608 21.802 159.543 21.5273C159.495 21.2364 159.471 21.0909 159.471 21.0909H162.507C162.507 21.0909 162.531 21.1798 162.579 21.3576C162.643 21.5353 162.756 21.7454 162.916 21.9879C163.093 22.2141 163.358 22.4162 163.712 22.5939C164.065 22.7717 164.531 22.8606 165.109 22.8606C165.8 22.8606 166.298 22.7151 166.603 22.4242C166.908 22.1172 167.061 21.7778 167.061 21.406C167.061 21.0505 166.924 20.7677 166.651 20.5576C166.394 20.3313 166.008 20.1616 165.494 20.0485L163.736 19.6848C163.029 19.5394 162.37 19.3293 161.76 19.0545C161.15 18.7636 160.652 18.3757 160.266 17.8909C159.881 17.3899 159.688 16.7515 159.688 15.9757C159.688 14.8283 160.122 13.8828 160.989 13.1394C161.856 12.3798 163.037 12 164.531 12C165.478 12 166.257 12.1293 166.868 12.3879C167.494 12.6465 167.992 12.9697 168.362 13.3576C168.747 13.7454 169.028 14.1333 169.205 14.5212C169.398 14.9091 169.518 15.2404 169.566 15.5151C169.631 15.7737 169.663 15.903 169.663 15.903H166.723C166.723 15.903 166.699 15.8303 166.651 15.6848C166.603 15.5232 166.498 15.3454 166.338 15.1515C166.193 14.9576 165.968 14.7879 165.663 14.6424C165.374 14.4808 164.981 14.4 164.483 14.4C163.808 14.4 163.326 14.5454 163.037 14.8364C162.764 15.1273 162.627 15.4343 162.627 15.7576C162.627 16.1131 162.78 16.3879 163.085 16.5818C163.39 16.7757 163.784 16.9212 164.266 17.0182L165.928 17.3818C167.117 17.6242 168.089 18.0444 168.843 18.6424C169.614 19.2404 170 20.105 170 21.2364C170 21.9959 169.799 22.6909 169.398 23.3212C169.012 23.9353 168.442 24.4283 167.687 24.8C166.948 25.1555 166.049 25.3333 164.989 25.3333Z" fill="#020617"/>
</svg>
